<?xml version="1.0" encoding="UTF-8" standalone="no"?><!DOCTYPE svg PUBLIC "-//W3C//DTD SVG 1.1//EN" "http://www.w3.org/Graphics/SVG/1.1/DTD/svg11.dtd"><svg width="100%" height="100%" viewBox="0 0 1250 250" version="1.1" xmlns="http://www.w3.org/2000/svg" xmlns:xlink="http://www.w3.org/1999/xlink" xml:space="preserve" xmlns:serif="http://www.serif.com/" style="fill-rule:evenodd;clip-rule:evenodd;stroke-linejoin:round;stroke-miterlimit:2;"><g><rect x="4.167" y="4.167" width="45.833" height="241.667" style="fill-rule:nonzero;"/><path d="M179.167,4.167l-78.75,117.917l84.583,123.75l26.25,0c14.583,0 26.208,0.029 26.208,0.029l-62.429,-99.818c0,0 12.055,-0.211 66.222,-0.211c37.083,0 36.862,0.078 67.136,-0.021c2.881,-0.009 0.447,-2.753 -20.886,50.438c-11.25,23.75 -20.993,49.583 -20.993,49.583l46.409,0l46.667,-100l87.083,0l47.083,100l47.5,0l-6.667,-15.417c-3.333,-8.75 -38.708,-84.582 -38.708,-84.582c0,0 27.041,-0.001 60.374,-0.001l60.417,0l0,100l45.833,0l0,-100l166.667,0l0,100l45.833,0l0,-100l375,0l0,-41.667l-775.417,0l-46.667,-100l-49.167,0l-46.667,100l-80.833,0c-43.468,0 -72.221,-0.034 -79.99,-0.036c-0.125,-0 -0.358,-0 -0.358,-0l63.265,-99.964l-55,0Zm223.219,50l22.692,49.927l-46.056,-0.018l23.363,-49.909Z" style="fill-rule:nonzero;"/><rect x="550" y="4.167" width="179.167" height="41.667" style="fill-rule:nonzero;"/><rect x="762.5" y="4.167" width="179.167" height="41.667" style="fill-rule:nonzero;"/><rect x="991.667" y="4.167" width="258.333" height="41.667" style="fill-rule:nonzero;"/><rect x="991.667" y="204.167" width="258.333" height="41.667" style="fill-rule:nonzero;"/></g></svg>