<svg width="86" height="44" viewBox="0 0 86 44" fill="none" xmlns="http://www.w3.org/2000/svg">
<path d="M84.5342 20.0891C78.8342 14.7392 61.4376 0 42.7793 0C24.121 0 6.5966 14.7245 0.834465 20.0811C-0.278155 21.1158 -0.278155 22.8848 0.834465 23.9189C6.5966 29.2755 24.1307 44 42.7793 44C61.4278 44 78.8342 29.2608 84.5342 23.9103C85.6353 22.8768 85.6353 21.122 84.5342 20.0884V20.0891ZM53.6298 33.044C50.7027 35.9937 46.8104 37.6185 42.6709 37.6185C38.5315 37.6185 34.6391 35.9937 31.7121 33.044C28.7851 30.0943 27.1728 26.1718 27.1728 22.0003C27.1728 17.8288 28.7851 13.9063 31.7121 10.9566C34.6391 8.00692 38.5315 6.3821 42.6709 6.3821C46.8104 6.3821 50.7027 8.00692 53.6298 10.9566C56.5568 13.9063 58.1691 17.8288 58.1691 22.0003C58.1691 26.1718 56.5568 30.0943 53.6298 33.044Z" fill="#FFFAEE"/>
<ellipse cx="50.6" cy="11.88" rx="4.84" ry="4.84" fill="#FFFAEE"/>
</svg>
