<?xml version="1.0" encoding="UTF-8" standalone="no"?><!DOCTYPE svg PUBLIC "-//W3C//DTD SVG 1.1//EN" "http://www.w3.org/Graphics/SVG/1.1/DTD/svg11.dtd"><svg width="100%" height="100%" viewBox="0 0 2743 2754" version="1.1" xmlns="http://www.w3.org/2000/svg" xmlns:xlink="http://www.w3.org/1999/xlink" xml:space="preserve" xmlns:serif="http://www.serif.com/" style="fill-rule:evenodd;clip-rule:evenodd;stroke-linejoin:round;stroke-miterlimit:2;"><path id="path1" d="M1236.219,4.018c-25.547,8.333 -32.604,9.453 -59.544,9.453c-22.227,0 -34.023,1.914 -51.966,8.424c-14.141,5.13 -30.469,8.424 -41.771,8.437c-12.826,0.026 -21.654,2.083 -28.646,6.719c-6.693,4.427 -15.807,6.706 -26.979,6.719c-11.497,0.013 -21.914,2.708 -32.695,8.451c-9.388,4.987 -21.367,8.411 -29.479,8.411c-9.492,0 -15.43,2.057 -19.427,6.745c-4.076,4.753 -9.948,6.732 -19.922,6.732c-10.182,0 -16.966,2.37 -24.167,8.424c-5.586,4.701 -14.284,8.424 -19.661,8.424c-6.003,0 -11.25,2.552 -13.867,6.732c-3.294,5.273 -7.852,6.745 -20.99,6.745c-13.138,0 -17.708,1.458 -20.99,6.732c-2.799,4.492 -7.865,6.745 -15.117,6.745c-7.917,0 -12.422,2.305 -16.419,8.424c-3.958,6.029 -8.529,8.411 -16.12,8.411c-6.94,0 -12.031,2.331 -14.792,6.745c-2.682,4.284 -7.865,6.732 -14.206,6.732c-6.953,0 -11.693,2.578 -15.521,8.424c-3.659,5.586 -8.633,8.424 -14.727,8.424c-5.052,0 -11.94,3.034 -15.286,6.745c-3.359,3.698 -9.18,6.732 -12.943,6.732c-3.763,0 -10.286,3.242 -14.505,7.201c-8.216,7.721 -17.031,13.307 -33.268,21.068c-5.586,2.669 -13.021,8.021 -16.523,11.875c-3.49,3.867 -8.151,7.018 -10.365,7.018c-2.227,0 -9.948,4.453 -17.174,9.896c-7.227,5.456 -24.505,18.177 -38.398,28.294c-13.906,10.117 -29.062,21.51 -33.698,25.326c-4.622,3.815 -18.268,14.492 -30.313,23.724c-29.453,22.591 -34.753,27.435 -89.284,81.484c-60.951,60.443 -70.469,70.729 -91.628,99.102c-9.674,12.982 -20.43,26.615 -23.906,30.326c-14.974,16.003 -34.375,41.159 -34.375,44.57c0,2.044 -6.706,10.911 -14.883,19.701c-8.568,9.193 -15.768,20.625 -16.94,26.901c-1.133,6.016 -4.154,11.732 -6.732,12.721c-2.565,0.99 -10.156,11.602 -16.862,23.594c-6.706,11.979 -14.414,23.633 -17.122,25.885c-2.721,2.266 -4.948,7.474 -4.948,11.589c0,4.128 -2.995,10.208 -6.654,13.516c-3.659,3.307 -7.656,9.232 -8.88,13.151c-1.237,3.932 -5.065,10.755 -8.516,15.169c-3.451,4.427 -6.276,10.573 -6.276,13.672c0,3.086 -3.789,10.755 -8.411,17.044c-4.635,6.276 -8.424,13.529 -8.424,16.12c0,2.591 -3.034,8.568 -6.745,13.281c-3.698,4.701 -6.732,12.917 -6.732,18.242c0,5.521 -2.904,12.174 -6.745,15.456c-3.698,3.177 -6.732,9.779 -6.732,14.674c0,4.896 -3.229,13.008 -7.188,18.034c-3.945,5.013 -7.943,15.898 -8.867,24.167c-0.99,8.776 -4.089,16.732 -7.448,19.115c-3.164,2.253 -6.602,10.482 -7.643,18.281c-1.029,7.812 -5.052,18.255 -8.945,23.203c-5.169,6.576 -7.07,13.802 -7.07,26.901c0,13.451 -1.445,18.711 -5.82,21.159c-4.505,2.526 -6.107,9.01 -7.109,28.88c-1.055,20.872 -2.474,26.263 -7.656,29.036c-5.326,2.852 -6.393,7.396 -6.471,27.721c-0.091,19.818 -1.641,26.784 -8.411,37.773c-7.005,11.38 -8.294,17.695 -8.32,40.547c0,18.672 -2.161,33.203 -6.966,46.862c-10.742,30.547 -10.69,328.711 0.065,349.323c5.234,10.052 6.888,19.583 6.888,39.701c0,18.242 2.617,35.508 8.424,55.534c4.635,15.977 8.424,34.401 8.424,40.938c0,6.523 3.034,17.812 6.732,25.078c3.711,7.266 6.745,19.128 6.745,26.367c0,7.695 2.591,16.484 6.263,21.185c3.503,4.492 6.992,15.872 7.93,25.833c1.12,11.849 4.089,20.365 8.906,25.482c4.583,4.883 7.214,12.057 7.214,19.648c0,6.862 2.878,15.612 6.745,20.534c3.698,4.714 6.732,12.487 6.732,17.292c0,4.805 3.685,15.938 8.177,24.74c15.781,30.898 25.521,53.203 25.521,58.477c0,2.93 3.021,8.073 6.732,11.432c3.724,3.359 6.732,10.378 6.732,15.651c0,5.911 2.578,11.159 6.745,13.763c3.919,2.448 6.732,7.852 6.732,12.917c0,4.935 3.659,12.135 8.424,16.615c4.635,4.362 8.424,10.951 8.424,14.648c0,3.698 2.214,9.167 4.922,12.161c2.708,2.995 9.74,14.479 15.638,25.534c5.885,11.055 13.529,22.07 16.979,24.492c3.438,2.422 6.263,8.021 6.263,12.435c0,4.427 1.536,8.984 3.424,10.156c1.888,1.159 9.453,11.484 16.81,22.943c16.406,25.521 23.034,34.31 32.826,43.529c4.167,3.919 7.578,9.036 7.578,11.354c0,4.57 24.271,35.573 44.648,57.044c26.237,27.617 46.315,52.305 46.315,56.927c0,2.63 2.943,5.729 6.549,6.875c3.607,1.146 14.232,10.716 23.607,21.276c25.43,28.62 86.719,84.844 92.63,84.974c1.953,0.039 8.841,6.237 15.339,13.763c6.484,7.513 21.172,18.932 32.656,25.365c11.484,6.445 25.43,16.901 31.016,23.255c5.573,6.354 19.31,16.354 30.508,22.227c11.198,5.872 20.352,11.81 20.352,13.203c0,2.695 19.883,15.625 33.698,21.901c4.635,2.109 10.508,6.341 13.047,9.401c2.539,3.06 8.802,5.573 13.932,5.573c6.198,0 11.133,2.799 14.818,8.411c3.034,4.635 8.333,8.424 11.771,8.424c3.437,0 8.073,2.201 10.299,4.883c2.227,2.682 9.609,6.693 16.406,8.919c6.81,2.214 15.99,6.836 20.404,10.273c4.414,3.437 9.922,6.25 12.227,6.25c2.292,0 6.055,2.266 8.359,5.026c2.292,2.773 10.43,6.693 18.099,8.737c7.656,2.044 16.198,5.716 18.971,8.164c2.786,2.448 10.638,5.495 17.474,6.758c6.823,1.263 15.013,5.182 18.203,8.711c3.19,3.516 9.31,6.393 13.62,6.393c4.297,0 12.773,3.034 18.841,6.732c6.068,3.698 15.117,6.732 20.117,6.732c5,0.013 16.211,3.802 24.935,8.438c8.711,4.635 20.299,8.424 25.755,8.424c5.443,0 13.763,3.034 18.477,6.732c6.354,5 13.672,6.745 28.32,6.745c15.599,0 21.263,1.497 26.849,7.083c5.078,5.078 12.969,7.617 27.799,8.945c11.38,1.016 27.266,4.648 35.299,8.073c8.034,3.411 22.435,6.237 32.005,6.263c9.57,0.026 27.266,3.255 39.31,7.188c16.315,5.326 35.612,7.812 75.794,9.792c29.648,1.458 62.24,4.31 72.435,6.341c32.604,6.497 122.799,6.289 130.182,-0.299c5.26,-4.688 16.745,-5.755 72.096,-6.732c59.141,-1.055 66.862,-1.862 75.807,-7.917c7.982,-5.391 17.409,-7.07 47.5,-8.411c27.956,-1.263 39.141,-3.086 43.802,-7.148c3.685,-3.229 15.755,-6.38 29.518,-7.721c14.674,-1.432 26.68,-4.714 32.526,-8.867c6.237,-4.453 14.779,-6.589 26.25,-6.589c12.083,0 17.865,-1.562 20.013,-5.391c1.667,-2.969 10.339,-6.758 19.284,-8.438c8.945,-1.667 18.841,-5.365 21.992,-8.216c3.151,-2.852 13.229,-6.367 22.422,-7.812c9.18,-1.458 20.326,-5.182 24.753,-8.294c4.44,-3.099 12.422,-5.651 17.747,-5.651c5.326,0 13.789,-2.93 18.828,-6.51c5.026,-3.581 13.021,-7.487 17.76,-8.672c4.753,-1.198 18.294,-7.331 30.117,-13.646c11.823,-6.315 25.286,-13.021 29.922,-14.909c4.622,-1.875 10.69,-4.948 13.477,-6.81c2.773,-1.875 8.841,-5.221 13.477,-7.448c4.622,-2.227 12.031,-6.771 16.445,-10.091c4.427,-3.307 10.833,-6.029 14.245,-6.029c3.411,0 8.685,-3.789 11.732,-8.424c3.646,-5.573 8.62,-8.411 14.714,-8.411c5.052,0 11.836,-2.917 15.065,-6.484c3.229,-3.568 14.18,-10.69 24.336,-15.833c10.169,-5.143 19.948,-12.083 21.732,-15.417c1.784,-3.333 5.091,-6.094 7.331,-6.133c3.854,-0.052 25.156,-13.372 36.185,-22.617c16.615,-13.919 26.016,-20.456 32.253,-22.396c3.893,-1.224 16.771,-12.005 28.633,-23.958c11.862,-11.966 23.516,-21.797 25.885,-21.836c8.19,-0.156 122.018,-107.695 122.018,-115.273c0,-1.315 6.745,-8.021 14.987,-14.922c8.242,-6.888 16.771,-16.81 18.945,-22.057c2.161,-5.247 5.273,-9.544 6.901,-9.544c1.628,0 2.969,-1.888 2.982,-4.206c0.013,-2.318 8.503,-12.448 18.867,-22.526c10.352,-10.065 21.198,-22.188 24.089,-26.94c14.31,-23.49 23.255,-36.003 28.62,-40c3.242,-2.422 5.885,-6.354 5.885,-8.75c0,-2.383 3.034,-7.083 6.745,-10.43c3.711,-3.359 6.732,-8.867 6.732,-12.24c0,-3.372 3.789,-8.62 8.424,-11.654c4.635,-3.034 8.424,-7.786 8.424,-10.56c0,-5.807 20.143,-37.982 23.776,-37.982c1.328,0 3.424,-5.286 4.635,-11.745c1.224,-6.563 5.117,-13.32 8.789,-15.286c4.128,-2.201 6.602,-7.044 6.602,-12.93c0,-5.664 3.333,-12.539 8.411,-17.318c4.779,-4.479 8.424,-11.68 8.424,-16.615c0,-4.922 2.799,-10.456 6.432,-12.734c3.542,-2.201 7.461,-8.633 8.698,-14.284c1.237,-5.638 3.633,-10.26 5.299,-10.26c1.68,0 4.753,-6.732 6.823,-14.961c2.07,-8.216 6.641,-17.552 10.156,-20.729c3.607,-3.268 6.419,-10.326 6.471,-16.211c0.039,-5.729 3.034,-14.219 6.654,-18.854c3.685,-4.701 6.628,-13.724 6.667,-20.443c0.052,-8.568 2.5,-14.128 8.503,-19.349c5.156,-4.479 8.424,-10.924 8.437,-16.615c0.013,-5.104 3.034,-13.828 6.719,-19.388c3.854,-5.82 6.706,-15.82 6.732,-23.581c0.013,-7.682 3.06,-18.437 7.057,-25.013c3.867,-6.341 7.878,-19.974 8.919,-30.312c1.055,-10.599 4.596,-22.292 8.112,-26.823c4.284,-5.521 6.237,-13.659 6.237,-26.016c0,-11.849 2.474,-22.708 7.266,-31.914c5.599,-10.742 7.617,-21.758 8.776,-48.112c1.042,-23.503 3.203,-36.784 6.927,-42.578c12.669,-19.701 12.513,-371.693 -0.169,-381.549c-4.284,-3.32 -5.651,-12.37 -6.549,-43.607c-1.016,-35.716 -1.836,-40.065 -8.685,-46.445c-6.445,-6.016 -7.565,-10.534 -7.565,-30.625c0,-16.406 -1.719,-26.198 -5.664,-32.214c-3.112,-4.753 -6.771,-16.771 -8.112,-26.719c-1.354,-9.948 -5.625,-22.539 -9.505,-27.982c-3.867,-5.43 -7.044,-15 -7.044,-21.25c0,-6.25 -2.539,-14.987 -5.638,-19.427c-3.112,-4.427 -6.836,-15.573 -8.294,-24.753c-1.445,-9.193 -5.104,-19.427 -8.112,-22.747c-3.008,-3.333 -6.315,-12.292 -7.331,-19.922c-1.107,-8.242 -4.232,-15.13 -7.682,-16.979c-3.75,-2.005 -6.458,-8.724 -7.604,-18.815c-0.964,-8.633 -3.242,-16.654 -5.052,-17.812c-1.797,-1.159 -9.583,-15.352 -17.279,-31.536c-7.708,-16.198 -19.271,-38.177 -25.716,-48.854c-6.432,-10.677 -11.706,-22.005 -11.719,-25.169c0,-5.872 -11.602,-25.117 -23.607,-39.167c-3.698,-4.336 -6.719,-10.69 -6.719,-14.128c0,-3.437 -1.484,-7.161 -3.281,-8.281c-4.792,-2.956 -27.044,-37.148 -27.044,-41.549c0,-2.057 -3.021,-5.365 -6.732,-7.344c-3.711,-1.992 -6.745,-5.104 -6.745,-6.914c0,-5.208 -33.88,-50.755 -47.917,-64.414c-6.992,-6.81 -12.721,-13.542 -12.721,-14.987c0,-14.935 -197.747,-213.529 -212.63,-213.529c-1.927,0 -9.648,-6.393 -17.161,-14.206c-7.513,-7.826 -19.245,-16.719 -26.068,-19.779c-6.823,-3.047 -17.617,-9.922 -23.971,-15.26c-18.607,-15.612 -32.826,-24.87 -38.203,-24.87c-2.747,0 -7.253,-3.216 -10,-7.148c-5.247,-7.487 -12.799,-12.565 -32.383,-21.771c-6.458,-3.034 -13.737,-8.372 -16.185,-11.875c-2.682,-3.815 -8.477,-6.367 -14.479,-6.367c-5.977,0 -10.846,-2.122 -12.044,-5.26c-1.107,-2.891 -7.878,-7.604 -15.052,-10.469c-7.174,-2.865 -13.034,-6.445 -13.034,-7.956c0,-1.497 -4.935,-3.776 -10.951,-5.052c-6.029,-1.263 -13.984,-4.974 -17.695,-8.242c-3.698,-3.268 -10.938,-6.927 -16.081,-8.151c-5.143,-1.211 -12.344,-5.195 -16.003,-8.854c-3.919,-3.919 -11.198,-6.654 -17.695,-6.654c-6.875,0 -13.216,-2.552 -16.81,-6.745c-3.177,-3.698 -9.193,-6.745 -13.385,-6.758c-4.193,-0.013 -12.161,-3.034 -17.721,-6.719c-5.56,-3.672 -15.195,-6.693 -21.406,-6.706c-7.122,-0.013 -15.013,-3.151 -21.315,-8.451c-7.253,-6.107 -13.971,-8.424 -24.388,-8.424c-10.104,0 -16.198,-2.005 -20.482,-6.732c-4.453,-4.922 -10.378,-6.745 -21.966,-6.745c-11.276,0 -18.607,-2.148 -25.352,-7.461c-6.966,-5.469 -15.352,-7.826 -31.615,-8.854c-14.831,-0.938 -24.779,-3.477 -30.169,-7.695c-6.367,-5 -13.776,-6.302 -35.755,-6.302c-23.542,0 -29.167,-1.133 -37.24,-7.474c-8.385,-6.602 -15.078,-7.747 -57.344,-9.831c-33.164,-1.628 -51.016,-3.984 -58.164,-7.682c-12.083,-6.25 -242.982,-7.409 -261.628,-1.315m201.797,284.805c5.404,5.404 42.682,10.586 77.812,10.807c31.081,0.208 38.698,1.328 47.174,6.94c7.812,5.169 15.82,6.693 35.365,6.719c22.07,0.026 26.51,1.094 35.065,8.438c8.372,7.214 13.112,8.424 32.812,8.424c19.375,0 23.698,1.068 27.24,6.732c3.255,5.208 7.852,6.745 20.26,6.745c12.93,0 17.487,1.641 23.385,8.424c4.674,5.378 10.859,8.424 17.122,8.424c5.404,0 13.672,3.021 18.385,6.732c4.714,3.711 13.659,6.732 19.922,6.732c7.917,0 13.581,2.552 18.685,8.424c4.557,5.247 10.885,8.424 16.797,8.424c5.82,0 11.081,2.591 13.672,6.745c2.617,4.18 7.852,6.732 13.867,6.732c6.276,0 11.966,2.943 16.276,8.424c4.323,5.495 9.987,8.424 16.315,8.424c5.339,0 10.911,2.005 12.396,4.479c4.062,6.758 28.737,22.474 35.286,22.474c3.164,0 7.812,2.917 10.312,6.497c2.513,3.568 9.036,7.552 14.518,8.841c5.469,1.289 12.227,4.974 15,8.203c8.802,10.182 43.88,37.096 48.372,37.096c2.383,0 7.578,3.411 11.562,7.578c3.984,4.167 11.458,10.977 16.615,15.143c5.143,4.154 24.935,21.211 43.984,37.891c19.036,16.693 36.055,30.352 37.812,30.352c1.758,0 5.43,4.31 8.151,9.596c2.734,5.273 15.768,20.065 28.958,32.839c13.19,12.786 26.146,27.344 28.802,32.331c2.643,5 8.841,13.333 13.75,18.529c4.909,5.195 17.682,21.576 28.372,36.406c10.703,14.818 22.227,29.974 25.612,33.685c5.924,6.471 13.945,19.531 20.703,33.685c1.771,3.711 6.419,9.635 10.339,13.164c3.919,3.529 7.122,9.779 7.122,13.906c0,4.115 2.513,9.557 5.573,12.109c3.073,2.539 7.708,9.167 10.313,14.727c2.604,5.56 6.888,13.893 9.531,18.529c2.643,4.635 4.831,11.602 4.857,15.482c0.026,3.88 3.073,9.805 6.784,13.151c16.198,14.661 -0.443,40.365 -38.737,59.883c-5.56,2.826 -15.716,10.599 -22.578,17.266c-7.201,7.005 -15.833,12.135 -20.443,12.135c-4.401,0 -11.276,3.789 -15.312,8.424c-4.023,4.622 -8.75,8.411 -10.482,8.411c-1.745,0 -4.076,2.891 -5.195,6.406c-1.12,3.529 -5.729,7.331 -10.247,8.464c-8.49,2.135 -32.109,16.966 -35.339,22.188c-2.383,3.841 -26.484,20.221 -29.779,20.221c-1.38,0 -10.026,6.849 -19.219,15.234c-9.18,8.385 -20.365,16.185 -24.831,17.344c-8.294,2.161 -12.096,4.896 -32.526,23.49c-6.393,5.833 -18.437,13.802 -26.758,17.708c-8.32,3.906 -15.13,8.503 -15.13,10.208c0,1.719 -8.711,8.047 -19.362,14.076c-10.664,6.029 -24.674,16.055 -31.172,22.292c-6.484,6.224 -21.263,16.641 -32.839,23.138c-11.589,6.497 -21.055,13.164 -21.055,14.831c0,1.667 -7.734,6.914 -17.188,11.667c-9.466,4.74 -25,15.13 -34.531,23.086c-9.544,7.943 -21.133,16.289 -25.768,18.516c-4.635,2.24 -16.758,10.117 -26.953,17.513c-10.195,7.396 -19.583,13.451 -20.872,13.451c-1.276,0 -8.099,5.339 -15.156,11.875c-7.044,6.523 -20.651,16.315 -30.221,21.758c-9.57,5.443 -21.25,13.75 -25.951,18.464c-4.714,4.701 -10.43,8.555 -12.708,8.555c-2.279,0 -11.341,6.055 -20.13,13.477c-8.789,7.409 -17.422,13.477 -19.167,13.477c-1.758,0 -5.156,2.357 -7.552,5.247c-2.396,2.878 -9.427,7.357 -15.625,9.948c-6.198,2.591 -12.161,7.057 -13.255,9.909c-1.107,2.865 -4.062,5.208 -6.576,5.208c-2.513,0 -6.081,2.826 -7.93,6.276c-1.849,3.438 -11.888,10.586 -22.318,15.859c-10.43,5.273 -20.729,12.031 -22.878,15.026c-2.148,2.982 -8.451,7.695 -14.01,10.469c-16.758,8.346 -25.247,14.154 -37.695,25.742c-6.51,6.081 -16.615,13.06 -22.448,15.508c-5.833,2.461 -16.875,10.742 -24.531,18.438c-7.656,7.682 -15.99,13.971 -18.529,13.984c-2.526,0.013 -12.188,6.016 -21.445,13.346c-9.271,7.331 -21.393,15.508 -26.953,18.164c-5.56,2.656 -15.13,9.531 -21.263,15.286c-13.06,12.24 -17.292,12.865 -25.117,3.724c-4.01,-4.687 -9.948,-6.745 -19.453,-6.745c-7.513,0 -18.451,-2.474 -24.297,-5.495c-14.674,-7.591 -59.453,-7.591 -70.286,0c-4.31,3.021 -14.128,5.495 -21.797,5.495c-8.854,0 -17.096,2.461 -22.526,6.745c-4.714,3.698 -11.849,6.732 -15.859,6.732c-3.997,0 -14.375,5.885 -23.047,13.086c-8.672,7.188 -19.805,15.156 -24.753,17.682c-9.792,5.013 -29.753,28.359 -29.753,34.805c0,2.201 -3.789,7.565 -8.424,11.914c-4.635,4.349 -8.424,10.065 -8.424,12.682c0,2.63 -3.034,8.633 -6.732,13.346c-3.711,4.714 -6.745,12.214 -6.745,16.667c0,4.453 -3.021,14.049 -6.732,21.315c-9.935,19.479 -9.935,94.479 0,109.492c3.685,5.547 6.706,14.974 6.719,20.924c0.013,7.227 2.174,11.992 6.484,14.297c3.555,1.901 7.526,8.268 8.815,14.154c5.365,24.466 81.602,90.43 104.492,90.43c4.531,0 11.654,3.411 15.82,7.578c10.195,10.195 117.591,11.706 137.552,1.94c6.341,-3.099 19.87,-9.479 30.052,-14.193c26.133,-12.057 87.591,-72.799 87.591,-86.536c0,-6.172 2.422,-10.911 6.745,-13.229c4.193,-2.24 6.745,-7.057 6.745,-12.747c0.013,-5.026 3.203,-14.375 7.096,-20.755c5.495,-9.01 7.487,-19.232 8.88,-45.482c1.94,-36.432 12.109,-55.638 29.492,-55.729c3.711,-0.026 13.542,-6.25 21.849,-13.854c8.32,-7.591 20.781,-16.706 27.708,-20.234c6.914,-3.529 17.747,-10.964 24.076,-16.51c6.315,-5.547 12.799,-10.091 14.401,-10.091c1.615,-0.013 10.508,-5.716 19.779,-12.682c9.258,-6.979 25.651,-18.477 36.406,-25.573c10.768,-7.096 24.74,-18.06 31.055,-24.375c6.315,-6.315 12.982,-11.471 14.805,-11.471c4.023,0 26.289,-14.284 35.638,-22.865c3.711,-3.411 10.534,-8.047 15.169,-10.326c16.888,-8.294 25.234,-13.815 29.284,-19.362c4.206,-5.755 11.523,-10.612 29.661,-19.727c5.56,-2.786 15.977,-11.016 23.151,-18.281c7.174,-7.253 17.018,-14.01 21.901,-15c4.87,-0.99 14.922,-7.474 22.331,-14.401c7.409,-6.927 20.299,-16.25 28.633,-20.716c8.346,-4.466 18.958,-11.615 23.581,-15.885c4.635,-4.271 11.836,-8.789 16.003,-10.052c4.167,-1.263 7.578,-3.607 7.578,-5.208c0,-1.602 2.747,-3.776 6.094,-4.844c3.346,-1.068 12.799,-8.62 20.99,-16.81c8.203,-8.177 19.128,-15.716 24.271,-16.745c5.143,-1.029 14.935,-7.435 21.732,-14.245c6.81,-6.797 20.82,-16.81 31.133,-22.227c10.312,-5.43 19.857,-11.823 21.198,-14.219c1.341,-2.396 10.964,-8.659 21.354,-13.919c10.404,-5.26 20.677,-11.953 22.826,-14.87c2.148,-2.904 11.484,-10.104 20.755,-15.977c19.388,-12.305 28.307,-19.076 42.227,-32.057c5.456,-5.104 11.328,-9.271 13.021,-9.271c4.648,0 30.664,-17.617 30.664,-20.768c0,-1.497 4.922,-5.052 10.938,-7.904c16.862,-7.995 25.664,-13.529 34.036,-21.393c4.219,-3.958 9.271,-7.201 11.237,-7.201c3.763,0 43.333,-30.651 49.596,-38.424c2.018,-2.513 7.539,-5.456 12.266,-6.549c4.727,-1.094 15.208,-8.099 23.307,-15.56c17.396,-16.068 18.216,-16.198 28.906,-4.674c7.578,8.19 8.255,11.589 8.255,41.458c0,23.919 1.836,37.969 6.914,52.995c8.203,24.323 8.203,232.292 -0.013,265.534c-2.292,9.258 -5.156,31.328 -6.38,49.023c-1.549,22.604 -4.036,34.974 -8.372,41.562c-3.398,5.169 -6.927,17.982 -7.852,28.464c-0.938,10.495 -4.596,26.172 -8.151,34.857c-3.555,8.685 -6.458,21.211 -6.458,27.826c0,7.878 -2.331,14.036 -6.745,17.812c-3.698,3.177 -6.745,9.596 -6.771,14.284c-0.013,4.688 -3.75,16.094 -8.307,25.365c-4.557,9.258 -8.333,20.781 -8.398,25.586c-0.052,4.805 -3.138,11.484 -6.836,14.844c-4.518,4.076 -6.745,10.365 -6.745,19.062c0,9.648 -2.161,14.857 -8.424,20.299c-5.208,4.544 -8.411,10.898 -8.411,16.706c0,5.937 -2.487,10.703 -6.745,12.995c-4.258,2.279 -6.732,7.044 -6.732,12.982c0,5.807 -3.216,12.174 -8.424,16.706c-4.635,4.023 -8.424,9.401 -8.424,11.94c0,2.539 -2.799,8.242 -6.224,12.656c-3.424,4.414 -7.174,11.914 -8.333,16.667c-1.146,4.74 -7.07,15.104 -13.138,23.034c-24.557,32.057 -29.362,39.323 -29.466,44.596c-0.065,3.021 -3.906,7.982 -8.529,11.016c-4.635,3.047 -8.424,7.161 -8.424,9.167c0,2.005 -3.411,7.826 -7.578,12.93c-4.167,5.104 -9.857,12.865 -12.643,17.227c-2.773,4.362 -12.63,15.911 -21.888,25.664c-9.271,9.74 -27.461,29.31 -40.43,43.477c-26.458,28.893 -30.143,32.552 -53.906,53.503c-9.258,8.164 -26.055,23.737 -37.331,34.596c-11.263,10.859 -25.664,22.214 -32.005,25.234c-6.328,3.034 -17.63,11.276 -25.104,18.346c-7.474,7.057 -19.479,15.872 -26.693,19.583c-7.201,3.698 -17.266,10.898 -22.37,16.003c-5.091,5.091 -11.445,9.258 -14.115,9.258c-2.682,0 -8.724,3.034 -13.424,6.745c-4.714,3.698 -10.195,6.732 -12.174,6.732c-1.979,0 -6.081,3.789 -9.115,8.424c-3.75,5.716 -8.607,8.424 -15.117,8.424c-6.094,0 -10.898,2.409 -13.138,6.589c-1.966,3.685 -8.737,7.565 -15.326,8.802c-6.484,1.224 -12.917,3.971 -14.271,6.133c-4.18,6.576 -37.904,22.266 -47.891,22.266c-6.315,0 -11.224,2.773 -14.922,8.424c-4.128,6.289 -8.464,8.424 -17.148,8.424c-6.406,0 -16.602,3.021 -22.669,6.719c-6.068,3.698 -15.143,6.732 -20.169,6.745c-5.495,0 -10.508,2.539 -12.539,6.354c-2.643,4.922 -8.177,6.641 -24.779,7.695c-15.521,0.99 -23.997,3.411 -30.872,8.828c-6.745,5.299 -14.076,7.448 -25.352,7.448c-11.263,0 -17.539,1.849 -21.615,6.354c-4.635,5.117 -11.823,6.602 -37.461,7.721c-26.94,1.185 -32.93,2.513 -39.635,8.815l-7.917,7.435l-300.924,0l-22.37,-8.424c-16.576,-6.237 -28.919,-8.424 -47.565,-8.424c-20.065,0 -26.901,-1.367 -33.737,-6.732c-6.198,-4.883 -13.776,-6.771 -27.487,-6.849c-14.076,-0.078 -22.357,-2.227 -32.383,-8.398c-8.555,-5.26 -18.529,-8.307 -27.279,-8.32c-8.945,-0.013 -16.536,-2.383 -21.576,-6.758c-4.297,-3.724 -12.604,-6.732 -18.594,-6.732c-5.951,0 -14.427,-2.747 -18.854,-6.107c-4.414,-3.346 -14.297,-7.904 -21.953,-10.117c-7.656,-2.214 -15.794,-6.289 -18.099,-9.062c-2.292,-2.773 -9.062,-5.039 -15.039,-5.039c-6.576,0 -13.255,-2.656 -16.953,-6.732c-3.346,-3.711 -8.815,-6.745 -12.135,-6.745c-3.32,0 -10.13,-3.789 -15.13,-8.424c-5,-4.622 -10.938,-8.411 -13.19,-8.411c-2.266,0 -7.734,-2.812 -12.148,-6.224c-4.414,-3.424 -12.096,-7.227 -17.057,-8.438c-4.974,-1.211 -11.302,-4.466 -14.076,-7.253c-2.786,-2.773 -6.693,-5.039 -8.685,-5.039c-2.005,0 -6.927,-3.789 -10.951,-8.424c-4.544,-5.221 -10.898,-8.424 -16.706,-8.424c-5.859,0 -10.703,-2.474 -12.904,-6.562c-3.438,-6.432 -11.159,-11.602 -32.747,-21.914c-5.924,-2.839 -11.979,-7.122 -13.477,-9.544c-4.336,-7.018 -41.654,-36.094 -46.328,-36.094c-3.646,0 -146.732,-140.13 -146.732,-143.698c0,-1.719 -34.089,-48.568 -40.417,-55.534c-2.786,-3.073 -11.12,-14.193 -18.529,-24.74c-7.422,-10.534 -17.656,-23.802 -22.747,-29.479c-5.091,-5.677 -9.258,-13.659 -9.258,-17.721c0,-4.076 -3.034,-10.143 -6.745,-13.503c-3.698,-3.346 -6.732,-7.539 -6.732,-9.31c0,-5.339 -20.768,-35.664 -25.716,-37.552c-2.643,-1.016 -4.609,-6.641 -4.609,-13.151c0,-6.549 -2.865,-14.688 -6.732,-19.154c-9.609,-11.081 -8.737,-25.26 2.005,-32.695c4.805,-3.32 11.992,-9.076 15.964,-12.786c10.078,-9.388 28.945,-21.966 38.229,-25.508c4.297,-1.628 7.799,-4.258 7.799,-5.846c0,-3.268 31.263,-24.232 36.133,-24.232c1.758,0 10.104,-6.823 18.568,-15.156c8.464,-8.346 18.307,-15.169 21.875,-15.169c3.581,0 13.216,-6.146 21.406,-13.672c8.177,-7.513 17.917,-14.922 21.615,-16.445c10.664,-4.401 47.956,-33.411 50.078,-38.958c1.068,-2.773 5.182,-5.039 9.154,-5.039c3.971,0 14.909,-6.445 24.31,-14.31c17.383,-14.557 19.674,-16.133 39.831,-27.461c6.263,-3.516 13.372,-9.206 15.794,-12.63c2.422,-3.424 6.458,-6.237 8.958,-6.237c2.513,0 11.901,-5.729 20.872,-12.734c8.958,-7.005 23.88,-17.617 33.138,-23.581c19.349,-12.461 26.146,-17.669 46.185,-35.482c7.956,-7.057 18.75,-13.711 23.997,-14.792c5.234,-1.068 11.302,-4.818 13.477,-8.307c2.161,-3.503 10.091,-9.336 17.604,-12.982c7.513,-3.646 17.331,-10.052 21.81,-14.232c10.99,-10.234 34.427,-25.99 38.815,-26.055c1.94,-0.039 10.286,-6.862 18.529,-15.156c8.242,-8.307 16.289,-15.13 17.878,-15.169c4.245,-0.091 35.846,-21.003 35.846,-23.711c0,-1.263 9.857,-7.292 21.901,-13.411c12.044,-6.107 21.901,-12.396 21.901,-13.958c0,-1.562 12.917,-11.354 28.711,-21.745c15.781,-10.404 30.234,-21.784 32.122,-25.286c1.901,-3.568 7.005,-6.38 11.536,-6.38c4.479,0 12.383,-3.815 17.578,-8.464c5.182,-4.661 13.633,-12.24 18.75,-16.849c5.13,-4.609 10.755,-8.385 12.487,-8.385c3.763,0 27.786,-15.964 30.417,-20.208c2.448,-3.984 26.536,-20.221 29.974,-20.221c2.617,0 14.727,-9.779 28.984,-23.411c3.698,-3.555 10.716,-7.435 15.599,-8.62c4.87,-1.198 15.039,-8.125 22.604,-15.391c7.565,-7.266 15.117,-13.216 16.797,-13.216c1.667,0 6.914,-3.047 11.641,-6.758c14.401,-11.328 26.641,-11.953 38.503,-1.966c15.833,13.333 114.401,13.555 132.357,0.299c6.276,-4.622 15.729,-8.411 21.016,-8.411c5.273,0 12.839,-3.034 16.823,-6.745c3.971,-3.698 9.219,-6.732 11.654,-6.732c8.424,0 71.797,-66.081 71.797,-74.87c0,-4.492 3.776,-11.432 8.411,-15.469c5.169,-4.479 8.437,-10.924 8.451,-16.602c0.013,-5.117 3.034,-13.841 6.719,-19.401c9.766,-14.753 10.039,-99.948 0.365,-116.875c-3.503,-6.133 -7.318,-16.615 -8.49,-23.307c-1.159,-6.693 -5.117,-14.896 -8.789,-18.216c-3.672,-3.32 -6.667,-8.086 -6.667,-10.599c0,-5.547 -19.492,-33.021 -32.005,-45.143c-14.857,-14.362 -23.411,-20 -30.378,-20c-4.583,0 -9.648,-2.839 -11.615,-6.51c-1.914,-3.581 -6.901,-7.578 -11.068,-8.88c-4.167,-1.302 -11.198,-5.195 -15.625,-8.646c-5.625,-4.401 -13.607,-6.276 -26.68,-6.276c-13.021,0 -20.625,-1.784 -25.208,-5.898c-8.424,-7.591 -54.44,-7.24 -76.094,0.573c-8.112,2.93 -18.047,5.326 -22.083,5.326c-4.036,0 -12.487,3.789 -18.763,8.424c-6.276,4.622 -13.919,8.411 -16.979,8.411c-3.06,0 -8.307,3.034 -11.654,6.745c-3.359,3.698 -8.268,6.732 -10.924,6.732c-6.224,0 -48.034,40.078 -48.034,46.042c0,2.5 -3.789,7.839 -8.424,11.862c-5,4.349 -8.424,10.924 -8.424,16.211c0,5.286 -3.411,11.862 -8.424,16.224c-6.016,5.234 -8.411,10.729 -8.411,19.245c0,6.549 -2.409,17.552 -5.352,24.44c-2.943,6.888 -6.354,26.172 -7.578,42.852c-2.161,29.401 -2.5,30.352 -10.911,31.328c-4.779,0.547 -16.003,7.721 -24.935,15.937c-8.945,8.216 -19.44,15.924 -23.333,17.135c-3.88,1.211 -13.88,7.721 -22.227,14.479c-8.333,6.758 -21.979,16.719 -30.312,22.148c-8.346,5.43 -22.747,16.003 -32.005,23.503c-9.271,7.5 -23.672,17.318 -32.005,21.81c-8.346,4.492 -17.148,10.924 -19.57,14.297c-2.422,3.359 -6.445,6.12 -8.958,6.12c-2.5,0 -12.643,6.471 -22.539,14.375c-22.956,18.32 -44.388,32.786 -48.594,32.786c-1.81,0 -5.742,2.656 -8.75,5.898c-12.37,13.32 -22.279,20.755 -30.417,22.786c-4.727,1.198 -14.818,8.138 -22.409,15.43c-7.591,7.305 -17.253,14.831 -21.458,16.732c-13.294,6.003 -21.094,11.198 -38.19,25.456c-9.141,7.617 -19.661,14.818 -23.359,15.99c-3.711,1.172 -14.258,8.958 -23.451,17.292c-9.18,8.346 -17.826,15.182 -19.193,15.182c-3.802,0 -33.164,20.352 -33.164,22.995c0,1.263 -7.669,5.82 -17.057,10.13c-9.375,4.297 -20.99,12.253 -25.82,17.669c-4.818,5.417 -10.794,9.844 -13.268,9.844c-2.474,0 -4.492,1.393 -4.492,3.099c0,1.719 -4.922,4.779 -10.951,6.81c-6.016,2.031 -17.695,10.482 -25.938,18.789c-8.242,8.294 -18.099,15.13 -21.901,15.156c-3.802,0.039 -13.646,6.862 -21.875,15.143c-8.229,8.294 -17.708,15.938 -21.055,17.005c-3.346,1.068 -6.094,3.229 -6.094,4.805c0,1.589 -4.544,3.88 -10.091,5.091c-5.56,1.224 -12.005,4.753 -14.323,7.852c-4.766,6.367 -30.052,24.154 -34.336,24.154c-1.536,0 -6.302,3.411 -10.586,7.578c-15.612,15.208 -23.477,21.562 -31.732,25.612c-17.174,8.438 -24.167,13.333 -29.049,20.299c-2.76,3.932 -7.122,7.161 -9.714,7.161c-5.039,0 -33.867,18.451 -37.174,23.802c-1.107,1.784 -6.823,5.339 -12.721,7.891c-5.898,2.565 -15.742,9.362 -21.875,15.117c-6.133,5.755 -12.539,10.456 -14.245,10.456c-1.693,0 -5.612,3.867 -8.711,8.594c-7.292,11.133 -11.029,7.044 -13.633,-14.883c-1.406,-11.875 -4.01,-18.62 -8.06,-20.781c-5.104,-2.734 -6.237,-9.518 -7.669,-46.185c-1.888,-48.047 -4.57,-67.669 -10.195,-74.648c-6.302,-7.799 -7.305,-151.003 -1.159,-163.724c7.148,-14.766 12.5,-47.331 12.5,-76.094c0,-17.76 1.615,-27.448 5.469,-32.969c3.529,-5.026 6.328,-19.036 7.865,-39.44c1.797,-23.685 3.971,-33.385 8.646,-38.555c4.18,-4.622 6.745,-13.828 7.76,-27.839c1.068,-14.753 3.229,-22.122 7.331,-25.013c3.451,-2.409 6.523,-10.221 7.526,-19.115c0.924,-8.268 4.922,-19.141 8.867,-24.167c3.945,-5.013 7.187,-13.607 7.187,-19.089c0,-5.482 3.021,-13.815 6.732,-18.529c3.711,-4.714 6.732,-11.862 6.732,-15.885c0,-4.023 3.802,-12.448 8.424,-18.724c4.635,-6.276 8.424,-15.339 8.424,-20.117c0,-4.792 3.034,-11.302 6.745,-14.479c3.932,-3.359 6.732,-9.935 6.732,-15.781c0,-6.432 2.318,-11.263 6.471,-13.49c3.555,-1.901 8.177,-8.659 10.273,-15.013c2.096,-6.341 6.016,-13.359 8.698,-15.586c2.682,-2.24 4.883,-6.445 4.883,-9.362c0,-5.911 15.391,-29.831 24.245,-37.656c3.138,-2.786 9.609,-12.539 14.375,-21.68c4.766,-9.141 10.938,-18.997 13.724,-21.901c2.786,-2.904 12.604,-15.885 21.823,-28.867c35.052,-49.31 178.151,-195.312 207.292,-211.484c25.781,-14.31 30.612,-17.539 34.557,-23.151c2.422,-3.424 5.898,-6.237 7.721,-6.237c1.836,0 6.576,-3.034 10.56,-6.732c3.971,-3.711 9.805,-6.745 12.943,-6.745c3.138,0 8.203,-3.789 11.237,-8.424c3.034,-4.622 8.138,-8.451 11.328,-8.49c3.203,-0.039 9.609,-3.047 14.245,-6.667c4.635,-3.62 9.701,-6.615 11.263,-6.667c1.562,-0.039 6.693,-3.099 11.406,-6.81c4.701,-3.698 11.276,-6.732 14.596,-6.732c3.32,0 9.023,-3.789 12.669,-8.424c3.841,-4.896 10.091,-8.424 14.883,-8.424c4.544,0 11.003,-3.034 14.349,-6.732c3.359,-3.711 10.208,-6.745 15.234,-6.745c5.013,0 12.747,-2.839 17.161,-6.302c4.414,-3.464 12.839,-7.344 18.711,-8.62c5.859,-1.289 14.062,-5.273 18.203,-8.867c4.362,-3.789 12.617,-6.576 19.648,-6.641c6.823,-0.052 17.995,-3.724 25.586,-8.398c7.409,-4.57 18.555,-8.307 24.753,-8.32c6.198,-0.013 15.286,-2.839 20.208,-6.302c4.922,-3.451 16.654,-6.992 26.081,-7.878c11.536,-1.068 19.531,-3.971 24.427,-8.867c6.133,-6.133 11.159,-7.292 31.758,-7.292c17.383,0 27.878,-1.81 36.224,-6.25c9.193,-4.909 21.823,-6.641 58.359,-8.008c36.862,-1.38 47.786,-2.904 52.109,-7.227c5.807,-5.807 144.648,-8.568 150.234,-2.995"/></svg>