<svg width="50" height="48" viewBox="0 0 50 48" fill="none" xmlns="http://www.w3.org/2000/svg">
<path d="M5.93542 3.41821H17.9554C19.4622 3.41821 20.6836 4.63969 20.6836 6.14645V20.8339C20.6836 22.3406 19.4622 23.5621 17.9554 23.5621H5.93542V3.41821Z" fill="#FFFAEE"/>
<path d="M23.5613 7.73486H35.5812C37.088 7.73486 38.3095 8.95634 38.3095 10.4631V23.7117C38.3095 25.2184 37.088 26.4399 35.5812 26.4399H26.2895C24.7828 26.4399 23.5613 25.2184 23.5613 23.7117V7.73486Z" fill="#FFFAEE"/>
<path d="M41.3668 3.41748H47.2717C48.7784 3.41748 49.9999 4.63895 49.9999 6.14572V19.3943C49.9999 20.901 48.7784 22.1225 47.2717 22.1225H44.0951C42.5883 22.1225 41.3668 20.901 41.3668 19.3943V3.41748Z" fill="#FFFAEE"/>
<rect width="2.8777" height="47.1223" rx="1.43885" fill="#FFFAEE"/>
</svg>
