<svg width="50" height="34" viewBox="0 0 50 34" fill="none" xmlns="http://www.w3.org/2000/svg">
<path d="M-1.90735e-06 33.3113L4.24329 33.3113L4.24329 29.0713L-1.53668e-06 29.0713L-1.90735e-06 33.3113Z" fill="#FFFAEE"/>
<path d="M-1.90735e-06 25.6831L4.24329 25.6831L4.24329 21.4284L-1.53539e-06 21.4284L-1.90735e-06 25.6831Z" fill="#FFFAEE"/>
<path d="M7.62121 33.3113L11.8694 33.3113L11.8694 29.0713L7.62121 29.0713L7.62121 33.3113Z" fill="#FFFAEE"/>
<path d="M7.62118 25.6831L11.8645 25.6831L11.8645 21.4432L7.62118 21.4432L7.62118 25.6831Z" fill="#FFFAEE"/>
<path d="M7.62118 18.0552L11.8645 18.0552L11.8645 13.8005L7.62118 13.8005L7.62118 18.0552Z" fill="#FFFAEE"/>
<path d="M19.4955 25.6683L19.4955 21.4382L15.2473 21.4382L15.2473 25.6831L19.4955 25.6683Z" fill="#FFFAEE"/>
<path d="M19.4955 4.23987L19.4955 0.00978041L15.2473 0.00978004L15.2473 4.25464L19.4955 4.23987Z" fill="#FFFAEE"/>
<path d="M4.28568 11.8678L4.28568 7.63771L0.0374726 7.63771L0.0374722 11.8826L4.28568 11.8678Z" fill="#FFFAEE"/>
<path d="M15.2473 18.0552L19.4955 18.0552L19.4955 13.8005L15.2473 13.8005L15.2473 18.0552Z" fill="#FFFAEE"/>
<path d="M0.0374722 4.25464L4.28568 4.25464L4.28568 -6.77109e-05L0.0374726 -6.80823e-05L0.0374722 4.25464Z" fill="#FFFAEE"/>
<path d="M22.8734 33.3113L27.1167 33.3113L27.1167 29.0566L22.8734 29.0566L22.8734 33.3113Z" fill="#FFFAEE"/>
<path d="M22.8734 11.8826L27.1167 11.8826L27.1167 7.62786L22.8734 7.62786L22.8734 11.8826Z" fill="#FFFAEE"/>
<path d="M30.4995 33.3113L34.7477 33.3113L34.7477 29.0566L30.4995 29.0566L30.4995 33.3113Z" fill="#FFFAEE"/>
<path d="M38.1803 11.8826L42.4285 11.8826L42.4285 7.62786L38.1803 7.62786L38.1803 11.8826Z" fill="#FFFAEE"/>
<path d="M38.1257 25.6831L42.3739 25.6831L42.3739 21.4284L38.1257 21.4284L38.1257 25.6831Z" fill="#FFFAEE"/>
<path d="M45.7518 18.0552L50 18.0552L50 13.8005L45.7518 13.8005L45.7518 18.0552Z" fill="#FFFAEE"/>
</svg>
