<svg width="50" height="50" viewBox="0 0 50 50" fill="none" xmlns="http://www.w3.org/2000/svg">
<path d="M49.7259 21.3347C48.7488 14.7283 45.2591 8.89686 39.8978 4.91743C28.8328 -3.29977 13.1454 -0.979343 4.9307 10.0905C0.950909 15.452 -0.702928 22.0428 0.274127 28.6508C1.25118 35.2573 4.74089 41.0887 10.1022 45.0681C14.457 48.3021 19.6223 50 24.9479 50C26.1785 50 27.4185 49.9097 28.657 49.7261C35.2614 48.7487 41.0911 45.258 45.0693 39.895C49.0491 34.532 50.7029 27.9412 49.7259 21.3347ZM7.41223 32.9851C4.0501 30.4888 3.34532 25.7219 5.84085 22.3572C7.04972 20.7278 8.82025 19.6679 10.8273 19.3707C11.2038 19.3147 11.5803 19.2866 11.9537 19.2866C13.5717 19.2866 15.1415 19.8033 16.464 20.7854C18.0929 21.9946 19.1525 23.7656 19.4496 25.7733C19.7468 27.7809 19.2442 29.7838 18.0354 31.4117C16.8265 33.0411 15.056 34.101 13.049 34.3982C11.0435 34.6955 9.04117 34.1928 7.41223 32.9835V32.9851ZM9.2481 37.7769C8.89182 37.5123 8.55576 37.2322 8.23681 36.9381C9.4099 37.3723 10.6514 37.5964 11.9148 37.5964C12.4422 37.5964 12.9727 37.5575 13.5033 37.4797C16.3317 37.061 18.8288 35.5654 20.5325 33.2683C22.2361 30.9713 22.9455 28.1482 22.527 25.3188C22.1085 22.4895 20.6134 19.9916 18.3185 18.2875C16.0237 16.5834 13.1999 15.8737 10.3714 16.2923C9.33211 16.4464 8.33794 16.7468 7.41067 17.1779C7.80585 16.655 8.23215 16.1476 8.69111 15.6589C11.2473 12.9354 14.5192 11.2002 18.054 11.2002C21.1299 11.2002 24.1995 12.1588 26.818 14.1026C29.9794 16.4495 32.0378 19.8874 32.6134 23.7843C33.1891 27.6797 32.2136 31.5673 29.8674 34.7281C27.5212 37.8905 24.0844 39.9495 20.1886 40.5253C16.2944 41.1011 12.408 40.1253 9.2481 37.7785V37.7769ZM42.5707 38.0399C39.0872 42.7352 33.9841 45.7918 28.2011 46.6462C22.5924 47.4757 16.993 46.1373 12.3784 42.8738C13.7102 43.3157 15.0886 43.5959 16.492 43.7064C17.2528 43.7671 18.0198 43.778 18.7899 43.739C19.6285 43.7064 20.4671 43.6145 21.2995 43.4636C25.7445 42.659 29.6573 40.2296 32.366 36.5817C35.2085 32.7517 36.3894 28.0454 35.6908 23.3268C34.9938 18.6081 32.5014 14.445 28.6725 11.6017C24.7581 8.69455 20.0019 7.60359 15.4216 8.28057C12.8 8.66809 10.2905 9.62832 8.07968 11.113C12.3691 5.873 18.6608 3.11058 25.0272 3.11058C29.5609 3.11058 34.1319 4.51124 38.0432 7.41528C42.7371 10.8998 45.7928 16.0044 46.6469 21.7892C47.5026 27.5739 46.0541 33.3446 42.5707 38.0384V38.0399Z" fill="#FFFAEE"/>
</svg>
