<svg width="47" height="57" viewBox="0 0 47 57" fill="none" xmlns="http://www.w3.org/2000/svg">
<path d="M13.8485 54.4107L13.788 47.2767L8.13597 47.217C6.43157 47.198 5.24399 45.3459 5.03507 43.76C4.69969 41.21 4.97734 38.7008 5.16152 36.015C3.74577 35.5317 2.26405 34.9994 0.999493 34.2553C-0.122111 33.5954 -0.259562 32.4277 0.386459 31.3957C2.05787 28.2864 3.66055 25.2964 4.7904 21.9399C4.82614 16.7721 6.2089 11.8595 9.52148 7.84309C15.4814 0.616796 25.6033 -1.8843 34.3699 1.46679C39.3869 3.38402 42.9689 7.09357 44.9922 11.9247C49.0718 21.6765 46.6636 30.8445 40.2171 39.0104L39.189 50.7908C39.0543 52.3333 36.9705 53.5987 35.6977 54.3184C29.8066 57.645 20.031 58.1012 13.8512 54.4107H13.8485ZM16.4903 46.2883L16.5068 52.89C22.4694 55.3829 32.3247 54.8371 36.6571 50.1526L37.5863 38.0382C43.7744 30.4317 46.3447 22.0703 42.4521 12.81C40.8494 8.99995 38.1554 6.01547 34.2655 4.29104C25.859 0.562483 15.8058 3.27811 10.6321 10.8194C8.28717 14.2384 7.65764 17.9887 7.36349 22.0703C7.25078 23.6127 6.39858 25.473 5.70858 26.8389L2.91557 32.3571L6.78345 33.6877C7.43497 33.9104 7.9078 34.5079 7.86657 35.2519L7.51194 41.5549C7.45696 42.5461 7.75111 43.6025 8.14147 44.61L14.4972 44.5991C15.6078 44.5991 16.4903 44.8707 16.493 46.291L16.4903 46.2883Z" fill="#FFFAEE"/>
</svg>
