<svg width="50" height="58" viewBox="0 0 50 58" fill="none" xmlns="http://www.w3.org/2000/svg">
<path d="M25.0051 3.37354C25.9367 3.37354 26.6919 2.61835 26.6919 1.68677C26.6919 0.755193 25.9367 0 25.0051 0C24.0736 0 23.3184 0.755193 23.3184 1.68677C23.3184 2.61835 24.0736 3.37354 25.0051 3.37354Z" fill="#FFFAEE"/>
<path d="M25.0051 8.75074C25.9367 8.75074 26.6919 7.99555 26.6919 7.06397C26.6919 6.13239 25.9367 5.3772 25.0051 5.3772C24.0736 5.3772 23.3184 6.13239 23.3184 7.06397C23.3184 7.99555 24.0736 8.75074 25.0051 8.75074Z" fill="#FFFAEE"/>
<path d="M25.0051 14.1382C25.9367 14.1382 26.6919 13.383 26.6919 12.4514C26.6919 11.5198 25.9367 10.7646 25.0051 10.7646C24.0736 10.7646 23.3184 11.5198 23.3184 12.4514C23.3184 13.383 24.0736 14.1382 25.0051 14.1382Z" fill="#FFFAEE"/>
<path d="M25.0051 19.5256C25.9367 19.5256 26.6919 18.7705 26.6919 17.8389C26.6919 16.9073 25.9367 16.1521 25.0051 16.1521C24.0736 16.1521 23.3184 16.9073 23.3184 17.8389C23.3184 18.7705 24.0736 19.5256 25.0051 19.5256Z" fill="#FFFAEE"/>
<path d="M25.0051 24.9131C25.9367 24.9131 26.6919 24.1579 26.6919 23.2263C26.6919 22.2947 25.9367 21.5396 25.0051 21.5396C24.0736 21.5396 23.3184 22.2947 23.3184 23.2263C23.3184 24.1579 24.0736 24.9131 25.0051 24.9131Z" fill="#FFFAEE"/>
<path d="M1.68677 16.8267C2.61835 16.8267 3.37354 16.0715 3.37354 15.1399C3.37354 14.2083 2.61835 13.4531 1.68677 13.4531C0.755193 13.4531 0 14.2083 0 15.1399C0 16.0715 0.755193 16.8267 1.68677 16.8267Z" fill="#FFFAEE"/>
<path d="M6.34851 19.5256C7.28009 19.5256 8.03529 18.7705 8.03529 17.8389C8.03529 16.9073 7.28009 16.1521 6.34851 16.1521C5.41694 16.1521 4.66174 16.9073 4.66174 17.8389C4.66174 18.7705 5.41694 19.5256 6.34851 19.5256Z" fill="#FFFAEE"/>
<path d="M11.01 22.2141C11.9416 22.2141 12.6968 21.4589 12.6968 20.5273C12.6968 19.5958 11.9416 18.8406 11.01 18.8406C10.0784 18.8406 9.32324 19.5958 9.32324 20.5273C9.32324 21.4589 10.0784 22.2141 11.01 22.2141Z" fill="#FFFAEE"/>
<path d="M15.6718 24.9131C16.6033 24.9131 17.3585 24.1579 17.3585 23.2263C17.3585 22.2947 16.6033 21.5396 15.6718 21.5396C14.7402 21.5396 13.985 22.2947 13.985 23.2263C13.985 24.1579 14.7402 24.9131 15.6718 24.9131Z" fill="#FFFAEE"/>
<path d="M20.3333 27.6016C21.2648 27.6016 22.02 26.8464 22.02 25.9148C22.02 24.9832 21.2648 24.228 20.3333 24.228C19.4017 24.228 18.6465 24.9832 18.6465 25.9148C18.6465 26.8464 19.4017 27.6016 20.3333 27.6016Z" fill="#FFFAEE"/>
<path d="M1.68677 43.7539C2.61835 43.7539 3.37354 42.9987 3.37354 42.0671C3.37354 41.1356 2.61835 40.3804 1.68677 40.3804C0.755193 40.3804 0 41.1356 0 42.0671C0 42.9987 0.755193 43.7539 1.68677 43.7539Z" fill="#FFFAEE"/>
<path d="M6.34851 41.0654C7.28009 41.0654 8.03529 40.3102 8.03529 39.3787C8.03529 38.4471 7.28009 37.6919 6.34851 37.6919C5.41694 37.6919 4.66174 38.4471 4.66174 39.3787C4.66174 40.3102 5.41694 41.0654 6.34851 41.0654Z" fill="#FFFAEE"/>
<path d="M11.01 38.3665C11.9416 38.3665 12.6968 37.6113 12.6968 36.6797C12.6968 35.7481 11.9416 34.9929 11.01 34.9929C10.0784 34.9929 9.32324 35.7481 9.32324 36.6797C9.32324 37.6113 10.0784 38.3665 11.01 38.3665Z" fill="#FFFAEE"/>
<path d="M15.6718 35.678C16.6033 35.678 17.3585 34.9228 17.3585 33.9912C17.3585 33.0596 16.6033 32.3044 15.6718 32.3044C14.7402 32.3044 13.985 33.0596 13.985 33.9912C13.985 34.9228 14.7402 35.678 15.6718 35.678Z" fill="#FFFAEE"/>
<path d="M20.3333 32.989C21.2648 32.989 22.02 32.2338 22.02 31.3023C22.02 30.3707 21.2648 29.6155 20.3333 29.6155C19.4017 29.6155 18.6465 30.3707 18.6465 31.3023C18.6465 32.2338 19.4017 32.989 20.3333 32.989Z" fill="#FFFAEE"/>
<path d="M25.0051 57.2173C25.9367 57.2173 26.6919 56.4621 26.6919 55.5305C26.6919 54.5989 25.9367 53.8438 25.0051 53.8438C24.0736 53.8438 23.3184 54.5989 23.3184 55.5305C23.3184 56.4621 24.0736 57.2173 25.0051 57.2173Z" fill="#FFFAEE"/>
<path d="M25.0051 51.8298C25.9367 51.8298 26.6919 51.0746 26.6919 50.1431C26.6919 49.2115 25.9367 48.4563 25.0051 48.4563C24.0736 48.4563 23.3184 49.2115 23.3184 50.1431C23.3184 51.0746 24.0736 51.8298 25.0051 51.8298Z" fill="#FFFAEE"/>
<path d="M25.0051 46.4526C25.9367 46.4526 26.6919 45.6975 26.6919 44.7659C26.6919 43.8343 25.9367 43.0791 25.0051 43.0791C24.0736 43.0791 23.3184 43.8343 23.3184 44.7659C23.3184 45.6975 24.0736 46.4526 25.0051 46.4526Z" fill="#FFFAEE"/>
<path d="M25.0051 41.0654C25.9367 41.0654 26.6919 40.3102 26.6919 39.3787C26.6919 38.4471 25.9367 37.6919 25.0051 37.6919C24.0736 37.6919 23.3184 38.4471 23.3184 39.3787C23.3184 40.3102 24.0736 41.0654 25.0051 41.0654Z" fill="#FFFAEE"/>
<path d="M25.0051 35.678C25.9367 35.678 26.6919 34.9228 26.6919 33.9912C26.6919 33.0596 25.9367 32.3044 25.0051 32.3044C24.0736 32.3044 23.3184 33.0596 23.3184 33.9912C23.3184 34.9228 24.0736 35.678 25.0051 35.678Z" fill="#FFFAEE"/>
<path d="M48.3132 43.7539C49.2448 43.7539 50 42.9987 50 42.0671C50 41.1356 49.2448 40.3804 48.3132 40.3804C47.3817 40.3804 46.6265 41.1356 46.6265 42.0671C46.6265 42.9987 47.3817 43.7539 48.3132 43.7539Z" fill="#FFFAEE"/>
<path d="M43.6516 41.0654C44.5832 41.0654 45.3384 40.3102 45.3384 39.3787C45.3384 38.4471 44.5832 37.6919 43.6516 37.6919C42.72 37.6919 41.9648 38.4471 41.9648 39.3787C41.9648 40.3102 42.72 41.0654 43.6516 41.0654Z" fill="#FFFAEE"/>
<path d="M38.99 38.3665C39.9216 38.3665 40.6768 37.6113 40.6768 36.6797C40.6768 35.7481 39.9216 34.9929 38.99 34.9929C38.0584 34.9929 37.3032 35.7481 37.3032 36.6797C37.3032 37.6113 38.0584 38.3665 38.99 38.3665Z" fill="#FFFAEE"/>
<path d="M34.3284 35.678C35.26 35.678 36.0151 34.9228 36.0151 33.9912C36.0151 33.0596 35.26 32.3044 34.3284 32.3044C33.3968 32.3044 32.6416 33.0596 32.6416 33.9912C32.6416 34.9228 33.3968 35.678 34.3284 35.678Z" fill="#FFFAEE"/>
<path d="M29.6668 32.989C30.5983 32.989 31.3535 32.2338 31.3535 31.3023C31.3535 30.3707 30.5983 29.6155 29.6668 29.6155C28.7352 29.6155 27.98 30.3707 27.98 31.3023C27.98 32.2338 28.7352 32.989 29.6668 32.989Z" fill="#FFFAEE"/>
<path d="M48.3132 16.8267C49.2448 16.8267 50 16.0715 50 15.1399C50 14.2083 49.2448 13.4531 48.3132 13.4531C47.3817 13.4531 46.6265 14.2083 46.6265 15.1399C46.6265 16.0715 47.3817 16.8267 48.3132 16.8267Z" fill="#FFFAEE"/>
<path d="M43.6516 19.5256C44.5832 19.5256 45.3384 18.7705 45.3384 17.8389C45.3384 16.9073 44.5832 16.1521 43.6516 16.1521C42.72 16.1521 41.9648 16.9073 41.9648 17.8389C41.9648 18.7705 42.72 19.5256 43.6516 19.5256Z" fill="#FFFAEE"/>
<path d="M38.99 22.2141C39.9216 22.2141 40.6768 21.4589 40.6768 20.5273C40.6768 19.5958 39.9216 18.8406 38.99 18.8406C38.0584 18.8406 37.3032 19.5958 37.3032 20.5273C37.3032 21.4589 38.0584 22.2141 38.99 22.2141Z" fill="#FFFAEE"/>
<path d="M34.3284 24.9131C35.26 24.9131 36.0151 24.1579 36.0151 23.2263C36.0151 22.2947 35.26 21.5396 34.3284 21.5396C33.3968 21.5396 32.6416 22.2947 32.6416 23.2263C32.6416 24.1579 33.3968 24.9131 34.3284 24.9131Z" fill="#FFFAEE"/>
<path d="M29.6668 27.6016C30.5983 27.6016 31.3535 26.8464 31.3535 25.9148C31.3535 24.9832 30.5983 24.228 29.6668 24.228C28.7352 24.228 27.98 24.9832 27.98 25.9148C27.98 26.8464 28.7352 27.6016 29.6668 27.6016Z" fill="#FFFAEE"/>
<path d="M25.0051 30.2903C25.9367 30.2903 26.6919 29.5351 26.6919 28.6035C26.6919 27.6719 25.9367 26.9167 25.0051 26.9167C24.0736 26.9167 23.3184 27.6719 23.3184 28.6035C23.3184 29.5351 24.0736 30.2903 25.0051 30.2903Z" fill="#FFFAEE"/>
</svg>
