<svg width="51" height="57" viewBox="0 0 51 57" fill="none" xmlns="http://www.w3.org/2000/svg">
<path d="M48.3154 10.5176L25.042 20.4922L1.76855 10.5176L25.042 0.543945L48.3154 10.5176Z" stroke="#FFFAEE" stroke-linejoin="round"/>
<mask id="path-2-inside-1_23_703" fill="white">
<path d="M49.7822 27.2551C49.9659 27.334 50.085 27.5152 50.085 27.7151C50.0847 27.9148 49.9657 28.0953 49.7822 28.1741L25.2393 38.6926C25.1136 38.7464 24.9713 38.7464 24.8457 38.6926L0.302734 28.1741C0.119272 28.0953 0.000231025 27.9147 0 27.7151C0 27.5152 0.119054 27.334 0.302734 27.2551L17.7773 19.7649L19.0469 20.3088L1.76855 27.7141L25.042 37.6887L48.3154 27.7141L31.0371 20.3088L32.3066 19.7649L49.7822 27.2551ZM24.9424 16.7063C25.0413 16.6861 25.145 16.6963 25.2393 16.7366L27.2285 17.5891L25.959 18.1331L25.042 17.7405L24.124 18.1331L22.8555 17.5891L24.8457 16.7366L24.9424 16.7063Z"/>
</mask>
<path d="M49.7822 27.2551L50.3739 25.8768L50.3732 25.8764L49.7822 27.2551ZM50.085 27.7151L51.585 27.7168V27.7151H50.085ZM49.7822 28.1741L50.3731 29.5528L50.3739 29.5525L49.7822 28.1741ZM25.2393 38.6926L25.8293 40.0717L25.8301 40.0713L25.2393 38.6926ZM24.8457 38.6926L24.2548 40.0713L24.2556 40.0717L24.8457 38.6926ZM0.302734 28.1741L-0.289202 29.5523L-0.288151 29.5528L0.302734 28.1741ZM0 27.7151H-1.5L-1.5 27.7168L0 27.7151ZM0.302734 27.2551L-0.288219 25.8764L-0.288996 25.8768L0.302734 27.2551ZM17.7773 19.7649L18.3681 18.3861C17.9908 18.2245 17.5637 18.2245 17.1864 18.3862L17.7773 19.7649ZM19.0469 20.3088L19.6378 21.6875C20.1893 21.4512 20.5469 20.9088 20.5469 20.3088C20.5468 19.7087 20.1892 19.1664 19.6376 18.9301L19.0469 20.3088ZM1.76855 27.7141L1.17766 26.3354C0.62614 26.5718 0.268554 27.1141 0.268555 27.7141C0.268556 28.3141 0.626144 28.8565 1.17766 29.0928L1.76855 27.7141ZM25.042 37.6887L24.4511 39.0674C24.8284 39.2292 25.2556 39.2292 25.6329 39.0674L25.042 37.6887ZM48.3154 27.7141L48.9063 29.0928C49.4578 28.8565 49.8154 28.3141 49.8154 27.7141C49.8154 27.1141 49.4578 26.5718 48.9063 26.3354L48.3154 27.7141ZM31.0371 20.3088L30.4464 18.9301C29.8948 19.1664 29.5371 19.7087 29.5371 20.3088C29.5371 20.9088 29.8947 21.4512 30.4462 21.6875L31.0371 20.3088ZM32.3066 19.7649L32.8976 18.3862C32.5203 18.2245 32.0932 18.2245 31.7159 18.3861L32.3066 19.7649ZM24.9424 16.7063L24.6422 15.2367C24.5922 15.2469 24.5428 15.2596 24.4941 15.2748L24.9424 16.7063ZM25.2393 16.7366L25.8301 15.3579L25.8291 15.3574L25.2393 16.7366ZM27.2285 17.5891L27.8193 18.9679C28.3708 18.7316 28.7285 18.1892 28.7285 17.5892C28.7285 16.9891 28.3709 16.4468 27.8194 16.2104L27.2285 17.5891ZM25.959 18.1331L25.3686 19.512C25.7458 19.6735 26.1726 19.6734 26.5497 19.5118L25.959 18.1331ZM25.042 17.7405L25.6323 16.3615C25.2555 16.2002 24.8291 16.2001 24.4522 16.3613L25.042 17.7405ZM24.124 18.1331L23.5329 19.5117C23.9099 19.6733 24.3367 19.6735 24.7138 19.5122L24.124 18.1331ZM22.8555 17.5891L22.2648 16.2103C21.7133 16.4466 21.3556 16.9888 21.3555 17.5888C21.3554 18.1889 21.7129 18.7312 22.2643 18.9677L22.8555 17.5891ZM24.8457 16.7366L24.3975 15.3051C24.3491 15.3202 24.3016 15.3378 24.2551 15.3577L24.8457 16.7366ZM49.7822 27.2551L49.1905 28.6335C48.8214 28.475 48.585 28.113 48.585 27.7151H50.085H51.585C51.585 26.9173 51.1104 26.1929 50.3739 25.8768L49.7822 27.2551ZM50.085 27.7151L48.585 27.7134C48.5854 27.3146 48.823 26.9535 49.1906 26.7957L49.7822 28.1741L50.3739 29.5525C51.1085 29.2371 51.584 28.515 51.585 27.7168L50.085 27.7151ZM49.7822 28.1741L49.1913 26.7954L24.6484 37.3139L25.2393 38.6926L25.8301 40.0713L50.3731 29.5528L49.7822 28.1741ZM25.2393 38.6926L24.6492 37.3136C24.9004 37.2061 25.1845 37.2061 25.4358 37.3136L24.8457 38.6926L24.2556 40.0717C24.7581 40.2867 25.3269 40.2867 25.8293 40.0717L25.2393 38.6926ZM24.8457 38.6926L25.4366 37.3139L0.89362 26.7954L0.302734 28.1741L-0.288151 29.5528L24.2548 40.0713L24.8457 38.6926ZM0.302734 28.1741L0.894671 26.7958C1.26183 26.9535 1.49954 27.3143 1.5 27.7134L0 27.7151L-1.5 27.7168C-1.49908 28.5152 -1.02329 29.2371 -0.289202 29.5523L0.302734 28.1741ZM0 27.7151H1.5C1.5 28.113 1.26354 28.475 0.894465 28.6335L0.302734 27.2551L-0.288996 25.8768C-1.02543 26.1929 -1.5 26.9173 -1.5 27.7151H0ZM0.302734 27.2551L0.893688 28.6338L18.3683 21.1436L17.7773 19.7649L17.1864 18.3862L-0.288219 25.8764L0.302734 27.2551ZM17.7773 19.7649L17.1866 21.1437L18.4561 21.6876L19.0469 20.3088L19.6376 18.9301L18.3681 18.3861L17.7773 19.7649ZM19.0469 20.3088L18.456 18.9301L1.17766 26.3354L1.76855 27.7141L2.35945 29.0928L19.6378 21.6875L19.0469 20.3088ZM1.76855 27.7141L1.17766 29.0928L24.4511 39.0674L25.042 37.6887L25.6329 36.31L2.35945 26.3354L1.76855 27.7141ZM25.042 37.6887L25.6329 39.0674L48.9063 29.0928L48.3154 27.7141L47.7245 26.3354L24.4511 36.31L25.042 37.6887ZM48.3154 27.7141L48.9063 26.3354L31.628 18.9301L31.0371 20.3088L30.4462 21.6875L47.7245 29.0928L48.3154 27.7141ZM31.0371 20.3088L31.6279 21.6876L32.8974 21.1437L32.3066 19.7649L31.7159 18.3861L30.4464 18.9301L31.0371 20.3088ZM32.3066 19.7649L31.7157 21.1436L49.1913 28.6338L49.7822 27.2551L50.3732 25.8764L32.8976 18.3862L32.3066 19.7649ZM24.9424 16.7063L25.2426 18.1759C25.044 18.2165 24.8371 18.196 24.6494 18.1157L25.2393 16.7366L25.8291 15.3574C25.4529 15.1965 25.0386 15.1557 24.6422 15.2367L24.9424 16.7063ZM25.2393 16.7366L24.6484 18.1153L26.6376 18.9678L27.2285 17.5891L27.8194 16.2104L25.8301 15.3579L25.2393 16.7366ZM27.2285 17.5891L26.6378 16.2103L25.3682 16.7543L25.959 18.1331L26.5497 19.5118L27.8193 18.9679L27.2285 17.5891ZM25.959 18.1331L26.5493 16.7541L25.6323 16.3615L25.042 17.7405L24.4516 19.1194L25.3686 19.512L25.959 18.1331ZM25.042 17.7405L24.4522 16.3613L23.5342 16.7539L24.124 18.1331L24.7138 19.5122L25.6318 19.1197L25.042 17.7405ZM24.124 18.1331L24.7152 16.7544L23.4466 16.2105L22.8555 17.5891L22.2643 18.9677L23.5329 19.5117L24.124 18.1331ZM22.8555 17.5891L23.4461 18.9679L25.4363 18.1154L24.8457 16.7366L24.2551 15.3577L22.2648 16.2103L22.8555 17.5891ZM24.8457 16.7366L25.2939 18.168L25.3906 18.1378L24.9424 16.7063L24.4941 15.2748L24.3975 15.3051L24.8457 16.7366Z" fill="#FFFAEE" mask="url(#path-2-inside-1_23_703)"/>
<mask id="path-4-inside-2_23_703" fill="white">
<path d="M49.7822 44.7856C49.9659 44.8645 50.085 45.0457 50.085 45.2456C50.0847 45.4453 49.9657 45.6258 49.7822 45.7046L25.2393 56.2231C25.1136 56.2769 24.9713 56.2769 24.8457 56.2231L0.302734 45.7046C0.119286 45.6258 0.000249215 45.4452 0 45.2456C0 45.0457 0.119064 44.8645 0.302734 44.7856L17.7773 37.2954L19.0469 37.8394L1.76855 45.2446L25.042 55.2192L48.3154 45.2446L31.0371 37.8394L32.3066 37.2954L49.7822 44.7856ZM24.9424 34.2368C25.0413 34.2166 25.145 34.2268 25.2393 34.2671L27.2285 35.1196L25.959 35.6636L25.042 35.271L24.124 35.6636L22.8555 35.1196L24.8457 34.2671L24.9424 34.2368Z"/>
</mask>
<path d="M49.7822 44.7856L50.374 43.4073L50.3732 43.4069L49.7822 44.7856ZM50.085 45.2456L51.585 45.2475V45.2456H50.085ZM49.7822 45.7046L50.3731 47.0833L50.3739 47.083L49.7822 45.7046ZM25.2393 56.2231L25.8293 57.6022L25.8301 57.6019L25.2393 56.2231ZM24.8457 56.2231L24.2548 57.6019L24.2557 57.6022L24.8457 56.2231ZM0.302734 45.7046L-0.289202 47.0829L-0.288151 47.0833L0.302734 45.7046ZM0 45.2456H-1.5L-1.5 45.2475L0 45.2456ZM0.302734 44.7856L-0.288219 43.407L-0.289046 43.4073L0.302734 44.7856ZM17.7773 37.2954L18.3681 35.9166C17.9908 35.755 17.5637 35.755 17.1864 35.9167L17.7773 37.2954ZM19.0469 37.8394L19.6378 39.2181C20.1893 38.9817 20.5469 38.4393 20.5469 37.8393C20.5468 37.2392 20.1892 36.6969 19.6376 36.4606L19.0469 37.8394ZM1.76855 45.2446L1.17766 43.8659C0.62614 44.1023 0.268554 44.6446 0.268555 45.2446C0.268556 45.8447 0.626144 46.387 1.17766 46.6233L1.76855 45.2446ZM25.042 55.2192L24.4511 56.5979C24.8284 56.7597 25.2556 56.7597 25.6329 56.5979L25.042 55.2192ZM48.3154 45.2446L48.9063 46.6233C49.4578 46.387 49.8154 45.8447 49.8154 45.2446C49.8154 44.6446 49.4578 44.1023 48.9063 43.8659L48.3154 45.2446ZM31.0371 37.8394L30.4464 36.4606C29.8948 36.6969 29.5371 37.2392 29.5371 37.8393C29.5371 38.4393 29.8947 38.9817 30.4462 39.2181L31.0371 37.8394ZM32.3066 37.2954L32.8976 35.9167C32.5203 35.755 32.0932 35.755 31.7159 35.9166L32.3066 37.2954ZM24.9424 34.2368L24.6422 32.7672C24.5922 32.7774 24.5428 32.7901 24.4941 32.8054L24.9424 34.2368ZM25.2393 34.2671L25.8301 32.8884L25.8291 32.8879L25.2393 34.2671ZM27.2285 35.1196L27.8193 36.4984C28.3708 36.2621 28.7285 35.7198 28.7285 35.1197C28.7285 34.5196 28.3709 33.9773 27.8194 33.7409L27.2285 35.1196ZM25.959 35.6636L25.3686 37.0425C25.7458 37.204 26.1726 37.2039 26.5497 37.0423L25.959 35.6636ZM25.042 35.271L25.6323 33.8921C25.2555 33.7307 24.8291 33.7306 24.4522 33.8918L25.042 35.271ZM24.124 35.6636L23.5329 37.0422C23.9099 37.2038 24.3367 37.204 24.7138 37.0427L24.124 35.6636ZM22.8555 35.1196L22.2648 33.7408C21.7133 33.9771 21.3556 34.5193 21.3555 35.1194C21.3554 35.7194 21.7129 36.2618 22.2643 36.4982L22.8555 35.1196ZM24.8457 34.2671L24.3975 32.8356C24.3491 32.8508 24.3016 32.8683 24.2551 32.8883L24.8457 34.2671ZM49.7822 44.7856L49.1905 46.164C48.8214 46.0056 48.585 45.6436 48.585 45.2456H50.085H51.585C51.585 44.4478 51.1104 43.7235 50.374 43.4073L49.7822 44.7856ZM50.085 45.2456L48.585 45.2437C48.5855 44.8451 48.8229 44.484 49.1906 44.3262L49.7822 45.7046L50.3739 47.083C51.1086 46.7676 51.584 46.0454 51.585 45.2475L50.085 45.2456ZM49.7822 45.7046L49.1913 44.3259L24.6484 54.8444L25.2393 56.2231L25.8301 57.6019L50.3731 47.0833L49.7822 45.7046ZM25.2393 56.2231L24.6492 54.8441C24.9004 54.7366 25.1845 54.7366 25.4357 54.8441L24.8457 56.2231L24.2557 57.6022C24.7581 57.8172 25.3269 57.8172 25.8293 57.6022L25.2393 56.2231ZM24.8457 56.2231L25.4366 54.8444L0.89362 44.3259L0.302734 45.7046L-0.288151 47.0833L24.2548 57.6019L24.8457 56.2231ZM0.302734 45.7046L0.894671 44.3263C1.26195 44.4841 1.4995 44.8449 1.5 45.2437L0 45.2456L-1.5 45.2475C-1.499 46.0456 -1.02338 46.7675 -0.289202 47.0829L0.302734 45.7046ZM0 45.2456H1.5C1.5 45.6436 1.26351 46.0055 0.894515 46.164L0.302734 44.7856L-0.289046 43.4073C-1.02538 43.7235 -1.5 44.4478 -1.5 45.2456H0ZM0.302734 44.7856L0.893688 46.1643L18.3683 38.6741L17.7773 37.2954L17.1864 35.9167L-0.288219 43.407L0.302734 44.7856ZM17.7773 37.2954L17.1866 38.6742L18.4561 39.2181L19.0469 37.8394L19.6376 36.4606L18.3681 35.9166L17.7773 37.2954ZM19.0469 37.8394L18.456 36.4606L1.17766 43.8659L1.76855 45.2446L2.35945 46.6233L19.6378 39.2181L19.0469 37.8394ZM1.76855 45.2446L1.17766 46.6233L24.4511 56.5979L25.042 55.2192L25.6329 53.8405L2.35945 43.8659L1.76855 45.2446ZM25.042 55.2192L25.6329 56.5979L48.9063 46.6233L48.3154 45.2446L47.7245 43.8659L24.4511 53.8405L25.042 55.2192ZM48.3154 45.2446L48.9063 43.8659L31.628 36.4606L31.0371 37.8394L30.4462 39.2181L47.7245 46.6233L48.3154 45.2446ZM31.0371 37.8394L31.6279 39.2181L32.8974 38.6742L32.3066 37.2954L31.7159 35.9166L30.4464 36.4606L31.0371 37.8394ZM32.3066 37.2954L31.7157 38.6741L49.1913 46.1643L49.7822 44.7856L50.3732 43.4069L32.8976 35.9167L32.3066 37.2954ZM24.9424 34.2368L25.2426 35.7065C25.044 35.747 24.8371 35.7265 24.6494 35.6462L25.2393 34.2671L25.8291 32.8879C25.4529 32.727 25.0386 32.6862 24.6422 32.7672L24.9424 34.2368ZM25.2393 34.2671L24.6484 35.6458L26.6376 36.4983L27.2285 35.1196L27.8194 33.7409L25.8301 32.8884L25.2393 34.2671ZM27.2285 35.1196L26.6378 33.7409L25.3682 34.2848L25.959 35.6636L26.5497 37.0423L27.8193 36.4984L27.2285 35.1196ZM25.959 35.6636L26.5493 34.2846L25.6323 33.8921L25.042 35.271L24.4516 36.6499L25.3686 37.0425L25.959 35.6636ZM25.042 35.271L24.4522 33.8918L23.5342 34.2844L24.124 35.6636L24.7138 37.0427L25.6318 36.6502L25.042 35.271ZM24.124 35.6636L24.7152 34.285L23.4466 33.741L22.8555 35.1196L22.2643 36.4982L23.5329 37.0422L24.124 35.6636ZM22.8555 35.1196L23.4461 36.4985L25.4363 35.6459L24.8457 34.2671L24.2551 32.8883L22.2648 33.7408L22.8555 35.1196ZM24.8457 34.2671L25.2939 35.6986L25.3906 35.6683L24.9424 34.2368L24.4941 32.8054L24.3975 32.8356L24.8457 34.2671Z" fill="#FFFAEE" mask="url(#path-4-inside-2_23_703)"/>
</svg>
