<svg width="50" height="50" viewBox="0 0 50 50" fill="none" xmlns="http://www.w3.org/2000/svg">
<path d="M50 35.0988L31.5123 31.6601L48.8915 20.8696L47.6247 18.8538L31.1164 29.0909L44.4972 0.988142L42.3594 0L28.8599 28.3004L25.8907 9.88142L23.555 10.2767L26.3658 27.8261L9.26366 5.65217L7.40303 7.11462L24.5843 29.4071L6.33412 21.6601L5.42362 23.834L24.5051 31.9368L0 37.7075L0.554245 40.0395L23.0008 34.7036L15.3207 40.4743L16.7459 42.3715L26.8409 34.8221L25.3365 49.7628L27.6722 50L29.2162 34.9012L39.034 44.8221L40.7363 43.1621L31.7894 34.1107L49.5645 37.4308L50 35.0988Z" fill="#FFFAEE"/>
</svg>
