<svg width="149" height="75" viewBox="0 0 149 75" fill="none" xmlns="http://www.w3.org/2000/svg">
<path d="M17.536 65.6724C17.536 60.9681 13.7223 57.1545 9.01799 57.1545C4.31363 57.1545 0.499999 60.9681 0.5 65.6724C0.5 70.3768 4.31363 74.1904 9.01799 74.1904C13.7223 74.1904 17.536 70.3768 17.536 65.6724Z" fill="#000000"/>
<path d="M39.4225 43.9042C39.4225 39.1999 35.6089 35.3862 30.9045 35.3862C26.2002 35.3862 22.3866 39.1999 22.3866 43.9042C22.3866 48.6086 26.2002 52.4222 30.9045 52.4222C35.6089 52.4222 39.4225 48.6086 39.4225 43.9042Z" fill="#000000"/>
<path d="M148.5 65.6724C148.5 60.9681 144.686 57.1545 139.982 57.1545C135.278 57.1545 131.464 60.9681 131.464 65.6724C131.464 70.3768 135.278 74.1904 139.982 74.1904C144.686 74.1904 148.5 70.3768 148.5 65.6724Z" fill="#000000"/>
<path d="M126.614 65.6724C126.614 60.9681 122.8 57.1545 118.096 57.1545C113.391 57.1545 109.578 60.9681 109.578 65.6724C109.578 70.3768 113.391 74.1904 118.096 74.1904C122.8 74.1904 126.614 70.3768 126.614 65.6724Z" fill="#000000"/>
<path d="M61.1906 65.6724C61.1906 60.9681 57.377 57.1545 52.6726 57.1545C47.9683 57.1545 44.1546 60.9681 44.1546 65.6724C44.1546 70.3768 47.9683 74.1904 52.6726 74.1904C57.377 74.1904 61.1906 70.3768 61.1906 65.6724Z" fill="#000000"/>
<path d="M61.1906 43.9042C61.1906 39.1999 57.377 35.3862 52.6726 35.3862C47.9683 35.3862 44.1546 39.1999 44.1546 43.9042C44.1546 48.6086 47.9683 52.4222 52.6726 52.4222C57.377 52.4222 61.1906 48.6086 61.1906 43.9042Z" fill="#000000"/>
<path d="M104.845 43.9042C104.845 39.1999 101.032 35.3862 96.3274 35.3862C91.623 35.3862 87.8094 39.1999 87.8094 43.9042C87.8094 48.6086 91.623 52.4222 96.3274 52.4222C101.032 52.4222 104.845 48.6086 104.845 43.9042Z" fill="#000000"/>
<path d="M104.845 22.0177C104.845 17.3133 101.032 13.4997 96.3274 13.4997C91.623 13.4997 87.8094 17.3133 87.8094 22.0177C87.8094 26.7221 91.623 30.5356 96.3274 30.5356C101.032 30.5356 104.845 26.7221 104.845 22.0177Z" fill="#000000"/>
<path d="M131.964 65.6728C131.964 61.2446 135.554 57.6543 139.982 57.6543C144.41 57.6545 148 61.2448 148 65.6728C148 70.1007 144.41 73.6902 139.982 73.6904C135.554 73.6904 131.964 70.1009 131.964 65.6728ZM110.077 65.6728C110.077 61.2446 113.667 57.6543 118.096 57.6543C122.524 57.6543 126.113 61.2447 126.113 65.6728C126.113 70.1008 122.524 73.6904 118.096 73.6904C113.668 73.6904 110.077 70.1009 110.077 65.6728ZM110.077 43.9043C110.077 39.4761 113.667 35.8857 118.096 35.8857C122.524 35.8858 126.113 39.4761 126.113 43.9043C126.113 48.3324 122.524 51.9218 118.096 51.9219C113.668 51.9219 110.077 48.3325 110.077 43.9043ZM88.3096 43.9043C88.3096 39.4762 91.899 35.8859 96.3271 35.8857C100.755 35.8857 104.346 39.4761 104.346 43.9043C104.346 48.3325 100.755 51.9219 96.3271 51.9219C91.8991 51.9218 88.3096 48.3324 88.3096 43.9043ZM88.3096 22.0176C88.3096 17.5895 91.8991 14.0001 96.3271 14C100.755 14 104.346 17.5894 104.346 22.0176C104.346 26.4458 100.755 30.0352 96.3271 30.0352C91.899 30.035 88.3096 26.4457 88.3096 22.0176ZM66.4229 65.6728C66.4229 61.2448 70.0124 57.6545 74.4404 57.6543C78.8686 57.6543 82.459 61.2446 82.459 65.6728C82.4588 70.1009 78.8685 73.6904 74.4404 73.6904C70.0125 73.6902 66.4231 70.1007 66.4229 65.6728ZM66.4229 43.9043C66.4229 39.4762 70.0124 35.8859 74.4404 35.8857C78.8686 35.8857 82.459 39.4761 82.459 43.9043C82.459 48.3325 78.8686 51.9219 74.4404 51.9219C70.0124 51.9217 66.4229 48.3323 66.4229 43.9043ZM44.6543 65.6728C44.6543 61.2446 48.2446 57.6543 52.6729 57.6543C57.101 57.6544 60.6904 61.2447 60.6904 65.6728C60.6902 70.1008 57.1008 73.6903 52.6729 73.6904C48.2448 73.6904 44.6545 70.1009 44.6543 65.6728ZM44.6543 43.9043C44.6543 39.4761 48.2446 35.8857 52.6728 35.8857C57.1009 35.8859 60.6904 39.4762 60.6904 43.9043C60.6904 48.3324 57.1009 51.9217 52.6729 51.9219C48.2447 51.9219 44.6543 48.3325 44.6543 43.9043ZM44.6543 22.0176C44.6544 17.5894 48.2447 14 52.6728 14C57.1009 14.0001 60.6904 17.5895 60.6904 22.0176C60.6904 26.4457 57.101 30.035 52.6728 30.0352C48.2446 30.0352 44.6543 26.4458 44.6543 22.0176ZM22.8867 65.6729C22.8867 61.2447 26.4762 57.6544 30.9043 57.6543C35.3325 57.6543 38.9229 61.2446 38.9229 65.6728C38.9226 70.1009 35.3324 73.6904 30.9043 73.6904C26.4763 73.6903 22.8869 70.1008 22.8867 65.6729ZM22.8867 43.9043C22.8867 39.4762 26.4762 35.8859 30.9043 35.8857C35.3325 35.8857 38.9229 39.4761 38.9229 43.9043C38.9228 48.3325 35.3325 51.9219 30.9043 51.9219C26.4762 51.9217 22.8868 48.3324 22.8867 43.9043ZM1 65.6729C0.999999 61.2448 4.58955 57.6545 9.01758 57.6543C13.4458 57.6543 17.0361 61.2446 17.0361 65.6729C17.0359 70.1009 13.4456 73.6904 9.01758 73.6904C4.5897 73.6902 1.00023 70.1007 1 65.6729Z" stroke="#000000"/>
<path d="M0.5 0.5V0H0L0 0.5L0.5 0.5ZM63.5 1H64V0L63.5 0V0.5V1ZM1 10.25C1 9.97386 0.776142 9.75 0.5 9.75C0.223858 9.75 0 9.97386 0 10.25H0.5H1ZM0 3.75C0 4.02614 0.223858 4.25 0.5 4.25C0.776142 4.25 1 4.02614 1 3.75H0.5H0ZM5.75 1C6.02614 1 6.25 0.776142 6.25 0.5C6.25 0.223858 6.02614 0 5.75 0V0.5V1ZM16.25 0C15.9739 0 15.75 0.223858 15.75 0.5C15.75 0.776142 15.9739 1 16.25 1V0.5V0ZM26.75 1C27.0261 1 27.25 0.776142 27.25 0.5C27.25 0.223858 27.0261 0 26.75 0V0.5V1ZM37.25 0C36.9739 0 36.75 0.223858 36.75 0.5C36.75 0.776142 36.9739 1 37.25 1V0.5V0ZM47.75 1C48.0261 1 48.25 0.776142 48.25 0.5C48.25 0.223858 48.0261 0 47.75 0V0.5V1ZM58.25 0C57.9739 0 57.75 0.223858 57.75 0.5C57.75 0.776142 57.9739 1 58.25 1V0.5V0ZM0.5 13.5H1L1 10.25H0.5H0L0 13.5H0.5ZM0.5 3.75H1L1 0.5H0.5L0 0.5L0 3.75H0.5ZM0.5 0.5L0.5 1L5.75 1V0.5V0L0.5 0V0.5ZM16.25 0.5V1L26.75 1V0.5V0L16.25 0V0.5ZM37.25 0.5V1L47.75 1V0.5V0L37.25 0V0.5ZM58.25 0.5V1L63.5 1V0.5V0L58.25 0V0.5Z" fill="#000000"/>
</svg>
