<svg width="126" height="52" viewBox="0 0 126 52" fill="none" xmlns="http://www.w3.org/2000/svg">
<path d="M9.44138e-05 52L6.62402 52L6.62402 45.3813L9.49924e-05 45.3813L9.44138e-05 52Z" fill="#000000"/>
<path d="M9.44138e-05 40.0923L6.62402 40.0923L6.62402 33.4505L9.49944e-05 33.4505L9.44138e-05 40.0923Z" fill="#000000"/>
<path d="M11.8967 52L18.5283 52L18.5283 45.3813L11.8967 45.3813L11.8967 52Z" fill="#000000"/>
<path d="M11.8971 40.0923L18.521 40.0923L18.521 33.4736L11.8971 33.4736L11.8971 40.0923Z" fill="#000000"/>
<path d="M11.8971 28.1846L18.521 28.1846L18.521 21.5428L11.8971 21.5428L11.8971 28.1846Z" fill="#000000"/>
<path d="M30.4331 40.0692L30.4331 33.4659L23.8015 33.4659L23.8015 40.0923L30.4331 40.0692Z" fill="#000000"/>
<path d="M30.4331 6.61854L30.4331 0.0152283L23.8015 0.0152277L23.8015 6.6416L30.4331 6.61854Z" fill="#000000"/>
<path d="M6.68994 18.5258L6.68994 11.9225L0.0583411 11.9225L0.0583405 18.5488L6.68994 18.5258Z" fill="#000000"/>
<path d="M23.8015 28.1846L30.4331 28.1846L30.4331 21.5428L23.8015 21.5428L23.8015 28.1846Z" fill="#000000"/>
<path d="M0.0583405 6.6416L6.68994 6.6416L6.68994 -0.000145435L0.0583411 -0.000146015L0.0583405 6.6416Z" fill="#000000"/>
<path d="M35.7062 52L42.3301 52L42.3301 45.3583L35.7062 45.3583L35.7062 52Z" fill="#000000"/>
<path d="M35.7062 18.5488L42.3301 18.5488L42.3301 11.9071L35.7062 11.9071L35.7062 18.5488Z" fill="#000000"/>
<path d="M47.6111 52L54.2427 52L54.2427 45.3583L47.6111 45.3583L47.6111 52Z" fill="#000000"/>
<path d="M59.6008 18.5488L66.2324 18.5488L66.2324 11.9071L59.6008 11.9071L59.6008 18.5488Z" fill="#000000"/>
<path d="M59.5154 40.0923L66.147 40.0923L66.147 33.4505L59.5154 33.4505L59.5154 40.0923Z" fill="#000000"/>
<path d="M71.4202 28.1846L78.0518 28.1846L78.0518 21.5428L71.4202 21.5428L71.4202 28.1846Z" fill="#000000"/>
<path d="M125.052 52H118.428V45.3813H125.052V52Z" fill="#000000"/>
<path d="M125.052 40.0923H118.428V33.4505H125.052V40.0923Z" fill="#000000"/>
<path d="M113.155 52H106.523V45.3813H113.155V52Z" fill="#000000"/>
<path d="M113.155 40.0923H106.531V33.4736H113.155V40.0923Z" fill="#000000"/>
<path d="M113.155 28.1846H106.531V21.5428H113.155V28.1846Z" fill="#000000"/>
<path d="M94.6187 40.0692V33.4659H101.25V40.0923L94.6187 40.0692Z" fill="#000000"/>
<path d="M94.6187 6.61854V0.0152283L101.25 0.0152283V6.6416L94.6187 6.61854Z" fill="#000000"/>
<path d="M118.362 18.5258V11.9225H124.993V18.5488L118.362 18.5258Z" fill="#000000"/>
<path d="M101.25 28.1846H94.6187V21.5428H101.25V28.1846Z" fill="#000000"/>
<path d="M124.993 6.6416L118.362 6.6416V-0.000145435L124.993 -0.000145435V6.6416Z" fill="#000000"/>
<path d="M89.3456 52H82.7217V45.3583H89.3456V52Z" fill="#000000"/>
<path d="M89.3456 18.5488H82.7217V11.9071H89.3456V18.5488Z" fill="#000000"/>
<path d="M77.4407 52H70.8091V45.3583H77.4407V52Z" fill="#000000"/>
<path d="M65.4509 18.5488H58.8193V11.9071H65.4509V18.5488Z" fill="#000000"/>
<path d="M65.5364 40.0923H58.9048V33.4505H65.5364V40.0923Z" fill="#000000"/>
<path d="M53.6316 28.1846H47V21.5428H53.6316V28.1846Z" fill="#000000"/>
</svg>
