<svg width="256" height="65" viewBox="0 0 256 65" fill="none" xmlns="http://www.w3.org/2000/svg">
<g clip-path="url(#clip0_101_1121)">
<path d="M4.28175 8.8574C6.40584 8.8574 8.12747 10.579 8.12747 12.7031C8.12747 14.8272 6.40584 16.5488 4.28175 16.5488C2.15766 16.5488 0.436035 14.8272 0.436035 12.7031C0.436035 10.579 2.15766 8.8574 4.28175 8.8574Z" fill="#FFFAEE"/>
<path d="M4.28179 17.7138C6.16552 17.7138 7.69151 19.2398 7.69151 21.1235C7.69151 23.0072 6.16552 24.5332 4.28179 24.5332C2.39806 24.5332 0.87207 23.0072 0.87207 21.1235C0.87207 19.2398 2.39806 17.7138 4.28179 17.7138Z" fill="#FFFAEE"/>
<path d="M4.28183 26.5711C5.9252 26.5711 7.25555 27.9015 7.25555 29.5448C7.25555 31.1882 5.9252 32.5186 4.28183 32.5186C2.63845 32.5186 1.30811 31.1882 1.30811 29.5448C1.30811 27.9015 2.63845 26.5711 4.28183 26.5711Z" fill="#FFFAEE"/>
<path d="M4.28187 35.4275C5.68209 35.4275 6.81959 36.565 6.81959 37.9652C6.81959 39.3654 5.68209 40.5029 4.28187 40.5029C2.88165 40.5029 1.74414 39.3654 1.74414 37.9652C1.74414 36.565 2.88165 35.4275 4.28187 35.4275Z" fill="#FFFAEE"/>
<path d="M4.28142 44.2848C5.44128 44.2848 6.38314 45.2267 6.38314 46.3866C6.38314 47.5464 5.44128 48.4883 4.28142 48.4883C3.12155 48.4883 2.17969 47.5464 2.17969 46.3866C2.17969 45.2267 3.12155 44.2848 4.28142 44.2848Z" fill="#FFFAEE"/>
<path d="M4.28145 53.1383C5.20096 53.1383 5.94719 53.8845 5.94719 54.804C5.94719 55.7235 5.20096 56.4697 4.28145 56.4697C3.36195 56.4697 2.61572 55.7235 2.61572 54.804C2.61572 53.8845 3.36195 53.1383 4.28145 53.1383Z" fill="#FFFAEE"/>
<path d="M4.28149 61.9957C4.96064 61.9957 5.51123 62.5463 5.51123 63.2255C5.51123 63.9046 4.96064 64.458 4.28149 64.458C3.60234 64.458 3.05176 63.9074 3.05176 63.2283C3.05176 62.5491 3.60234 61.9985 4.28149 61.9985V61.9957Z" fill="#FFFAEE"/>
<path d="M12.2666 8.8574C14.3907 8.8574 16.1123 10.579 16.1123 12.7031C16.1123 14.8272 14.3907 16.5488 12.2666 16.5488C10.1425 16.5488 8.4209 14.8272 8.4209 12.7031C8.4209 10.579 10.1425 8.8574 12.2666 8.8574Z" fill="#FFFAEE"/>
<path d="M12.2667 17.7138C14.1504 17.7138 15.6764 19.2398 15.6764 21.1235C15.6764 23.0072 14.1504 24.5332 12.2667 24.5332C10.3829 24.5332 8.85693 23.0072 8.85693 21.1235C8.85693 19.2398 10.3829 17.7138 12.2667 17.7138Z" fill="#FFFAEE"/>
<path d="M12.2667 26.5711C13.9101 26.5711 15.2404 27.9015 15.2404 29.5448C15.2404 31.1882 13.9101 32.5186 12.2667 32.5186C10.6233 32.5186 9.29297 31.1882 9.29297 29.5448C9.29297 27.9015 10.6233 26.5711 12.2667 26.5711Z" fill="#FFFAEE"/>
<path d="M12.2667 35.4275C13.6697 35.4275 14.8045 36.565 14.8045 37.9652C14.8045 39.3654 13.6669 40.5029 12.2667 40.5029C10.8665 40.5029 9.729 39.3654 9.729 37.9652C9.729 36.565 10.8665 35.4275 12.2667 35.4275Z" fill="#FFFAEE"/>
<path d="M12.2668 44.2848C13.4266 44.2848 14.3685 45.2267 14.3685 46.3866C14.3685 47.5464 13.4266 48.4883 12.2668 48.4883C11.1069 48.4883 10.165 47.5464 10.165 46.3866C10.165 45.2267 11.1069 44.2848 12.2668 44.2848Z" fill="#FFFAEE"/>
<path d="M12.2668 53.1383C13.1863 53.1383 13.9325 53.8845 13.9325 54.804C13.9325 55.7235 13.1863 56.4697 12.2668 56.4697C11.3473 56.4697 10.6011 55.7235 10.6011 54.804C10.6011 53.8845 11.3473 53.1383 12.2668 53.1383Z" fill="#FFFAEE"/>
<path d="M12.2668 61.9956C12.946 61.9956 13.4966 62.5462 13.4966 63.2253C13.4966 63.9045 12.946 64.4551 12.2668 64.4551C11.5877 64.4551 11.0371 63.9045 11.0371 63.2253C11.0371 62.5462 11.5877 61.9956 12.2668 61.9956Z" fill="#FFFAEE"/>
<path d="M20.2515 8.8574C22.3756 8.8574 24.0972 10.579 24.0972 12.7031C24.0972 14.8272 22.3756 16.5488 20.2515 16.5488C18.1274 16.5488 16.4058 14.8272 16.4058 12.7031C16.4058 10.579 18.1274 8.8574 20.2515 8.8574Z" fill="#FFFAEE"/>
<path d="M20.2515 17.7138C22.1352 17.7138 23.6612 19.2398 23.6612 21.1235C23.6612 23.0072 22.1352 24.5332 20.2515 24.5332C18.3678 24.5332 16.8418 23.0072 16.8418 21.1235C16.8418 19.2398 18.3678 17.7138 20.2515 17.7138Z" fill="#FFFAEE"/>
<path d="M20.2516 26.5711C21.8949 26.5711 23.2253 27.9015 23.2253 29.5448C23.2253 31.1882 21.8949 32.5186 20.2516 32.5186C18.6082 32.5186 17.2778 31.1882 17.2778 29.5448C17.2778 27.9015 18.6082 26.5711 20.2516 26.5711Z" fill="#FFFAEE"/>
<path d="M20.2516 35.4275C21.6546 35.4275 22.7893 36.565 22.7893 37.9652C22.7893 39.3654 21.6518 40.5029 20.2516 40.5029C18.8514 40.5029 17.7139 39.3654 17.7139 37.9652C17.7139 36.565 18.8514 35.4275 20.2516 35.4275Z" fill="#FFFAEE"/>
<path d="M20.2516 44.2848C21.4115 44.2848 22.3534 45.2267 22.3534 46.3866C22.3534 47.5464 21.4115 48.4883 20.2516 48.4883C19.0918 48.4883 18.1499 47.5464 18.1499 46.3866C18.1499 45.2267 19.0918 44.2848 20.2516 44.2848Z" fill="#FFFAEE"/>
<path d="M20.2517 53.1383C21.1712 53.1383 21.9174 53.8845 21.9174 54.804C21.9174 55.7235 21.1712 56.4697 20.2517 56.4697C19.3322 56.4697 18.5859 55.7235 18.5859 54.804C18.5859 53.8845 19.3322 53.1383 20.2517 53.1383Z" fill="#FFFAEE"/>
<path d="M20.2517 61.9956C20.9309 61.9956 21.4814 62.5462 21.4814 63.2253C21.4814 63.9045 20.9309 64.4551 20.2517 64.4551C19.5726 64.4551 19.022 63.9045 19.022 63.2253C19.022 62.5462 19.5726 61.9956 20.2517 61.9956Z" fill="#FFFAEE"/>
<path d="M28.2363 8.8574C30.3604 8.8574 32.0821 10.579 32.0821 12.7031C32.0821 14.8272 30.3604 16.5488 28.2363 16.5488C26.1123 16.5488 24.3906 14.8272 24.3906 12.7031C24.3906 10.579 26.1123 8.8574 28.2363 8.8574Z" fill="#FFFAEE"/>
<path d="M28.2364 17.7138C30.1201 17.7138 31.6461 19.2398 31.6461 21.1235C31.6461 23.0072 30.1201 24.5332 28.2364 24.5332C26.3526 24.5332 24.8267 23.0072 24.8267 21.1235C24.8267 19.2398 26.3526 17.7138 28.2364 17.7138Z" fill="#FFFAEE"/>
<path d="M31.208 29.394C31.29 31.0343 30.0267 32.4304 28.3864 32.5124C26.7461 32.5943 25.35 31.331 25.268 29.6907C25.1861 28.0504 26.4494 26.6543 28.0896 26.5723C29.7299 26.4904 31.1261 27.7537 31.208 29.394Z" fill="#FFFAEE"/>
<path d="M28.2365 35.4275C29.6367 35.4275 30.7742 36.565 30.7742 37.9652C30.7742 39.3654 29.6367 40.5029 28.2365 40.5029C26.8362 40.5029 25.6987 39.3654 25.6987 37.9652C25.6987 36.565 26.8362 35.4275 28.2365 35.4275Z" fill="#FFFAEE"/>
<path d="M28.2365 44.2848C29.3964 44.2848 30.3382 45.2267 30.3382 46.3866C30.3382 47.5464 29.3964 48.4883 28.2365 48.4883C27.0766 48.4883 26.1348 47.5464 26.1348 46.3866C26.1348 45.2267 27.0766 44.2848 28.2365 44.2848Z" fill="#FFFAEE"/>
<path d="M28.2365 53.1383C29.156 53.1383 29.9023 53.8845 29.9023 54.804C29.9023 55.7235 29.156 56.4697 28.2365 56.4697C27.317 56.4697 26.5708 55.7235 26.5708 54.804C26.5708 53.8845 27.317 53.1383 28.2365 53.1383Z" fill="#FFFAEE"/>
<path d="M28.2366 61.9956C28.9157 61.9956 29.4663 62.5462 29.4663 63.2253C29.4663 63.9045 28.9157 64.4551 28.2366 64.4551C27.5574 64.4551 27.0068 63.9045 27.0068 63.2253C27.0068 62.5462 27.5574 61.9956 28.2366 61.9956Z" fill="#FFFAEE"/>
<path d="M36.2212 8.8574C38.3453 8.8574 40.0669 10.579 40.0669 12.7031C40.0669 14.8272 38.3453 16.5488 36.2212 16.5488C34.0971 16.5488 32.3755 14.8272 32.3755 12.7031C32.3755 10.579 34.0971 8.8574 36.2212 8.8574Z" fill="#FFFAEE"/>
<path d="M36.2212 17.7138C38.105 17.7138 39.631 19.2398 39.631 21.1235C39.631 23.0072 38.105 24.5332 36.2212 24.5332C34.3375 24.5332 32.8115 23.0072 32.8115 21.1235C32.8115 19.2398 34.3375 17.7138 36.2212 17.7138Z" fill="#FFFAEE"/>
<path d="M36.2213 26.5711C37.8647 26.5711 39.195 27.9015 39.195 29.5448C39.195 31.1882 37.8647 32.5186 36.2213 32.5186C34.5779 32.5186 33.2476 31.1882 33.2476 29.5448C33.2476 27.9015 34.5779 26.5711 36.2213 26.5711Z" fill="#FFFAEE"/>
<path d="M36.2213 35.4275C37.6243 35.4275 38.759 36.565 38.759 37.9652C38.759 39.3654 37.6215 40.5029 36.2213 40.5029C34.8211 40.5029 33.6836 39.3654 33.6836 37.9652C33.6836 36.565 34.8211 35.4275 36.2213 35.4275Z" fill="#FFFAEE"/>
<path d="M36.2214 44.2848C37.3812 44.2848 38.3231 45.2267 38.3231 46.3866C38.3231 47.5464 37.3812 48.4883 36.2214 48.4883C35.0615 48.4883 34.1196 47.5464 34.1196 46.3866C34.1196 45.2267 35.0615 44.2848 36.2214 44.2848Z" fill="#FFFAEE"/>
<path d="M36.2214 53.1383C37.1409 53.1383 37.8871 53.8845 37.8871 54.804C37.8871 55.7235 37.1409 56.4697 36.2214 56.4697C35.3019 56.4697 34.5557 55.7235 34.5557 54.804C34.5557 53.8845 35.3019 53.1383 36.2214 53.1383Z" fill="#FFFAEE"/>
<path d="M36.2214 61.9956C36.9006 61.9956 37.4512 62.5462 37.4512 63.2253C37.4512 63.9045 36.9006 64.4551 36.2214 64.4551C35.5423 64.4551 34.9917 63.9045 34.9917 63.2253C34.9917 62.5462 35.5423 61.9956 36.2214 61.9956Z" fill="#FFFAEE"/>
<path d="M44.2061 8.8574C46.3302 8.8574 48.0518 10.579 48.0518 12.7031C48.0518 14.8272 46.3302 16.5488 44.2061 16.5488C42.082 16.5488 40.3604 14.8272 40.3604 12.7031C40.3604 10.579 42.082 8.8574 44.2061 8.8574Z" fill="#FFFAEE"/>
<path d="M44.2061 17.7138C46.0898 17.7138 47.6158 19.2398 47.6158 21.1235C47.6158 23.0072 46.0898 24.5332 44.2061 24.5332C42.3224 24.5332 40.7964 23.0072 40.7964 21.1235C40.7964 19.2398 42.3224 17.7138 44.2061 17.7138Z" fill="#FFFAEE"/>
<path d="M44.2061 26.5711C45.8495 26.5711 47.1799 27.9015 47.1799 29.5448C47.1799 31.1882 45.8495 32.5186 44.2061 32.5186C42.5628 32.5186 41.2324 31.1882 41.2324 29.5448C41.2324 27.9015 42.5628 26.5711 44.2061 26.5711Z" fill="#FFFAEE"/>
<path d="M44.2062 35.4275C45.6092 35.4275 46.7439 36.565 46.7439 37.9652C46.7439 39.3654 45.6064 40.5029 44.2062 40.5029C42.806 40.5029 41.6685 39.3654 41.6685 37.9652C41.6685 36.565 42.8032 35.4275 44.2062 35.4275Z" fill="#FFFAEE"/>
<path d="M44.2062 44.2848C45.3661 44.2848 46.308 45.2267 46.308 46.3866C46.308 47.5464 45.3661 48.4883 44.2062 48.4883C43.0464 48.4883 42.1045 47.5464 42.1045 46.3866C42.1045 45.2267 43.0464 44.2848 44.2062 44.2848Z" fill="#FFFAEE"/>
<path d="M44.2063 53.1383C45.1258 53.1383 45.872 53.8845 45.872 54.804C45.872 55.7235 45.1258 56.4697 44.2063 56.4697C43.2868 56.4697 42.5405 55.7235 42.5405 54.804C42.5405 53.8845 43.2868 53.1383 44.2063 53.1383Z" fill="#FFFAEE"/>
<path d="M44.2063 61.9956C44.8854 61.9956 45.436 62.5462 45.436 63.2253C45.436 63.9045 44.8854 64.4551 44.2063 64.4551C43.5271 64.4551 42.9766 63.9045 42.9766 63.2253C42.9766 62.5462 43.5271 61.9956 44.2063 61.9956Z" fill="#FFFAEE"/>
<path d="M52.1909 8.8574C54.315 8.8574 56.0366 10.579 56.0366 12.7031C56.0366 14.8272 54.315 16.5488 52.1909 16.5488C50.0668 16.5488 48.3452 14.8272 48.3452 12.7031C48.3452 10.579 50.0668 8.8574 52.1909 8.8574Z" fill="#FFFAEE"/>
<path d="M52.191 17.7138C54.0747 17.7138 55.6007 19.2398 55.6007 21.1235C55.6007 23.0072 54.0747 24.5332 52.191 24.5332C50.3072 24.5332 48.7812 23.0072 48.7812 21.1235C48.7812 19.2398 50.3072 17.7138 52.191 17.7138Z" fill="#FFFAEE"/>
<path d="M52.191 26.5711C53.8344 26.5711 55.1647 27.9015 55.1647 29.5448C55.1647 31.1882 53.8344 32.5186 52.191 32.5186C50.5476 32.5186 49.2173 31.1882 49.2173 29.5448C49.2173 27.9015 50.5476 26.5711 52.191 26.5711Z" fill="#FFFAEE"/>
<path d="M52.191 35.4275C53.5941 35.4275 54.7288 36.565 54.7288 37.9652C54.7288 39.3654 53.5913 40.5029 52.191 40.5029C50.7908 40.5029 49.6533 39.3654 49.6533 37.9652C49.6533 36.565 50.7908 35.4275 52.191 35.4275Z" fill="#FFFAEE"/>
<path d="M52.1911 44.2848C53.3509 44.2848 54.2928 45.2267 54.2928 46.3866C54.2928 47.5464 53.3509 48.4883 52.1911 48.4883C51.0312 48.4883 50.0894 47.5464 50.0894 46.3866C50.0894 45.2267 51.0312 44.2848 52.1911 44.2848Z" fill="#FFFAEE"/>
<path d="M52.1911 53.1383C53.1106 53.1383 53.8569 53.8845 53.8569 54.804C53.8569 55.7235 53.1106 56.4697 52.1911 56.4697C51.2716 56.4697 50.5254 55.7235 50.5254 54.804C50.5254 53.8845 51.2716 53.1383 52.1911 53.1383Z" fill="#FFFAEE"/>
<path d="M52.1912 61.9956C52.8703 61.9956 53.4209 62.5462 53.4209 63.2253C53.4209 63.9045 52.8703 64.4551 52.1912 64.4551C51.512 64.4551 50.9614 63.9045 50.9614 63.2253C50.9614 62.5462 51.512 61.9956 52.1912 61.9956Z" fill="#FFFAEE"/>
<path d="M60.1758 8.8574C62.2999 8.8574 64.0215 10.579 64.0215 12.7031C64.0215 14.8272 62.2999 16.5488 60.1758 16.5488C58.0517 16.5488 56.3301 14.8272 56.3301 12.7031C56.3301 10.579 58.0517 8.8574 60.1758 8.8574Z" fill="#FFFAEE"/>
<path d="M60.1758 17.7138C62.0596 17.7138 63.5855 19.2398 63.5855 21.1235C63.5855 23.0072 62.0596 24.5332 60.1758 24.5332C58.2921 24.5332 56.7661 23.0072 56.7661 21.1235C56.7661 19.2398 58.2921 17.7138 60.1758 17.7138Z" fill="#FFFAEE"/>
<path d="M60.1759 26.5711C61.8192 26.5711 63.1496 27.9015 63.1496 29.5448C63.1496 31.1882 61.8192 32.5186 60.1759 32.5186C58.5325 32.5186 57.2021 31.1882 57.2021 29.5448C57.2021 27.9015 58.5325 26.5711 60.1759 26.5711Z" fill="#FFFAEE"/>
<path d="M60.1759 35.4275C61.5789 35.4275 62.7136 36.565 62.7136 37.9652C62.7136 39.3654 61.5789 40.5029 60.1759 40.5029C58.7729 40.5029 57.6382 39.3654 57.6382 37.9652C57.6382 36.565 58.7757 35.4275 60.1759 35.4275Z" fill="#FFFAEE"/>
<path d="M60.1759 44.2848C61.3358 44.2848 62.2777 45.2267 62.2777 46.3866C62.2777 47.5464 61.3358 48.4883 60.1759 48.4883C59.0161 48.4883 58.0742 47.5464 58.0742 46.3866C58.0742 45.2267 59.0161 44.2848 60.1759 44.2848Z" fill="#FFFAEE"/>
<path d="M60.176 53.1383C61.0955 53.1383 61.8417 53.8845 61.8417 54.804C61.8417 55.7235 61.0955 56.4697 60.176 56.4697C59.2565 56.4697 58.5103 55.7235 58.5103 54.804C58.5103 53.8845 59.2565 53.1383 60.176 53.1383Z" fill="#FFFAEE"/>
<path d="M60.176 61.9956C60.8552 61.9956 61.4058 62.5462 61.4058 63.2253C61.4058 63.9045 60.8552 64.4551 60.176 64.4551C59.4969 64.4551 58.9463 63.9045 58.9463 63.2253C58.9463 62.5462 59.4969 61.9956 60.176 61.9956Z" fill="#FFFAEE"/>
<path d="M68.1275 8.8574C70.2515 8.8574 71.9732 10.579 71.9732 12.7031C71.9732 14.8272 70.2515 16.5488 68.1275 16.5488C66.0034 16.5488 64.2817 14.8272 64.2817 12.7031C64.2817 10.579 66.0034 8.8574 68.1275 8.8574Z" fill="#FFFAEE"/>
<path d="M68.1275 17.7138C70.0112 17.7138 71.5372 19.2398 71.5372 21.1235C71.5372 23.0072 70.0112 24.5332 68.1275 24.5332C66.2438 24.5332 64.7178 23.0072 64.7178 21.1235C64.7178 19.2398 66.2438 17.7138 68.1275 17.7138Z" fill="#FFFAEE"/>
<path d="M68.1275 26.5711C69.7709 26.5711 71.1013 27.9015 71.1013 29.5448C71.1013 31.1882 69.7709 32.5186 68.1275 32.5186C66.4842 32.5186 65.1538 31.1882 65.1538 29.5448C65.1538 27.9015 66.4842 26.5711 68.1275 26.5711Z" fill="#FFFAEE"/>
<path d="M68.1276 35.4275C69.5278 35.4275 70.6653 36.565 70.6653 37.9652C70.6653 39.3654 69.5278 40.5029 68.1276 40.5029C66.7273 40.5029 65.5898 39.3654 65.5898 37.9652C65.5898 36.565 66.7273 35.4275 68.1276 35.4275Z" fill="#FFFAEE"/>
<path d="M68.1271 44.2848C69.287 44.2848 70.2288 45.2267 70.2288 46.3866C70.2288 47.5464 69.287 48.4883 68.1271 48.4883C66.9673 48.4883 66.0254 47.5464 66.0254 46.3866C66.0254 45.2267 66.9673 44.2848 68.1271 44.2848Z" fill="#FFFAEE"/>
<path d="M68.1272 53.1383C69.0467 53.1383 69.7929 53.8845 69.7929 54.804C69.7929 55.7235 69.0467 56.4697 68.1272 56.4697C67.2076 56.4697 66.4614 55.7235 66.4614 54.804C66.4614 53.8845 67.2076 53.1383 68.1272 53.1383Z" fill="#FFFAEE"/>
<path d="M68.1272 61.9956C68.8063 61.9956 69.3569 62.5462 69.3569 63.2253C69.3569 63.9045 68.8063 64.4551 68.1272 64.4551C67.448 64.4551 66.8975 63.9045 66.8975 63.2253C66.8975 62.5462 67.448 61.9956 68.1272 61.9956Z" fill="#FFFAEE"/>
<path d="M76.1123 8.8574C78.2364 8.8574 79.958 10.579 79.958 12.7031C79.958 14.8272 78.2364 16.5488 76.1123 16.5488C73.9882 16.5488 72.2666 14.8272 72.2666 12.7031C72.2666 10.579 73.9882 8.8574 76.1123 8.8574Z" fill="#FFFAEE"/>
<path d="M76.1124 17.7138C77.9961 17.7138 79.5221 19.2398 79.5221 21.1235C79.5221 23.0072 77.9961 24.5332 76.1124 24.5332C74.2286 24.5332 72.7026 23.0072 72.7026 21.1235C72.7026 19.2398 74.2286 17.7138 76.1124 17.7138Z" fill="#FFFAEE"/>
<path d="M76.1124 26.5711C77.7558 26.5711 79.0861 27.9015 79.0861 29.5448C79.0861 31.1882 77.7558 32.5186 76.1124 32.5186C74.469 32.5186 73.1387 31.1882 73.1387 29.5448C73.1387 27.9015 74.469 26.5711 76.1124 26.5711Z" fill="#FFFAEE"/>
<path d="M76.1119 35.4275C77.515 35.4275 78.6497 36.565 78.6497 37.9652C78.6497 39.3654 77.5122 40.5029 76.1119 40.5029C74.7117 40.5029 73.5742 39.3654 73.5742 37.9652C73.5742 36.565 74.7117 35.4275 76.1119 35.4275Z" fill="#FFFAEE"/>
<path d="M76.112 44.2848C77.2718 44.2848 78.2137 45.2267 78.2137 46.3866C78.2137 47.5464 77.2718 48.4883 76.112 48.4883C74.9521 48.4883 74.0103 47.5464 74.0103 46.3866C74.0103 45.2267 74.9521 44.2848 76.112 44.2848Z" fill="#FFFAEE"/>
<path d="M76.112 53.1383C77.0315 53.1383 77.7778 53.8845 77.7778 54.804C77.7778 55.7235 77.0315 56.4697 76.112 56.4697C75.1925 56.4697 74.4463 55.7235 74.4463 54.804C74.4463 53.8845 75.1925 53.1383 76.112 53.1383Z" fill="#FFFAEE"/>
<path d="M76.1121 61.9956C76.7912 61.9956 77.3418 62.5462 77.3418 63.2253C77.3418 63.9045 76.7912 64.4551 76.1121 64.4551C75.4329 64.4551 74.8823 63.9045 74.8823 63.2253C74.8823 62.5462 75.4329 61.9956 76.1121 61.9956Z" fill="#FFFAEE"/>
<path d="M84.0972 8.8574C86.2213 8.8574 87.9429 10.579 87.9429 12.7031C87.9429 14.8272 86.2213 16.5488 84.0972 16.5488C81.9731 16.5488 80.2515 14.8272 80.2515 12.7031C80.2515 10.579 81.9731 8.8574 84.0972 8.8574Z" fill="#FFFAEE"/>
<path d="M84.0972 17.7138C85.9809 17.7138 87.5069 19.2398 87.5069 21.1235C87.5069 23.0072 85.9809 24.5332 84.0972 24.5332C82.2135 24.5332 80.6875 23.0072 80.6875 21.1235C80.6875 19.2398 82.2135 17.7138 84.0972 17.7138Z" fill="#FFFAEE"/>
<path d="M87.0747 29.391C87.1567 31.0313 85.8934 32.4275 84.2531 32.5094C82.6128 32.5914 81.2166 31.3281 81.1347 29.6878C81.0528 28.0475 82.3161 26.6513 83.9563 26.5694C85.5966 26.4875 86.9928 27.7507 87.0747 29.391Z" fill="#FFFAEE"/>
<path d="M84.0968 35.4275C85.4998 35.4275 86.6345 36.565 86.6345 37.9652C86.6345 39.3654 85.4998 40.5029 84.0968 40.5029C82.6938 40.5029 81.5591 39.3654 81.5591 37.9652C81.5591 36.565 82.6966 35.4275 84.0968 35.4275Z" fill="#FFFAEE"/>
<path d="M84.0968 44.2848C85.2567 44.2848 86.1986 45.2267 86.1986 46.3866C86.1986 47.5464 85.2567 48.4883 84.0968 48.4883C82.937 48.4883 81.9951 47.5464 81.9951 46.3866C81.9951 45.2267 82.937 44.2848 84.0968 44.2848Z" fill="#FFFAEE"/>
<path d="M84.0969 53.1383C85.0164 53.1383 85.7626 53.8845 85.7626 54.804C85.7626 55.7235 85.0164 56.4697 84.0969 56.4697C83.1774 56.4697 82.4312 55.7235 82.4312 54.804C82.4312 53.8845 83.1774 53.1383 84.0969 53.1383Z" fill="#FFFAEE"/>
<path d="M84.0969 61.9956C84.7761 61.9956 85.3267 62.5462 85.3267 63.2253C85.3267 63.9045 84.7761 64.4551 84.0969 64.4551C83.4178 64.4551 82.8672 63.9045 82.8672 63.2253C82.8672 62.5462 83.4178 61.9956 84.0969 61.9956Z" fill="#FFFAEE"/>
<path d="M92.085 8.8574C94.2091 8.8574 95.9307 10.579 95.9307 12.7031C95.9307 14.8272 94.2091 16.5488 92.085 16.5488C89.9609 16.5488 88.2393 14.8272 88.2393 12.7031C88.2393 10.579 89.9609 8.8574 92.085 8.8574Z" fill="#FFFAEE"/>
<path d="M92.0845 17.7138C93.9683 17.7138 95.4942 19.2398 95.4942 21.1235C95.4942 23.0072 93.9683 24.5332 92.0845 24.5332C90.2008 24.5332 88.6748 23.0072 88.6748 21.1235C88.6748 19.2398 90.2008 17.7138 92.0845 17.7138Z" fill="#FFFAEE"/>
<path d="M92.0846 26.5711C93.7269 26.5711 95.0583 27.9025 95.0583 29.5448C95.0583 31.1872 93.7269 32.5186 92.0846 32.5186C90.4422 32.5186 89.1108 31.1872 89.1108 29.5448C89.1108 27.9025 90.4422 26.5711 92.0846 26.5711Z" fill="#FFFAEE"/>
<path d="M92.0846 35.4275C93.4848 35.4275 94.6223 36.565 94.6223 37.9652C94.6223 39.3654 93.4848 40.5029 92.0846 40.5029C90.6844 40.5029 89.5469 39.3654 89.5469 37.9652C89.5469 36.565 90.6844 35.4275 92.0846 35.4275Z" fill="#FFFAEE"/>
<path d="M92.0846 44.2848C93.2445 44.2848 94.1864 45.2267 94.1864 46.3866C94.1864 47.5464 93.2445 48.4883 92.0846 48.4883C90.9248 48.4883 89.9829 47.5464 89.9829 46.3866C89.9829 45.2267 90.9248 44.2848 92.0846 44.2848Z" fill="#FFFAEE"/>
<path d="M92.0847 53.1383C93.0042 53.1383 93.7504 53.8845 93.7504 54.804C93.7504 55.7235 93.0042 56.4697 92.0847 56.4697C91.1652 56.4697 90.4189 55.7235 90.4189 54.804C90.4189 53.8845 91.1652 53.1383 92.0847 53.1383Z" fill="#FFFAEE"/>
<path d="M92.0847 61.9956C92.7639 61.9956 93.3145 62.5462 93.3145 63.2253C93.3145 63.9045 92.7639 64.4551 92.0847 64.4551C91.4056 64.4551 90.855 63.9045 90.855 63.2253C90.855 62.5462 91.4056 61.9956 92.0847 61.9956Z" fill="#FFFAEE"/>
<path d="M100.07 8.8574C102.194 8.8574 103.916 10.579 103.916 12.7031C103.916 14.8272 102.194 16.5488 100.07 16.5488C97.9457 16.5488 96.2241 14.8272 96.2241 12.7031C96.2241 10.579 97.9457 8.8574 100.07 8.8574Z" fill="#FFFAEE"/>
<path d="M100.07 17.7138C101.954 17.7138 103.48 19.2398 103.48 21.1235C103.48 23.0072 101.954 24.5332 100.07 24.5332C98.1861 24.5332 96.6602 23.0072 96.6602 21.1235C96.6602 19.2398 98.1861 17.7138 100.07 17.7138Z" fill="#FFFAEE"/>
<path d="M100.07 26.5711C101.713 26.5711 103.044 27.9015 103.044 29.5448C103.044 31.1882 101.713 32.5186 100.07 32.5186C98.4265 32.5186 97.0962 31.1882 97.0962 29.5448C97.0962 27.9015 98.4265 26.5711 100.07 26.5711Z" fill="#FFFAEE"/>
<path d="M100.07 35.4275C101.473 35.4275 102.608 36.565 102.608 37.9652C102.608 39.3654 101.47 40.5029 100.07 40.5029C98.6697 40.5029 97.5322 39.3654 97.5322 37.9652C97.5322 36.565 98.6669 35.4275 100.07 35.4275Z" fill="#FFFAEE"/>
<path d="M100.069 44.2848C101.229 44.2848 102.171 45.2267 102.171 46.3866C102.171 47.5464 101.229 48.4883 100.069 48.4883C98.9096 48.4883 97.9678 47.5464 97.9678 46.3866C97.9678 45.2267 98.9096 44.2848 100.069 44.2848Z" fill="#FFFAEE"/>
<path d="M100.07 53.1383C100.989 53.1383 101.735 53.8845 101.735 54.804C101.735 55.7235 100.989 56.4697 100.07 56.4697C99.15 56.4697 98.4038 55.7235 98.4038 54.804C98.4038 53.8845 99.15 53.1383 100.07 53.1383Z" fill="#FFFAEE"/>
<path d="M100.07 61.9956C100.749 61.9956 101.299 62.5462 101.299 63.2253C101.299 63.9045 100.749 64.4551 100.07 64.4551C99.3904 64.4551 98.8398 63.9045 98.8398 63.2253C98.8398 62.5462 99.3904 61.9956 100.07 61.9956Z" fill="#FFFAEE"/>
<path d="M108.055 8.8574C110.179 8.8574 111.9 10.579 111.9 12.7031C111.9 14.8272 110.179 16.5488 108.055 16.5488C105.931 16.5488 104.209 14.8272 104.209 12.7031C104.209 10.579 105.931 8.8574 108.055 8.8574Z" fill="#FFFAEE"/>
<path d="M108.055 17.7138C109.938 17.7138 111.464 19.2398 111.464 21.1235C111.464 23.0072 109.938 24.5332 108.055 24.5332C106.171 24.5332 104.645 23.0072 104.645 21.1235C104.645 19.2398 106.171 17.7138 108.055 17.7138Z" fill="#FFFAEE"/>
<path d="M108.055 26.5711C109.698 26.5711 111.028 27.9015 111.028 29.5448C111.028 31.1882 109.698 32.5186 108.055 32.5186C106.411 32.5186 105.081 31.1882 105.081 29.5448C105.081 27.9015 106.411 26.5711 108.055 26.5711Z" fill="#FFFAEE"/>
<path d="M108.054 35.4275C109.457 35.4275 110.592 36.565 110.592 37.9652C110.592 39.3654 109.455 40.5029 108.054 40.5029C106.654 40.5029 105.517 39.3654 105.517 37.9652C105.517 36.565 106.654 35.4275 108.054 35.4275Z" fill="#FFFAEE"/>
<path d="M108.054 44.2848C109.214 44.2848 110.156 45.2267 110.156 46.3866C110.156 47.5464 109.214 48.4883 108.054 48.4883C106.894 48.4883 105.953 47.5464 105.953 46.3866C105.953 45.2267 106.894 44.2848 108.054 44.2848Z" fill="#FFFAEE"/>
<path d="M108.054 53.1383C108.974 53.1383 109.72 53.8845 109.72 54.804C109.72 55.7235 108.974 56.4697 108.054 56.4697C107.135 56.4697 106.389 55.7235 106.389 54.804C106.389 53.8845 107.135 53.1383 108.054 53.1383Z" fill="#FFFAEE"/>
<path d="M108.054 61.9956C108.734 61.9956 109.284 62.5462 109.284 63.2253C109.284 63.9045 108.734 64.4551 108.054 64.4551C107.375 64.4551 106.825 63.9045 106.825 63.2253C106.825 62.5462 107.375 61.9956 108.054 61.9956Z" fill="#FFFAEE"/>
<path d="M116.04 8.8574C118.164 8.8574 119.885 10.579 119.885 12.7031C119.885 14.8272 118.164 16.5488 116.04 16.5488C113.915 16.5488 112.194 14.8272 112.194 12.7031C112.194 10.579 113.915 8.8574 116.04 8.8574Z" fill="#FFFAEE"/>
<path d="M116.04 17.7138C117.923 17.7138 119.449 19.2398 119.449 21.1235C119.449 23.0072 117.923 24.5332 116.04 24.5332C114.156 24.5332 112.63 23.0072 112.63 21.1235C112.63 19.2398 114.156 17.7138 116.04 17.7138Z" fill="#FFFAEE"/>
<path d="M116.039 26.5711C117.683 26.5711 119.013 27.9015 119.013 29.5448C119.013 31.1882 117.683 32.5186 116.039 32.5186C114.396 32.5186 113.065 31.1882 113.065 29.5448C113.065 27.9015 114.396 26.5711 116.039 26.5711Z" fill="#FFFAEE"/>
<path d="M116.039 35.4275C117.442 35.4275 118.577 36.565 118.577 37.9652C118.577 39.3654 117.442 40.5029 116.039 40.5029C114.636 40.5029 113.501 39.3654 113.501 37.9652C113.501 36.565 114.639 35.4275 116.039 35.4275Z" fill="#FFFAEE"/>
<path d="M116.039 44.2848C117.199 44.2848 118.141 45.2267 118.141 46.3866C118.141 47.5464 117.199 48.4883 116.039 48.4883C114.879 48.4883 113.938 47.5464 113.938 46.3866C113.938 45.2267 114.879 44.2848 116.039 44.2848Z" fill="#FFFAEE"/>
<path d="M116.039 53.1383C116.959 53.1383 117.705 53.8845 117.705 54.804C117.705 55.7235 116.959 56.4697 116.039 56.4697C115.12 56.4697 114.374 55.7235 114.374 54.804C114.374 53.8845 115.12 53.1383 116.039 53.1383Z" fill="#FFFAEE"/>
<path d="M116.039 61.9956C116.718 61.9956 117.269 62.5462 117.269 63.2253C117.269 63.9045 116.718 64.4551 116.039 64.4551C115.36 64.4551 114.81 63.9045 114.81 63.2253C114.81 62.5462 115.36 61.9956 116.039 61.9956Z" fill="#FFFAEE"/>
<path d="M124.024 8.8574C126.149 8.8574 127.87 10.579 127.87 12.7031C127.87 14.8272 126.149 16.5488 124.024 16.5488C121.9 16.5488 120.179 14.8272 120.179 12.7031C120.179 10.579 121.9 8.8574 124.024 8.8574Z" fill="#FFFAEE"/>
<path d="M124.024 17.7138C125.908 17.7138 127.434 19.2398 127.434 21.1235C127.434 23.0072 125.908 24.5332 124.024 24.5332C122.141 24.5332 120.615 23.0072 120.615 21.1235C120.615 19.2398 122.141 17.7138 124.024 17.7138Z" fill="#FFFAEE"/>
<path d="M124.025 26.5711C125.668 26.5711 126.998 27.9015 126.998 29.5448C126.998 31.1882 125.668 32.5186 124.025 32.5186C122.381 32.5186 121.051 31.1882 121.051 29.5448C121.051 27.9015 122.381 26.5711 124.025 26.5711Z" fill="#FFFAEE"/>
<path d="M124.025 35.4275C125.428 35.4275 126.562 36.565 126.562 37.9652C126.562 39.3654 125.425 40.5029 124.025 40.5029C122.624 40.5029 121.487 39.3654 121.487 37.9652C121.487 36.565 122.624 35.4275 124.025 35.4275Z" fill="#FFFAEE"/>
<path d="M124.025 44.2848C125.184 44.2848 126.126 45.2267 126.126 46.3866C126.126 47.5464 125.184 48.4883 124.025 48.4883C122.865 48.4883 121.923 47.5464 121.923 46.3866C121.923 45.2267 122.865 44.2848 124.025 44.2848Z" fill="#FFFAEE"/>
<path d="M124.024 53.1383C124.944 53.1383 125.69 53.8845 125.69 54.804C125.69 55.7235 124.944 56.4697 124.024 56.4697C123.105 56.4697 122.358 55.7235 122.358 54.804C122.358 53.8845 123.105 53.1383 124.024 53.1383Z" fill="#FFFAEE"/>
<path d="M124.024 61.9956C124.703 61.9956 125.254 62.5462 125.254 63.2253C125.254 63.9045 124.703 64.4551 124.024 64.4551C123.345 64.4551 122.794 63.9045 122.794 63.2253C122.794 62.5462 123.345 61.9956 124.024 61.9956Z" fill="#FFFAEE"/>
<path d="M131.976 8.8574C134.1 8.8574 135.821 10.579 135.821 12.7031C135.821 14.8272 134.1 16.5488 131.976 16.5488C129.852 16.5488 128.13 14.8272 128.13 12.7031C128.13 10.579 129.852 8.8574 131.976 8.8574Z" fill="#FFFAEE"/>
<path d="M131.976 17.7138C133.859 17.7138 135.385 19.2398 135.385 21.1235C135.385 23.0072 133.859 24.5332 131.976 24.5332C130.092 24.5332 128.566 23.0072 128.566 21.1235C128.566 19.2398 130.092 17.7138 131.976 17.7138Z" fill="#FFFAEE"/>
<path d="M131.976 26.5711C133.619 26.5711 134.949 27.9015 134.949 29.5448C134.949 31.1882 133.619 32.5186 131.976 32.5186C130.332 32.5186 129.002 31.1882 129.002 29.5448C129.002 27.9015 130.332 26.5711 131.976 26.5711Z" fill="#FFFAEE"/>
<path d="M131.976 35.4275C133.376 35.4275 134.513 36.565 134.513 37.9652C134.513 39.3654 133.376 40.5029 131.976 40.5029C130.575 40.5029 129.438 39.3654 129.438 37.9652C129.438 36.565 130.575 35.4275 131.976 35.4275Z" fill="#FFFAEE"/>
<path d="M131.976 44.2848C133.136 44.2848 134.077 45.2267 134.077 46.3866C134.077 47.5464 133.136 48.4883 131.976 48.4883C130.816 48.4883 129.874 47.5464 129.874 46.3866C129.874 45.2267 130.816 44.2848 131.976 44.2848Z" fill="#FFFAEE"/>
<path d="M131.976 53.1383C132.895 53.1383 133.642 53.8845 133.642 54.804C133.642 55.7235 132.895 56.4697 131.976 56.4697C131.056 56.4697 130.31 55.7235 130.31 54.804C130.31 53.8845 131.056 53.1383 131.976 53.1383Z" fill="#FFFAEE"/>
<path d="M131.976 61.9956C132.655 61.9956 133.206 62.5462 133.206 63.2253C133.206 63.9045 132.655 64.4551 131.976 64.4551C131.297 64.4551 130.746 63.9045 130.746 63.2253C130.746 62.5462 131.297 61.9956 131.976 61.9956Z" fill="#FFFAEE"/>
<path d="M139.96 8.8574C142.085 8.8574 143.806 10.579 143.806 12.7031C143.806 14.8272 142.085 16.5488 139.96 16.5488C137.836 16.5488 136.115 14.8272 136.115 12.7031C136.115 10.579 137.836 8.8574 139.96 8.8574Z" fill="#FFFAEE"/>
<path d="M139.961 17.7138C141.844 17.7138 143.37 19.2398 143.37 21.1235C143.37 23.0072 141.844 24.5332 139.961 24.5332C138.077 24.5332 136.551 23.0072 136.551 21.1235C136.551 19.2398 138.077 17.7138 139.961 17.7138Z" fill="#FFFAEE"/>
<path d="M139.961 26.5711C141.604 26.5711 142.934 27.9015 142.934 29.5448C142.934 31.1882 141.604 32.5186 139.961 32.5186C138.317 32.5186 136.987 31.1882 136.987 29.5448C136.987 27.9015 138.317 26.5711 139.961 26.5711Z" fill="#FFFAEE"/>
<path d="M139.961 35.4275C141.364 35.4275 142.498 36.565 142.498 37.9652C142.498 39.3654 141.364 40.5029 139.961 40.5029C138.558 40.5029 137.423 39.3654 137.423 37.9652C137.423 36.565 138.56 35.4275 139.961 35.4275Z" fill="#FFFAEE"/>
<path d="M139.961 44.2848C141.12 44.2848 142.062 45.2267 142.062 46.3866C142.062 47.5464 141.12 48.4883 139.961 48.4883C138.801 48.4883 137.859 47.5464 137.859 46.3866C137.859 45.2267 138.801 44.2848 139.961 44.2848Z" fill="#FFFAEE"/>
<path d="M139.961 53.1383C140.88 53.1383 141.626 53.8845 141.626 54.804C141.626 55.7235 140.88 56.4697 139.961 56.4697C139.041 56.4697 138.295 55.7235 138.295 54.804C138.295 53.8845 139.041 53.1383 139.961 53.1383Z" fill="#FFFAEE"/>
<path d="M139.961 61.9956C140.64 61.9956 141.19 62.5462 141.19 63.2253C141.19 63.9045 140.64 64.4551 139.961 64.4551C139.282 64.4551 138.731 63.9045 138.731 63.2253C138.731 62.5462 139.282 61.9956 139.961 61.9956Z" fill="#FFFAEE"/>
<path d="M147.945 8.8574C150.069 8.8574 151.791 10.579 151.791 12.7031C151.791 14.8272 150.069 16.5488 147.945 16.5488C145.821 16.5488 144.1 14.8272 144.1 12.7031C144.1 10.579 145.821 8.8574 147.945 8.8574Z" fill="#FFFAEE"/>
<path d="M147.945 17.7138C149.829 17.7138 151.355 19.2398 151.355 21.1235C151.355 23.0072 149.829 24.5332 147.945 24.5332C146.062 24.5332 144.536 23.0072 144.536 21.1235C144.536 19.2398 146.062 17.7138 147.945 17.7138Z" fill="#FFFAEE"/>
<path d="M147.945 26.5711C149.588 26.5711 150.919 27.9025 150.919 29.5448C150.919 31.1872 149.588 32.5186 147.945 32.5186C146.303 32.5186 144.972 31.1872 144.972 29.5448C144.972 27.9025 146.303 26.5711 147.945 26.5711Z" fill="#FFFAEE"/>
<path d="M147.945 35.4275C149.348 35.4275 150.483 36.565 150.483 37.9652C150.483 39.3654 149.346 40.5029 147.945 40.5029C146.545 40.5029 145.408 39.3654 145.408 37.9652C145.408 36.565 146.545 35.4275 147.945 35.4275Z" fill="#FFFAEE"/>
<path d="M147.945 44.2848C149.105 44.2848 150.047 45.2267 150.047 46.3866C150.047 47.5464 149.105 48.4883 147.945 48.4883C146.786 48.4883 145.844 47.5464 145.844 46.3866C145.844 45.2267 146.786 44.2848 147.945 44.2848Z" fill="#FFFAEE"/>
<path d="M147.946 53.1383C148.865 53.1383 149.611 53.8845 149.611 54.804C149.611 55.7235 148.865 56.4697 147.946 56.4697C147.026 56.4697 146.28 55.7235 146.28 54.804C146.28 53.8845 147.026 53.1383 147.946 53.1383Z" fill="#FFFAEE"/>
<path d="M147.946 61.9956C148.625 61.9956 149.175 62.5462 149.175 63.2253C149.175 63.9045 148.625 64.4551 147.946 64.4551C147.266 64.4551 146.716 63.9045 146.716 63.2253C146.716 62.5462 147.266 61.9956 147.946 61.9956Z" fill="#FFFAEE"/>
<path d="M155.93 8.8574C158.054 8.8574 159.776 10.579 159.776 12.7031C159.776 14.8272 158.054 16.5488 155.93 16.5488C153.806 16.5488 152.084 14.8272 152.084 12.7031C152.084 10.579 153.806 8.8574 155.93 8.8574Z" fill="#FFFAEE"/>
<path d="M155.93 17.7138C157.814 17.7138 159.34 19.2398 159.34 21.1235C159.34 23.0072 157.814 24.5332 155.93 24.5332C154.047 24.5332 152.521 23.0072 152.521 21.1235C152.521 19.2398 154.047 17.7138 155.93 17.7138Z" fill="#FFFAEE"/>
<path d="M155.93 26.5711C157.574 26.5711 158.904 27.9015 158.904 29.5448C158.904 31.1882 157.574 32.5186 155.93 32.5186C154.287 32.5186 152.957 31.1882 152.957 29.5448C152.957 27.9015 154.287 26.5711 155.93 26.5711Z" fill="#FFFAEE"/>
<path d="M155.93 35.4275C157.331 35.4275 158.468 36.565 158.468 37.9652C158.468 39.3654 157.331 40.5029 155.93 40.5029C154.53 40.5029 153.393 39.3654 153.393 37.9652C153.393 36.565 154.527 35.4275 155.93 35.4275Z" fill="#FFFAEE"/>
<path d="M155.93 44.2848C157.09 44.2848 158.032 45.2267 158.032 46.3866C158.032 47.5464 157.09 48.4883 155.93 48.4883C154.77 48.4883 153.829 47.5464 153.829 46.3866C153.829 45.2267 154.77 44.2848 155.93 44.2848Z" fill="#FFFAEE"/>
<path d="M155.93 53.1383C156.85 53.1383 157.596 53.8845 157.596 54.804C157.596 55.7235 156.85 56.4697 155.93 56.4697C155.011 56.4697 154.265 55.7235 154.265 54.804C154.265 53.8845 155.011 53.1383 155.93 53.1383Z" fill="#FFFAEE"/>
<path d="M155.93 61.9956C156.61 61.9956 157.16 62.5462 157.16 63.2253C157.16 63.9045 156.61 64.4551 155.93 64.4551C155.251 64.4551 154.701 63.9045 154.701 63.2253C154.701 62.5462 155.251 61.9956 155.93 61.9956Z" fill="#FFFAEE"/>
<path d="M163.915 8.8574C166.039 8.8574 167.761 10.579 167.761 12.7031C167.761 14.8272 166.039 16.5488 163.915 16.5488C161.791 16.5488 160.069 14.8272 160.069 12.7031C160.069 10.579 161.791 8.8574 163.915 8.8574Z" fill="#FFFAEE"/>
<path d="M163.915 17.7138C165.799 17.7138 167.325 19.2398 167.325 21.1235C167.325 23.0072 165.799 24.5332 163.915 24.5332C162.031 24.5332 160.505 23.0072 160.505 21.1235C160.505 19.2398 162.031 17.7138 163.915 17.7138Z" fill="#FFFAEE"/>
<path d="M163.915 26.5711C165.559 26.5711 166.889 27.9015 166.889 29.5448C166.889 31.1882 165.559 32.5186 163.915 32.5186C162.272 32.5186 160.941 31.1882 160.941 29.5448C160.941 27.9015 162.272 26.5711 163.915 26.5711Z" fill="#FFFAEE"/>
<path d="M163.915 35.4275C165.318 35.4275 166.453 36.565 166.453 37.9652C166.453 39.3654 165.315 40.5029 163.915 40.5029C162.515 40.5029 161.377 39.3654 161.377 37.9652C161.377 36.565 162.515 35.4275 163.915 35.4275Z" fill="#FFFAEE"/>
<path d="M163.915 44.2848C165.075 44.2848 166.017 45.2267 166.017 46.3866C166.017 47.5464 165.075 48.4883 163.915 48.4883C162.755 48.4883 161.813 47.5464 161.813 46.3866C161.813 45.2267 162.755 44.2848 163.915 44.2848Z" fill="#FFFAEE"/>
<path d="M163.915 53.1383C164.835 53.1383 165.581 53.8845 165.581 54.804C165.581 55.7235 164.835 56.4697 163.915 56.4697C162.996 56.4697 162.25 55.7235 162.25 54.804C162.25 53.8845 162.996 53.1383 163.915 53.1383Z" fill="#FFFAEE"/>
<path d="M163.915 61.9956C164.594 61.9956 165.145 62.5462 165.145 63.2253C165.145 63.9045 164.594 64.4551 163.915 64.4551C163.236 64.4551 162.686 63.9045 162.686 63.2253C162.686 62.5462 163.236 61.9956 163.915 61.9956Z" fill="#FFFAEE"/>
<path d="M171.9 8.8574C174.024 8.8574 175.746 10.579 175.746 12.7031C175.746 14.8272 174.024 16.5488 171.9 16.5488C169.776 16.5488 168.054 14.8272 168.054 12.7031C168.054 10.579 169.776 8.8574 171.9 8.8574Z" fill="#FFFAEE"/>
<path d="M171.9 17.7138C173.784 17.7138 175.31 19.2398 175.31 21.1235C175.31 23.0072 173.784 24.5332 171.9 24.5332C170.016 24.5332 168.49 23.0072 168.49 21.1235C168.49 19.2398 170.016 17.7138 171.9 17.7138Z" fill="#FFFAEE"/>
<path d="M171.9 26.5711C173.543 26.5711 174.874 27.9015 174.874 29.5448C174.874 31.1882 173.543 32.5186 171.9 32.5186C170.257 32.5186 168.926 31.1882 168.926 29.5448C168.926 27.9015 170.257 26.5711 171.9 26.5711Z" fill="#FFFAEE"/>
<path d="M171.9 35.4275C173.303 35.4275 174.438 36.565 174.438 37.9652C174.438 39.3654 173.303 40.5029 171.9 40.5029C170.497 40.5029 169.362 39.3654 169.362 37.9652C169.362 36.565 170.5 35.4275 171.9 35.4275Z" fill="#FFFAEE"/>
<path d="M171.9 44.2848C173.06 44.2848 174.002 45.2267 174.002 46.3866C174.002 47.5464 173.06 48.4883 171.9 48.4883C170.74 48.4883 169.798 47.5464 169.798 46.3866C169.798 45.2267 170.74 44.2848 171.9 44.2848Z" fill="#FFFAEE"/>
<path d="M171.9 53.1383C172.82 53.1383 173.566 53.8845 173.566 54.804C173.566 55.7235 172.82 56.4697 171.9 56.4697C170.981 56.4697 170.234 55.7235 170.234 54.804C170.234 53.8845 170.981 53.1383 171.9 53.1383Z" fill="#FFFAEE"/>
<path d="M171.9 61.9956C172.579 61.9956 173.13 62.5462 173.13 63.2253C173.13 63.9045 172.579 64.4551 171.9 64.4551C171.221 64.4551 170.67 63.9045 170.67 63.2253C170.67 62.5462 171.221 61.9956 171.9 61.9956Z" fill="#FFFAEE"/>
<path d="M179.885 8.8574C182.009 8.8574 183.731 10.579 183.731 12.7031C183.731 14.8272 182.009 16.5488 179.885 16.5488C177.761 16.5488 176.04 14.8272 176.04 12.7031C176.04 10.579 177.761 8.8574 179.885 8.8574Z" fill="#FFFAEE"/>
<path d="M179.885 17.7138C181.769 17.7138 183.295 19.2398 183.295 21.1235C183.295 23.0072 181.769 24.5332 179.885 24.5332C178.002 24.5332 176.476 23.0072 176.476 21.1235C176.476 19.2398 178.002 17.7138 179.885 17.7138Z" fill="#FFFAEE"/>
<path d="M179.885 26.5711C181.528 26.5711 182.859 27.9015 182.859 29.5448C182.859 31.1882 181.528 32.5186 179.885 32.5186C178.241 32.5186 176.911 31.1882 176.911 29.5448C176.911 27.9015 178.241 26.5711 179.885 26.5711Z" fill="#FFFAEE"/>
<path d="M179.885 35.4275C181.288 35.4275 182.423 36.565 182.423 37.9652C182.423 39.3654 181.285 40.5029 179.885 40.5029C178.485 40.5029 177.347 39.3654 177.347 37.9652C177.347 36.565 178.485 35.4275 179.885 35.4275Z" fill="#FFFAEE"/>
<path d="M179.885 44.2848C181.045 44.2848 181.987 45.2267 181.987 46.3866C181.987 47.5464 181.045 48.4883 179.885 48.4883C178.725 48.4883 177.783 47.5464 177.783 46.3866C177.783 45.2267 178.725 44.2848 179.885 44.2848Z" fill="#FFFAEE"/>
<path d="M179.885 53.1383C180.804 53.1383 181.551 53.8845 181.551 54.804C181.551 55.7235 180.804 56.4697 179.885 56.4697C178.965 56.4697 178.219 55.7235 178.219 54.804C178.219 53.8845 178.965 53.1383 179.885 53.1383Z" fill="#FFFAEE"/>
<path d="M179.885 61.9956C180.564 61.9956 181.115 62.5462 181.115 63.2253C181.115 63.9045 180.564 64.4551 179.885 64.4551C179.206 64.4551 178.655 63.9045 178.655 63.2253C178.655 62.5462 179.206 61.9956 179.885 61.9956Z" fill="#FFFAEE"/>
<path d="M187.873 8.8574C189.997 8.8574 191.718 10.579 191.718 12.7031C191.718 14.8272 189.997 16.5488 187.873 16.5488C185.748 16.5488 184.027 14.8272 184.027 12.7031C184.027 10.579 185.748 8.8574 187.873 8.8574Z" fill="#FFFAEE"/>
<path d="M187.873 17.7138C189.756 17.7138 191.282 19.2398 191.282 21.1235C191.282 23.0072 189.756 24.5332 187.873 24.5332C185.989 24.5332 184.463 23.0072 184.463 21.1235C184.463 19.2398 185.989 17.7138 187.873 17.7138Z" fill="#FFFAEE"/>
<path d="M187.873 26.5711C189.516 26.5711 190.846 27.9015 190.846 29.5448C190.846 31.1882 189.516 32.5186 187.873 32.5186C186.229 32.5186 184.899 31.1882 184.899 29.5448C184.899 27.9015 186.229 26.5711 187.873 26.5711Z" fill="#FFFAEE"/>
<path d="M187.873 35.4275C189.276 35.4275 190.41 36.565 190.41 37.9652C190.41 39.3654 189.273 40.5029 187.873 40.5029C186.472 40.5029 185.335 39.3654 185.335 37.9652C185.335 36.565 186.472 35.4275 187.873 35.4275Z" fill="#FFFAEE"/>
<path d="M187.873 44.2848C189.033 44.2848 189.974 45.2267 189.974 46.3866C189.974 47.5464 189.033 48.4883 187.873 48.4883C186.713 48.4883 185.771 47.5464 185.771 46.3866C185.771 45.2267 186.713 44.2848 187.873 44.2848Z" fill="#FFFAEE"/>
<path d="M187.873 53.1383C188.792 53.1383 189.538 53.8845 189.538 54.804C189.538 55.7235 188.792 56.4697 187.873 56.4697C186.953 56.4697 186.207 55.7235 186.207 54.804C186.207 53.8845 186.953 53.1383 187.873 53.1383Z" fill="#FFFAEE"/>
<path d="M187.873 61.9956C188.552 61.9956 189.103 62.5462 189.103 63.2253C189.103 63.9045 188.552 64.4551 187.873 64.4551C187.194 64.4551 186.643 63.9045 186.643 63.2253C186.643 62.5462 187.194 61.9956 187.873 61.9956Z" fill="#FFFAEE"/>
<path d="M195.824 8.8574C197.948 8.8574 199.67 10.579 199.67 12.7031C199.67 14.8272 197.948 16.5488 195.824 16.5488C193.7 16.5488 191.979 14.8272 191.979 12.7031C191.979 10.579 193.7 8.8574 195.824 8.8574Z" fill="#FFFAEE"/>
<path d="M195.824 17.7138C197.708 17.7138 199.234 19.2398 199.234 21.1235C199.234 23.0072 197.708 24.5332 195.824 24.5332C193.941 24.5332 192.415 23.0072 192.415 21.1235C192.415 19.2398 193.941 17.7138 195.824 17.7138Z" fill="#FFFAEE"/>
<path d="M195.824 26.5711C197.468 26.5711 198.798 27.9015 198.798 29.5448C198.798 31.1882 197.468 32.5186 195.824 32.5186C194.181 32.5186 192.851 31.1882 192.851 29.5448C192.851 27.9015 194.181 26.5711 195.824 26.5711Z" fill="#FFFAEE"/>
<path d="M195.824 35.4275C197.224 35.4275 198.362 36.565 198.362 37.9652C198.362 39.3654 197.227 40.5029 195.824 40.5029C194.421 40.5029 193.286 39.3654 193.286 37.9652C193.286 36.565 194.424 35.4275 195.824 35.4275Z" fill="#FFFAEE"/>
<path d="M195.824 44.2848C196.984 44.2848 197.926 45.2267 197.926 46.3866C197.926 47.5464 196.984 48.4883 195.824 48.4883C194.664 48.4883 193.722 47.5464 193.722 46.3866C193.722 45.2267 194.664 44.2848 195.824 44.2848Z" fill="#FFFAEE"/>
<path d="M195.824 53.1383C196.743 53.1383 197.49 53.8845 197.49 54.804C197.49 55.7235 196.743 56.4697 195.824 56.4697C194.904 56.4697 194.158 55.7235 194.158 54.804C194.158 53.8845 194.904 53.1383 195.824 53.1383Z" fill="#FFFAEE"/>
<path d="M195.824 61.9956C196.503 61.9956 197.054 62.5462 197.054 63.2253C197.054 63.9045 196.503 64.4551 195.824 64.4551C195.145 64.4551 194.594 63.9045 194.594 63.2253C194.594 62.5462 195.145 61.9956 195.824 61.9956Z" fill="#FFFAEE"/>
<path d="M203.809 8.8574C205.933 8.8574 207.655 10.579 207.655 12.7031C207.655 14.8272 205.933 16.5488 203.809 16.5488C201.685 16.5488 199.963 14.8272 199.963 12.7031C199.963 10.579 201.685 8.8574 203.809 8.8574Z" fill="#FFFAEE"/>
<path d="M203.809 17.7138C205.693 17.7138 207.219 19.2398 207.219 21.1235C207.219 23.0072 205.693 24.5332 203.809 24.5332C201.925 24.5332 200.399 23.0072 200.399 21.1235C200.399 19.2398 201.925 17.7138 203.809 17.7138Z" fill="#FFFAEE"/>
<path d="M203.809 26.5711C205.452 26.5711 206.782 27.9015 206.782 29.5448C206.782 31.1882 205.452 32.5186 203.809 32.5186C202.165 32.5186 200.835 31.1882 200.835 29.5448C200.835 27.9015 202.165 26.5711 203.809 26.5711Z" fill="#FFFAEE"/>
<path d="M203.809 35.4275C205.212 35.4275 206.346 36.565 206.346 37.9652C206.346 39.3654 205.209 40.5029 203.809 40.5029C202.408 40.5029 201.271 39.3654 201.271 37.9652C201.271 36.565 202.408 35.4275 203.809 35.4275Z" fill="#FFFAEE"/>
<path d="M203.809 44.2848C204.969 44.2848 205.91 45.2267 205.91 46.3866C205.91 47.5464 204.969 48.4883 203.809 48.4883C202.649 48.4883 201.707 47.5464 201.707 46.3866C201.707 45.2267 202.649 44.2848 203.809 44.2848Z" fill="#FFFAEE"/>
<path d="M203.809 53.1383C204.728 53.1383 205.475 53.8845 205.475 54.804C205.475 55.7235 204.728 56.4697 203.809 56.4697C202.889 56.4697 202.143 55.7235 202.143 54.804C202.143 53.8845 202.889 53.1383 203.809 53.1383Z" fill="#FFFAEE"/>
<path d="M203.809 61.9956C204.488 61.9956 205.039 62.5462 205.039 63.2253C205.039 63.9045 204.488 64.4551 203.809 64.4551C203.13 64.4551 202.579 63.9045 202.579 63.2253C202.579 62.5462 203.13 61.9956 203.809 61.9956Z" fill="#FFFAEE"/>
<path d="M211.794 8.8574C213.918 8.8574 215.64 10.579 215.64 12.7031C215.64 14.8272 213.918 16.5488 211.794 16.5488C209.67 16.5488 207.948 14.8272 207.948 12.7031C207.948 10.579 209.67 8.8574 211.794 8.8574Z" fill="#FFFAEE"/>
<path d="M211.794 17.7138C213.678 17.7138 215.204 19.2398 215.204 21.1235C215.204 23.0072 213.678 24.5332 211.794 24.5332C209.91 24.5332 208.384 23.0072 208.384 21.1235C208.384 19.2398 209.91 17.7138 211.794 17.7138Z" fill="#FFFAEE"/>
<path d="M211.915 26.5669C213.556 26.6351 214.831 28.0206 214.763 29.6616C214.695 31.3025 213.309 32.5774 211.668 32.5092C210.028 32.441 208.753 31.0555 208.821 29.4146C208.889 27.7737 210.274 26.4987 211.915 26.5669Z" fill="#FFFAEE"/>
<path d="M211.794 35.4275C213.197 35.4275 214.331 36.565 214.331 37.9652C214.331 39.3654 213.194 40.5029 211.794 40.5029C210.393 40.5029 209.256 39.3654 209.256 37.9652C209.256 36.565 210.393 35.4275 211.794 35.4275Z" fill="#FFFAEE"/>
<path d="M211.794 44.2848C212.954 44.2848 213.896 45.2267 213.896 46.3866C213.896 47.5464 212.954 48.4883 211.794 48.4883C210.634 48.4883 209.692 47.5464 209.692 46.3866C209.692 45.2267 210.634 44.2848 211.794 44.2848Z" fill="#FFFAEE"/>
<path d="M211.794 53.1383C212.713 53.1383 213.459 53.8845 213.459 54.804C213.459 55.7235 212.713 56.4697 211.794 56.4697C210.874 56.4697 210.128 55.7235 210.128 54.804C210.128 53.8845 210.874 53.1383 211.794 53.1383Z" fill="#FFFAEE"/>
<path d="M211.794 61.9956C212.473 61.9956 213.023 62.5462 213.023 63.2253C213.023 63.9045 212.473 64.4551 211.794 64.4551C211.115 64.4551 210.564 63.9045 210.564 63.2253C210.564 62.5462 211.115 61.9956 211.794 61.9956Z" fill="#FFFAEE"/>
<path d="M219.779 8.8574C221.903 8.8574 223.625 10.579 223.625 12.7031C223.625 14.8272 221.903 16.5488 219.779 16.5488C217.655 16.5488 215.933 14.8272 215.933 12.7031C215.933 10.579 217.655 8.8574 219.779 8.8574Z" fill="#FFFAEE"/>
<path d="M219.779 17.7138C221.663 17.7138 223.189 19.2398 223.189 21.1235C223.189 23.0072 221.663 24.5332 219.779 24.5332C217.895 24.5332 216.369 23.0072 216.369 21.1235C216.369 19.2398 217.895 17.7138 219.779 17.7138Z" fill="#FFFAEE"/>
<path d="M219.779 26.5711C221.422 26.5711 222.753 27.9015 222.753 29.5448C222.753 31.1882 221.422 32.5186 219.779 32.5186C218.136 32.5186 216.805 31.1882 216.805 29.5448C216.805 27.9015 218.136 26.5711 219.779 26.5711Z" fill="#FFFAEE"/>
<path d="M219.779 35.4275C221.179 35.4275 222.317 36.565 222.317 37.9652C222.317 39.3654 221.179 40.5029 219.779 40.5029C218.379 40.5029 217.241 39.3654 217.241 37.9652C217.241 36.565 218.379 35.4275 219.779 35.4275Z" fill="#FFFAEE"/>
<path d="M219.779 44.2848C220.939 44.2848 221.881 45.2267 221.881 46.3866C221.881 47.5464 220.939 48.4883 219.779 48.4883C218.619 48.4883 217.677 47.5464 217.677 46.3866C217.677 45.2267 218.619 44.2848 219.779 44.2848Z" fill="#FFFAEE"/>
<path d="M219.779 53.1383C220.699 53.1383 221.445 53.8845 221.445 54.804C221.445 55.7235 220.699 56.4697 219.779 56.4697C218.86 56.4697 218.113 55.7235 218.113 54.804C218.113 53.8845 218.86 53.1383 219.779 53.1383Z" fill="#FFFAEE"/>
<path d="M219.779 61.9956C220.458 61.9956 221.008 62.5462 221.008 63.2253C221.008 63.9045 220.458 64.4551 219.779 64.4551C219.099 64.4551 218.549 63.9045 218.549 63.2253C218.549 62.5462 219.099 61.9956 219.779 61.9956Z" fill="#FFFAEE"/>
<path d="M227.764 8.8574C229.888 8.8574 231.609 10.579 231.609 12.7031C231.609 14.8272 229.888 16.5488 227.764 16.5488C225.64 16.5488 223.918 14.8272 223.918 12.7031C223.918 10.579 225.64 8.8574 227.764 8.8574Z" fill="#FFFAEE"/>
<path d="M227.764 17.7138C229.647 17.7138 231.173 19.2398 231.173 21.1235C231.173 23.0072 229.647 24.5332 227.764 24.5332C225.88 24.5332 224.354 23.0072 224.354 21.1235C224.354 19.2398 225.88 17.7138 227.764 17.7138Z" fill="#FFFAEE"/>
<path d="M227.764 26.5711C229.407 26.5711 230.737 27.9015 230.737 29.5448C230.737 31.1882 229.407 32.5186 227.764 32.5186C226.12 32.5186 224.79 31.1882 224.79 29.5448C224.79 27.9015 226.12 26.5711 227.764 26.5711Z" fill="#FFFAEE"/>
<path d="M227.764 35.4275C229.167 35.4275 230.302 36.565 230.302 37.9652C230.302 39.3654 229.164 40.5029 227.764 40.5029C226.364 40.5029 225.226 39.3654 225.226 37.9652C225.226 36.565 226.364 35.4275 227.764 35.4275Z" fill="#FFFAEE"/>
<path d="M227.764 44.2848C228.924 44.2848 229.866 45.2267 229.866 46.3866C229.866 47.5464 228.924 48.4883 227.764 48.4883C226.604 48.4883 225.662 47.5464 225.662 46.3866C225.662 45.2267 226.604 44.2848 227.764 44.2848Z" fill="#FFFAEE"/>
<path d="M227.763 53.1383C228.683 53.1383 229.429 53.8845 229.429 54.804C229.429 55.7235 228.683 56.4697 227.763 56.4697C226.844 56.4697 226.098 55.7235 226.098 54.804C226.098 53.8845 226.844 53.1383 227.763 53.1383Z" fill="#FFFAEE"/>
<path d="M227.763 61.9956C228.443 61.9956 228.993 62.5462 228.993 63.2253C228.993 63.9045 228.443 64.4551 227.763 64.4551C227.084 64.4551 226.534 63.9045 226.534 63.2253C226.534 62.5462 227.084 61.9956 227.763 61.9956Z" fill="#FFFAEE"/>
<path d="M235.749 8.8574C237.873 8.8574 239.594 10.579 239.594 12.7031C239.594 14.8272 237.873 16.5488 235.749 16.5488C233.624 16.5488 231.903 14.8272 231.903 12.7031C231.903 10.579 233.624 8.8574 235.749 8.8574Z" fill="#FFFAEE"/>
<path d="M235.749 17.7138C237.632 17.7138 239.158 19.2398 239.158 21.1235C239.158 23.0072 237.632 24.5332 235.749 24.5332C233.865 24.5332 232.339 23.0072 232.339 21.1235C232.339 19.2398 233.865 17.7138 235.749 17.7138Z" fill="#FFFAEE"/>
<path d="M235.749 26.5711C237.392 26.5711 238.722 27.9015 238.722 29.5448C238.722 31.1882 237.392 32.5186 235.749 32.5186C234.105 32.5186 232.775 31.1882 232.775 29.5448C232.775 27.9015 234.105 26.5711 235.749 26.5711Z" fill="#FFFAEE"/>
<path d="M235.749 35.4275C237.152 35.4275 238.286 36.565 238.286 37.9652C238.286 39.3654 237.149 40.5029 235.749 40.5029C234.348 40.5029 233.211 39.3654 233.211 37.9652C233.211 36.565 234.348 35.4275 235.749 35.4275Z" fill="#FFFAEE"/>
<path d="M235.749 44.2848C236.909 44.2848 237.85 45.2267 237.85 46.3866C237.85 47.5464 236.909 48.4883 235.749 48.4883C234.589 48.4883 233.647 47.5464 233.647 46.3866C233.647 45.2267 234.589 44.2848 235.749 44.2848Z" fill="#FFFAEE"/>
<path d="M235.748 53.1383C236.668 53.1383 237.414 53.8845 237.414 54.804C237.414 55.7235 236.668 56.4697 235.748 56.4697C234.829 56.4697 234.083 55.7235 234.083 54.804C234.083 53.8845 234.829 53.1383 235.748 53.1383Z" fill="#FFFAEE"/>
<path d="M235.748 61.9956C236.427 61.9956 236.978 62.5462 236.978 63.2253C236.978 63.9045 236.427 64.4551 235.748 64.4551C235.069 64.4551 234.519 63.9045 234.519 63.2253C234.519 62.5462 235.069 61.9956 235.748 61.9956Z" fill="#FFFAEE"/>
<path d="M243.733 8.8574C245.858 8.8574 247.579 10.579 247.579 12.7031C247.579 14.8272 245.858 16.5488 243.733 16.5488C241.609 16.5488 239.888 14.8272 239.888 12.7031C239.888 10.579 241.609 8.8574 243.733 8.8574Z" fill="#FFFAEE"/>
<path d="M243.733 17.7138C245.617 17.7138 247.143 19.2398 247.143 21.1235C247.143 23.0072 245.617 24.5332 243.733 24.5332C241.85 24.5332 240.324 23.0072 240.324 21.1235C240.324 19.2398 241.85 17.7138 243.733 17.7138Z" fill="#FFFAEE"/>
<path d="M243.733 26.5711C245.377 26.5711 246.707 27.9015 246.707 29.5448C246.707 31.1882 245.377 32.5186 243.733 32.5186C242.09 32.5186 240.76 31.1882 240.76 29.5448C240.76 27.9015 242.09 26.5711 243.733 26.5711Z" fill="#FFFAEE"/>
<path d="M243.734 35.4275C245.137 35.4275 246.271 36.565 246.271 37.9652C246.271 39.3654 245.134 40.5029 243.734 40.5029C242.333 40.5029 241.196 39.3654 241.196 37.9652C241.196 36.565 242.333 35.4275 243.734 35.4275Z" fill="#FFFAEE"/>
<path d="M243.734 44.2848C244.893 44.2848 245.835 45.2267 245.835 46.3866C245.835 47.5464 244.893 48.4883 243.734 48.4883C242.574 48.4883 241.632 47.5464 241.632 46.3866C241.632 45.2267 242.574 44.2848 243.734 44.2848Z" fill="#FFFAEE"/>
<path d="M243.734 53.1383C244.653 53.1383 245.399 53.8845 245.399 54.804C245.399 55.7235 244.653 56.4697 243.734 56.4697C242.814 56.4697 242.068 55.7235 242.068 54.804C242.068 53.8845 242.814 53.1383 243.734 53.1383Z" fill="#FFFAEE"/>
<path d="M243.734 61.9956C244.413 61.9956 244.963 62.5462 244.963 63.2253C244.963 63.9045 244.413 64.4551 243.734 64.4551C243.054 64.4551 242.504 63.9045 242.504 63.2253C242.504 62.5462 243.054 61.9956 243.734 61.9956Z" fill="#FFFAEE"/>
<path d="M251.718 8.56055C249.888 8.56055 248.336 7.40627 247.724 5.79085C247.112 7.40627 245.561 8.56055 243.731 8.56055C241.9 8.56055 240.349 7.40627 239.737 5.79085C239.125 7.40627 237.573 8.56055 235.743 8.56055C233.912 8.56055 232.361 7.40627 231.749 5.79085C231.137 7.40627 229.586 8.56055 227.755 8.56055C225.925 8.56055 224.376 7.40627 223.764 5.79085C223.152 7.40627 221.601 8.56055 219.77 8.56055C217.94 8.56055 216.389 7.40627 215.776 5.79085C215.164 7.40627 213.613 8.56055 211.783 8.56055C209.952 8.56055 208.401 7.40627 207.789 5.79085C207.177 7.40627 205.626 8.56055 203.795 8.56055C201.964 8.56055 200.416 7.40627 199.804 5.79085C199.192 7.40627 197.641 8.56055 195.81 8.56055C193.979 8.56055 192.465 7.44261 191.836 5.86072C191.207 7.44261 189.664 8.56055 187.861 8.56055C186.059 8.56055 184.48 7.40627 183.868 5.79085C183.256 7.40627 181.704 8.56055 179.874 8.56055C178.043 8.56055 176.492 7.40627 175.88 5.79085C175.268 7.40627 173.717 8.56055 171.886 8.56055C170.055 8.56055 168.504 7.40627 167.892 5.79085C167.28 7.40627 165.729 8.56055 163.898 8.56055C162.068 8.56055 160.519 7.40627 159.907 5.79085C159.295 7.40627 157.744 8.56055 155.914 8.56055C154.083 8.56055 152.532 7.40627 151.92 5.79085C151.308 7.40627 149.756 8.56055 147.926 8.56055C146.095 8.56055 144.544 7.40627 143.932 5.79085C143.32 7.40627 141.769 8.56055 139.938 8.56055C138.108 8.56055 136.559 7.40627 135.947 5.79085C135.335 7.40627 133.784 8.56055 131.953 8.56055C130.123 8.56055 128.608 7.44261 127.979 5.86072C127.35 7.44261 125.807 8.56055 124.005 8.56055C122.202 8.56055 120.623 7.40627 120.011 5.79085C119.399 7.40627 117.848 8.56055 116.017 8.56055C114.186 8.56055 112.635 7.40627 112.023 5.79085C111.411 7.40627 109.86 8.56055 108.029 8.56055C106.199 8.56055 104.648 7.40627 104.035 5.79085C103.423 7.40627 101.872 8.56055 100.042 8.56055C98.211 8.56055 96.6627 7.40627 96.0506 5.79085C95.4385 7.40627 93.8874 8.56055 92.0567 8.56055C90.2261 8.56055 88.675 7.40627 88.0629 5.79085C87.4508 7.40627 85.8997 8.56055 84.0691 8.56055C82.2384 8.56055 80.6873 7.40627 80.0752 5.79085C79.4631 7.40627 77.912 8.56055 76.0814 8.56055C74.2507 8.56055 72.7024 7.40627 72.0903 5.79085C71.4783 7.40627 69.9271 8.56055 68.0965 8.56055C66.2659 8.56055 64.751 7.44261 64.1222 5.86072C63.4934 7.44261 61.9506 8.56055 60.1479 8.56055C58.3452 8.56055 56.7662 7.40627 56.1541 5.79085C55.542 7.40627 53.9909 8.56055 52.1602 8.56055C50.3296 8.56055 48.7785 7.40627 48.1664 5.79085C47.5543 7.40627 46.0032 8.56055 44.1726 8.56055C42.3419 8.56055 40.7908 7.40627 40.1787 5.79085C39.5666 7.40627 38.0155 8.56055 36.1849 8.56055C34.3542 8.56055 32.8059 7.40627 32.1938 5.79085C31.5818 7.40627 30.0306 8.56055 28.2 8.56055C26.3694 8.56055 24.8182 7.40627 24.2061 5.79085C23.5941 7.40627 22.0429 8.56055 20.2123 8.56055C18.3817 8.56055 16.8305 7.40627 16.2185 5.79085C15.6064 7.40627 14.0552 8.56055 12.2246 8.56055C10.394 8.56055 8.84563 7.40627 8.23356 5.79085C7.62149 7.40627 6.07035 8.56055 4.23972 8.56055C1.87528 8.56055 -0.0419922 6.64328 -0.0419922 4.27883C-0.0419922 1.91439 1.87528 -0.00287819 4.23972 -0.00287819C6.07035 -0.00287819 7.62149 1.1514 8.23356 2.76682C8.84563 1.1514 10.3968 -0.00287819 12.2246 -0.00287819C14.0524 -0.00287819 15.6064 1.1514 16.2185 2.76682C16.8305 1.1514 18.3817 -0.00287819 20.2123 -0.00287819C22.0429 -0.00287819 23.5941 1.1514 24.2061 2.76682C24.8182 1.1514 26.3694 -0.00287819 28.2 -0.00287819C30.0306 -0.00287819 31.5818 1.1514 32.1938 2.76682C32.8059 1.1514 34.357 -0.00287819 36.1849 -0.00287819C38.0127 -0.00287819 39.5666 1.1514 40.1787 2.76682C40.7908 1.1514 42.3419 -0.00287819 44.1726 -0.00287819C46.0032 -0.00287819 47.5543 1.1514 48.1664 2.76682C48.7785 1.1514 50.3296 -0.00287819 52.1602 -0.00287819C53.9909 -0.00287819 55.542 1.1514 56.1541 2.76682C56.7662 1.1514 58.3173 -0.00287819 60.1479 -0.00287819C61.9786 -0.00287819 63.4934 1.11506 64.1222 2.69695C64.751 1.11506 66.2938 -0.00287819 68.0965 -0.00287819C69.8992 -0.00287819 71.4783 1.1514 72.0903 2.76682C72.7024 1.1514 74.2535 -0.00287819 76.0814 -0.00287819C77.9092 -0.00287819 79.4631 1.1514 80.0752 2.76682C80.6873 1.1514 82.2384 -0.00287819 84.0691 -0.00287819C85.8997 -0.00287819 87.4508 1.1514 88.0629 2.76682C88.675 1.1514 90.2261 -0.00287819 92.0567 -0.00287819C93.8874 -0.00287819 95.4385 1.1514 96.0506 2.76682C96.6627 1.1514 98.2138 -0.00287819 100.042 -0.00287819C101.869 -0.00287819 103.423 1.1514 104.035 2.76682C104.648 1.1514 106.199 -0.00287819 108.029 -0.00287819C109.86 -0.00287819 111.411 1.1514 112.023 2.76682C112.635 1.1514 114.186 -0.00287819 116.017 -0.00287819C117.848 -0.00287819 119.399 1.1514 120.011 2.76682C120.623 1.1514 122.174 -0.00287819 124.005 -0.00287819C125.835 -0.00287819 127.35 1.11506 127.979 2.69695C128.608 1.11506 130.151 -0.00287819 131.953 -0.00287819C133.756 -0.00287819 135.335 1.1514 135.947 2.76682C136.559 1.1514 138.11 -0.00287819 139.938 -0.00287819C141.766 -0.00287819 143.32 1.1514 143.932 2.76682C144.544 1.1514 146.095 -0.00287819 147.926 -0.00287819C149.756 -0.00287819 151.308 1.1514 151.92 2.76682C152.532 1.1514 154.083 -0.00287819 155.914 -0.00287819C157.744 -0.00287819 159.295 1.1514 159.907 2.76682C160.519 1.1514 162.071 -0.00287819 163.898 -0.00287819C165.726 -0.00287819 167.28 1.1514 167.892 2.76682C168.504 1.1514 170.055 -0.00287819 171.886 -0.00287819C173.717 -0.00287819 175.268 1.1514 175.88 2.76682C176.492 1.1514 178.043 -0.00287819 179.874 -0.00287819C181.704 -0.00287819 183.256 1.1514 183.868 2.76682C184.48 1.1514 186.031 -0.00287819 187.861 -0.00287819C189.692 -0.00287819 191.207 1.11506 191.836 2.69695C192.465 1.11506 194.007 -0.00287819 195.81 -0.00287819C197.613 -0.00287819 199.192 1.1514 199.804 2.76682C200.416 1.1514 201.967 -0.00287819 203.795 -0.00287819C205.623 -0.00287819 207.177 1.1514 207.789 2.76682C208.401 1.1514 209.952 -0.00287819 211.783 -0.00287819C213.613 -0.00287819 215.164 1.1514 215.776 2.76682C216.389 1.1514 217.94 -0.00287819 219.77 -0.00287819C221.601 -0.00287819 223.152 1.1514 223.764 2.76682C224.376 1.1514 225.927 -0.00287819 227.755 -0.00287819C229.583 -0.00287819 231.137 1.1514 231.749 2.76682C232.361 1.1514 233.912 -0.00287819 235.743 -0.00287819C237.573 -0.00287819 239.125 1.1514 239.737 2.76682C240.349 1.1514 241.9 -0.00287819 243.731 -0.00287819C245.561 -0.00287819 247.112 1.1514 247.724 2.76682C248.336 1.1514 249.888 -0.00287819 251.718 -0.00287819C254.083 -0.00287819 256 1.91439 256 4.27883C256 6.64328 254.083 8.56055 251.718 8.56055Z" fill="#FFFAEE"/>
<path d="M251.718 8.8574C253.842 8.8574 255.564 10.579 255.564 12.7031C255.564 14.8272 253.842 16.5488 251.718 16.5488C249.594 16.5488 247.873 14.8272 247.873 12.7031C247.873 10.579 249.594 8.8574 251.718 8.8574Z" fill="#FFFAEE"/>
<path d="M251.718 17.7138C253.602 17.7138 255.128 19.2398 255.128 21.1235C255.128 23.0072 253.602 24.5332 251.718 24.5332C249.835 24.5332 248.309 23.0072 248.309 21.1235C248.309 19.2398 249.835 17.7138 251.718 17.7138Z" fill="#FFFAEE"/>
<path d="M251.718 26.5711C253.362 26.5711 254.692 27.9015 254.692 29.5448C254.692 31.1882 253.362 32.5186 251.718 32.5186C250.075 32.5186 248.745 31.1882 248.745 29.5448C248.745 27.9015 250.075 26.5711 251.718 26.5711Z" fill="#FFFAEE"/>
<path d="M251.718 35.4275C253.121 35.4275 254.256 36.565 254.256 37.9652C254.256 39.3654 253.119 40.5029 251.718 40.5029C250.318 40.5029 249.181 39.3654 249.181 37.9652C249.181 36.565 250.315 35.4275 251.718 35.4275Z" fill="#FFFAEE"/>
<path d="M251.718 44.2848C252.878 44.2848 253.82 45.2267 253.82 46.3866C253.82 47.5464 252.878 48.4883 251.718 48.4883C250.559 48.4883 249.617 47.5464 249.617 46.3866C249.617 45.2267 250.559 44.2848 251.718 44.2848Z" fill="#FFFAEE"/>
<path d="M251.718 53.1383C252.638 53.1383 253.384 53.8845 253.384 54.804C253.384 55.7235 252.638 56.4697 251.718 56.4697C250.799 56.4697 250.053 55.7235 250.053 54.804C250.053 53.8845 250.799 53.1383 251.718 53.1383Z" fill="#FFFAEE"/>
<path d="M251.719 61.9956C252.398 61.9956 252.948 62.5462 252.948 63.2253C252.948 63.9045 252.398 64.4551 251.719 64.4551C251.039 64.4551 250.489 63.9045 250.489 63.2253C250.489 62.5462 251.039 61.9956 251.719 61.9956Z" fill="#FFFAEE"/>
</g>
<defs>
<clipPath id="clip0_101_1121">
<rect width="256" height="64.4577" fill="white" transform="matrix(1 0 0 -1 0 64.458)"/>
</clipPath>
</defs>
</svg>
