<?xml version="1.0" encoding="UTF-8" standalone="no"?><!DOCTYPE svg PUBLIC "-//W3C//DTD SVG 1.1//EN" "http://www.w3.org/Graphics/SVG/1.1/DTD/svg11.dtd"><svg width="100%" height="100%" viewBox="0 0 475 217" version="1.1" xmlns="http://www.w3.org/2000/svg" xmlns:xlink="http://www.w3.org/1999/xlink" xml:space="preserve" xmlns:serif="http://www.serif.com/" style="fill-rule:evenodd;clip-rule:evenodd;stroke-linejoin:round;stroke-miterlimit:2;"><g><clipPath id="_clip1"><rect x="0" y="0" width="471.125" height="216.667"/></clipPath><g clip-path="url(#_clip1)"><path d="M279.357,35.178l-43.795,-20.131l-43.795,20.131l-5.757,-12.386l49.553,-22.793l49.518,22.793l-5.723,12.386Z" style="fill-rule:nonzero;"/><path d="M160.838,34.365l-75.531,34.75l5.75,12.39l75.531,-34.75l-5.75,-12.39Z" style="fill-rule:nonzero;"/><path d="M60.141,136.004l-60.141,-27.672l60.141,-27.638l5.757,12.386l-33.206,15.252l33.206,15.286l-5.757,12.386Z" style="fill-rule:nonzero;"/><path d="M91.047,135.188l-5.747,12.39l75.537,34.737l5.747,-12.391l-75.537,-34.736Z" style="fill-rule:nonzero;"/><path d="M235.562,216.667l-49.553,-22.759l5.757,-12.386l43.795,20.131l43.795,-20.131l5.723,12.386l-49.518,22.759Z" style="fill-rule:nonzero;"/><path d="M380.038,135.201l-75.53,34.75l5.75,12.39l75.531,-34.75l-5.75,-12.39Z" style="fill-rule:nonzero;"/><path d="M410.983,136.004l-5.757,-12.386l33.208,-15.286l-33.208,-15.252l5.757,-12.386l60.142,27.638l-60.142,27.672Z" style="fill-rule:nonzero;"/><path d="M310.301,34.369l-5.75,12.39l75.531,34.75l5.75,-12.39l-75.531,-34.75Z" style="fill-rule:nonzero;"/></g></g></svg>