<?xml version="1.0" encoding="UTF-8" standalone="no"?><!DOCTYPE svg PUBLIC "-//W3C//DTD SVG 1.1//EN" "http://www.w3.org/Graphics/SVG/1.1/DTD/svg11.dtd"><svg width="100%" height="100%" viewBox="0 0 2513 625" version="1.1" xmlns="http://www.w3.org/2000/svg" xmlns:xlink="http://www.w3.org/1999/xlink" xml:space="preserve" xmlns:serif="http://www.serif.com/" style="fill-rule:evenodd;clip-rule:evenodd;stroke-linejoin:round;stroke-miterlimit:2;"><path d="M2490,289.609l-2002.982,0c-95.898,0 -173.646,-77.747 -173.646,-173.659l0,-93.359c0,-12.474 -10.117,-22.591 -22.591,-22.591c-12.474,0 -22.591,10.117 -22.591,22.591l0,93.359c0,95.911 -77.747,173.659 -173.646,173.659l-71.966,0c-12.474,0 -22.578,10.117 -22.578,22.578c0,12.474 10.104,22.591 22.578,22.591l71.966,0c95.898,0 173.646,77.747 173.646,173.659l0,93.359c0,12.474 10.117,22.591 22.591,22.591c12.474,0 22.591,-10.117 22.591,-22.591l0,-93.359c0,-95.911 77.747,-173.659 173.646,-173.659l2002.982,0c12.474,0 22.578,-10.117 22.578,-22.591c0,-12.461 -10.104,-22.578 -22.578,-22.578" style="fill-rule:nonzero;"/></svg>