<?xml version="1.0" encoding="UTF-8" standalone="no"?><!DOCTYPE svg PUBLIC "-//W3C//DTD SVG 1.1//EN" "http://www.w3.org/Graphics/SVG/1.1/DTD/svg11.dtd"><svg width="100%" height="100%" viewBox="0 0 2041 2041" version="1.1" xmlns="http://www.w3.org/2000/svg" xmlns:xlink="http://www.w3.org/1999/xlink" xml:space="preserve" xmlns:serif="http://www.serif.com/" style="fill-rule:evenodd;clip-rule:evenodd;stroke-miterlimit:10;"><path d="M1712.952,1031.181l-579.753,0c-31.875,0 -47.852,38.542 -25.299,61.094l410,410l-15.625,15.625l-410.13,-410.13c-22.552,-22.552 -61.094,-6.576 -61.094,25.299l0,580.013l-22.005,0l0,-579.883c0,-31.875 -38.542,-47.852 -61.094,-25.299l-410,410l-15.625,-15.625l410,-410c22.552,-22.552 6.576,-61.094 -25.299,-61.094l-579.883,0l0,-22.135l579.883,0c31.875,0 47.852,-38.542 25.299,-61.094l-410,-410l15.625,-15.625l410,410c22.552,22.552 61.094,6.576 61.094,-25.299l0,-579.883l22.005,0l0,580.013c0,31.875 38.542,47.852 61.094,25.299l410.13,-410.13l15.625,15.625l-410,410c-22.552,22.552 -6.576,61.094 25.299,61.094l579.753,0l0,22.135Z" style="fill-rule:nonzero;stroke:#000;stroke-width:65.1px;"/></svg>