<?xml version="1.0" encoding="UTF-8" standalone="no"?><!DOCTYPE svg PUBLIC "-//W3C//DTD SVG 1.1//EN" "http://www.w3.org/Graphics/SVG/1.1/DTD/svg11.dtd"><svg width="100%" height="100%" viewBox="0 0 209 209" version="1.1" xmlns="http://www.w3.org/2000/svg" xmlns:xlink="http://www.w3.org/1999/xlink" xml:space="preserve" xmlns:serif="http://www.serif.com/" style="fill-rule:evenodd;clip-rule:evenodd;stroke-linejoin:round;stroke-miterlimit:2;"><rect x="102.623" y="0" width="3.087" height="76.235" style="fill-rule:nonzero;"/><rect x="102.623" y="132.099" width="3.086" height="76.235" style="fill-rule:nonzero;"/><rect x="0" y="102.623" width="76.234" height="3.087" style="fill-rule:nonzero;"/><rect x="132.099" y="102.623" width="76.235" height="3.087" style="fill-rule:nonzero;"/><path d="M104.167,175.618c-39.506,0 -71.605,-32.099 -71.605,-71.605c0,-39.506 32.099,-71.605 71.605,-71.605c39.506,0 71.605,32.099 71.605,71.605c0,39.506 -32.253,71.605 -71.605,71.605Zm0,-139.969c-37.809,-0 -68.519,30.71 -68.519,68.518c0,37.809 30.71,68.519 68.519,68.519c37.808,0 68.518,-30.71 68.518,-68.519c0,-37.809 -30.864,-68.518 -68.518,-68.518Z" style="fill-rule:nonzero;"/><path d="M105.71,102.624l26.389,0c-0.772,-14.198 -12.191,-25.617 -26.388,-26.389l-0,26.389Z" style="fill-rule:nonzero;"/><path d="M102.623,102.624l0,-26.389c-14.197,0.772 -25.617,12.191 -26.389,26.389l26.389,0Z" style="fill-rule:nonzero;"/><path d="M102.623,105.71l-26.389,0c0.772,14.197 12.192,25.617 26.389,26.389l0,-26.389Z" style="fill-rule:nonzero;"/><path d="M105.71,105.71l0,26.389c14.197,-0.772 25.617,-12.191 26.389,-26.389l-26.389,0Z" style="fill-rule:nonzero;"/></svg>