<?xml version="1.0" encoding="UTF-8" standalone="no"?><!DOCTYPE svg PUBLIC "-//W3C//DTD SVG 1.1//EN" "http://www.w3.org/Graphics/SVG/1.1/DTD/svg11.dtd"><svg width="100%" height="100%" viewBox="0 0 2356 2356" version="1.1" xmlns="http://www.w3.org/2000/svg" xmlns:xlink="http://www.w3.org/1999/xlink" xml:space="preserve" xmlns:serif="http://www.serif.com/" style="fill-rule:evenodd;clip-rule:evenodd;stroke-miterlimit:10;"><path d="M2093.317,1177.519c0,-505.441 -410.357,-915.794 -915.801,-915.794c-505.444,-0 -915.801,410.354 -915.801,915.794c0,505.441 410.357,915.794 915.801,915.794c505.444,0 915.801,-410.354 915.801,-915.794Z" style="fill:none;stroke:#000;stroke-width:52.08px;"/><path d="M1177.518,2093.317c-505.781,0 -915.794,-410.013 -915.794,-915.794c0,-505.781 410.013,-915.807 915.794,-915.807c505.781,0 915.794,410.026 915.794,915.807c0,505.781 -410.013,915.794 -915.794,915.794Z" style="fill:none;fill-rule:nonzero;stroke:#000;stroke-width:52.08px;"/><path d="M1177.518,2093.317c-388.034,0 -702.591,-410.013 -702.591,-915.794c0,-505.781 314.557,-915.807 702.591,-915.807c388.034,0 702.591,410.026 702.591,915.807c0,505.781 -314.557,915.794 -702.591,915.794Z" style="fill:none;fill-rule:nonzero;stroke:#000;stroke-width:52.08px;"/><path d="M1177.518,2093.317c-133.919,0 -242.487,-410.013 -242.487,-915.794c0,-505.781 108.568,-915.807 242.487,-915.807c133.919,0 242.487,410.026 242.487,915.807c0,505.781 -108.568,915.794 -242.487,915.794Z" style="fill:none;fill-rule:nonzero;stroke:#000;stroke-width:52.08px;"/><path d="M261.719,1177.519l1831.602,0" style="fill:none;fill-rule:nonzero;stroke:#000;stroke-width:52.08px;"/><path d="M385.226,710.236c520.677,-222.565 1049.232,-231.133 1587.93,3.958" style="fill:none;fill-rule:nonzero;stroke:#000;stroke-width:52.08px;"/><path d="M385.226,1644.801c520.677,222.565 1049.232,231.133 1587.93,-3.958" style="fill:none;fill-rule:nonzero;stroke:#000;stroke-width:52.08px;"/></svg>