<?xml version="1.0" encoding="UTF-8" standalone="no"?><!DOCTYPE svg PUBLIC "-//W3C//DTD SVG 1.1//EN" "http://www.w3.org/Graphics/SVG/1.1/DTD/svg11.dtd"><svg width="100%" height="100%" viewBox="0 0 108183 8131" version="1.1" xmlns="http://www.w3.org/2000/svg" xmlns:xlink="http://www.w3.org/1999/xlink" xml:space="preserve" xmlns:serif="http://www.serif.com/" style="fill-rule:evenodd;clip-rule:evenodd;stroke-linejoin:round;stroke-miterlimit:2;"><path d="M107888.335,3767.044l-87366.002,3.906c-1248.672,0 -2261.016,-1012.331 -2261.016,-2261.185l0,-1215.612c0,-162.422 -131.732,-294.154 -294.154,-294.154c-162.422,0 -294.154,131.732 -294.154,294.154l0,1215.612c0,1248.841 -1012.331,2261.185 -2261.016,2261.185l-15118.01,-3.906c-162.422,0 -293.984,131.732 -293.984,293.984c0,162.422 131.563,294.154 293.984,294.154l15118.01,3.906c1248.672,0 2261.016,1012.331 2261.016,2261.185l0,1215.612c0,162.422 131.732,294.154 294.154,294.154c162.422,0 294.154,-131.732 294.154,-294.154l0,-1215.612c0,-1248.841 1012.331,-2261.185 2261.016,-2261.185l87366.002,-3.906c162.422,0 293.984,-131.732 293.984,-294.154c0,-162.253 -131.562,-293.984 -293.984,-293.984" style="fill-rule:nonzero;"/></svg>