<?xml version="1.0" encoding="UTF-8" standalone="no"?><!DOCTYPE svg PUBLIC "-//W3C//DTD SVG 1.1//EN" "http://www.w3.org/Graphics/SVG/1.1/DTD/svg11.dtd"><svg width="100%" height="100%" viewBox="0 0 2966 1573" version="1.1" xmlns="http://www.w3.org/2000/svg" xmlns:xlink="http://www.w3.org/1999/xlink" xml:space="preserve" xmlns:serif="http://www.serif.com/" style="fill-rule:evenodd;clip-rule:evenodd;stroke-miterlimit:10;"><path d="M1375.87,786.078c0,-325.515 -264.277,-589.792 -589.792,-589.792c-325.515,0 -589.792,264.277 -589.792,589.792c0,325.515 264.277,589.792 589.792,589.792c325.515,0 589.792,-264.277 589.792,-589.792Z" style="fill:none;stroke:#000;stroke-width:39.06px;"/><path d="M2834.636,794.301l-430.703,0c-23.685,0 -35.547,28.633 -18.802,45.391l304.596,304.596l-11.602,11.602l-304.701,-304.688c-16.745,-16.758 -45.391,-4.896 -45.391,18.789l0,430.911l-16.341,0l0,-430.807c0,-23.685 -28.646,-35.547 -45.391,-18.802l-304.596,304.596l-11.615,-11.602l304.609,-304.596c16.745,-16.758 4.883,-45.391 -18.802,-45.391l-1449.818,0l0,-16.445l1449.818,0c23.685,0 35.547,-28.633 18.802,-45.391l-304.609,-304.596l11.615,-11.602l304.596,304.596c16.745,16.745 45.391,4.883 45.391,-18.802l0,-430.807l16.341,0l0,430.911c0,23.685 28.646,35.547 45.391,18.789l304.701,-304.688l11.602,11.602l-304.596,304.596c-16.745,16.758 -4.883,45.391 18.802,45.391l430.703,0l0,16.445Z" style="fill-rule:nonzero;stroke:#000;stroke-width:26.04px;"/></svg>