<?xml version="1.0" encoding="UTF-8" standalone="no"?><!DOCTYPE svg PUBLIC "-//W3C//DTD SVG 1.1//EN" "http://www.w3.org/Graphics/SVG/1.1/DTD/svg11.dtd"><svg width="100%" height="100%" viewBox="0 0 6210 12113" version="1.1" xmlns="http://www.w3.org/2000/svg" xmlns:xlink="http://www.w3.org/1999/xlink" xml:space="preserve" xmlns:serif="http://www.serif.com/" style="fill-rule:evenodd;clip-rule:evenodd;stroke-linejoin:round;stroke-miterlimit:2;"><path d="M6209.97,4322.423l0,975.612l-0.99,0l-2421.107,-3.229l-202.201,203.815l-3.216,642.422l-216.836,211.875l-2412.422,0l0,-2025.651l174.779,-164.987l4926.693,0l155.299,160.143Z" style="fill-rule:nonzero;"/><path d="M6209.964,8308.867l0,315.573l-202.188,207.773l-4831.927,0l-222.656,-209.388l0,-971.029l2412.422,0l216.836,-211.862l3.216,-642.435l202.201,-203.802l2421.107,3.229l-0.508,538.971l-205.417,200.091l-935.911,0l-175.651,169.31l4.714,444.831l159.896,164.727l951.68,0l202.188,194.01Z" style="fill-rule:nonzero;"/><path d="M5030.236,1902.773l-99.258,95.742c-25.143,24.245 -39.18,57.786 -38.815,92.708l3.568,339.388c0.339,32.539 13.164,63.698 35.807,87.057l87.135,89.831c23.906,24.648 56.797,38.568 91.133,38.568l846.94,0c32.76,0 64.245,12.656 87.891,35.339l126.25,121.12c24.948,23.945 39.062,57.031 39.062,91.615l0,209.961c0,33.073 -12.917,64.844 -35.99,88.555l-128.776,132.305c-23.906,24.544 -56.719,38.398 -90.977,38.398l-4728.008,0c-32.318,0 -63.424,-12.331 -86.966,-34.466l-146.029,-137.305c-25.521,-23.997 -39.987,-57.461 -39.987,-92.487l0,-2186.94c0,-33.685 13.372,-65.977 37.188,-89.779l785.326,-785.195c23.802,-23.815 56.094,-37.188 89.766,-37.188l4135.43,0c34.349,0 67.227,13.919 91.133,38.568l82.057,84.609c22.982,23.685 35.833,55.391 35.833,88.385l0,924.193l-0.99,0l-0.391,477.786c-0.026,34.206 -13.854,66.953 -38.346,90.82l-130.13,126.797c-23.698,23.112 -55.495,36.042 -88.594,36.042l-833.125,0c-32.878,0 -64.479,12.747 -88.138,35.573" style="fill-rule:nonzero;"/><path d="M0,10202.598l0,1434.505l471.979,475.677l984.818,0l1066.589,-1070.299l3359.544,18.581l327.044,-319.596l0,-1441.927l-4437.292,0l-419.935,416.224l-888.203,0l-464.544,486.836Z" style="fill-rule:nonzero;"/></svg>