<?xml version="1.0" encoding="UTF-8" standalone="no"?><!DOCTYPE svg PUBLIC "-//W3C//DTD SVG 1.1//EN" "http://www.w3.org/Graphics/SVG/1.1/DTD/svg11.dtd"><svg width="100%" height="100%" viewBox="0 0 480 59" version="1.1" xmlns="http://www.w3.org/2000/svg" xmlns:xlink="http://www.w3.org/1999/xlink" xml:space="preserve" xmlns:serif="http://www.serif.com/" style="fill-rule:evenodd;clip-rule:evenodd;stroke-linejoin:round;stroke-miterlimit:2;"><path d="M233.832,58.333c-1.259,0 -2.362,-0.852 -2.66,-2.065l-10.795,-43.192l-15.064,42.611c-0.402,1.123 -1.466,1.885 -2.673,1.82c-1.194,-0.039 -2.232,-0.839 -2.556,-1.975l-12.365,-42.791l-12.028,42.778c-0.325,1.175 -1.401,1.988 -2.621,1.988c-1.232,0 -2.309,-0.788 -2.647,-1.962l-12.585,-42.417l-10.575,42.301c-0.298,1.214 -1.401,2.065 -2.66,2.065c-1.258,0 -2.361,-0.852 -2.66,-2.065l-10.873,-43.488l-6.656,17.762c-0.402,1.071 -1.427,1.781 -2.569,1.781l-121.846,0l0,-5.46l119.939,0l9.082,-24.242c0.415,-1.123 1.518,-1.833 2.725,-1.768c1.207,0.065 2.219,0.904 2.504,2.065l10.341,41.385l10.354,-41.397c0.298,-1.2 1.362,-2.04 2.608,-2.065c1.232,-0.013 2.335,0.775 2.686,1.962l12.741,42.934l12.066,-42.895c0.325,-1.175 1.401,-1.988 2.634,-2.001c1.22,-0 2.297,0.8 2.634,1.975l12.663,43.824l15.245,-43.153c0.402,-1.136 1.492,-1.872 2.712,-1.82c1.207,0.052 2.245,0.904 2.53,2.065l10.341,41.385l4.048,-16.187c0.298,-1.213 1.401,-2.065 2.66,-2.065l238.653,0l0,5.46l-236.512,0l-6.189,24.771c-0.298,1.213 -1.401,2.065 -2.66,2.065l0.026,0.013Z" style="fill-rule:nonzero;"/></svg>