<svg width="529" height="24" viewBox="0 0 529 24" fill="none" xmlns="http://www.w3.org/2000/svg">
<path d="M526.895 24.0002L526.892 24.0002L423.621 24.0002L421.513 24.0002L318.242 24.0002L316.135 24.0002L212.865 24.0002L210.756 24.0002L107.486 24.0001L105.379 24.0001L2.10828 24.0001L0.00317751 24.0001L0 24.0001L4.19631e-06 3.05176e-05L2.10828 3.08862e-05L2.10828 21.6007L52.7276 21.6007L52.7276 12.0011L53.781 12.0011L53.781 21.6007L105.379 21.6008L105.379 4.89426e-05L107.486 4.9311e-05L107.486 21.6008L158.105 21.6008L158.105 12.0011L159.16 12.0011L159.16 21.6008L210.756 21.6008L210.756 6.73674e-05L212.865 6.7736e-05L212.865 21.6008L263.484 21.6008L263.484 12.0012L264.537 12.0012L264.537 21.6008L316.135 21.6008L316.135 8.57924e-05L318.242 8.61608e-05L318.242 21.6008L368.863 21.6008L368.863 12.0012L369.916 12.0012L369.916 21.6008L421.513 21.6008L421.513 0.000104217L423.621 0.000104586L423.621 21.6008L474.24 21.6008L474.24 12.0012L475.294 12.0012L475.294 21.6008L526.892 21.6008L526.892 0.000122642L529 0.000123011L529 24.0002L526.895 24.0002Z" fill="#000000"/>
</svg>
