<?xml version="1.0" encoding="UTF-8" standalone="no"?><!DOCTYPE svg PUBLIC "-//W3C//DTD SVG 1.1//EN" "http://www.w3.org/Graphics/SVG/1.1/DTD/svg11.dtd"><svg width="100%" height="100%" viewBox="0 0 4020 1543" version="1.1" xmlns="http://www.w3.org/2000/svg" xmlns:xlink="http://www.w3.org/1999/xlink" xml:space="preserve" xmlns:serif="http://www.serif.com/" style="fill-rule:evenodd;clip-rule:evenodd;stroke-miterlimit:10;"><path d="M2595.301,771.117c0,-317.258 -262.465,-574.831 -585.749,-574.831c-323.284,0 -585.749,257.573 -585.749,574.831c0,317.258 262.465,574.831 585.749,574.831c323.284,0 585.749,-257.573 585.749,-574.831Z" style="fill:none;stroke:#000;stroke-width:39.06px;"/><path d="M3220.78,771.117c0,-317.258 -542.734,-574.831 -1211.23,-574.831c-668.496,0 -1211.23,257.573 -1211.23,574.831c0,317.258 542.734,574.831 1211.23,574.831c668.496,0 1211.23,-257.573 1211.23,-574.831Z" style="fill:none;stroke:#000;stroke-width:39.06px;"/><path d="M2899.891,771.117c0,-317.258 -398.947,-574.831 -890.339,-574.831c-491.391,0 -890.339,257.573 -890.339,574.831c0,317.258 398.947,574.831 890.339,574.831c491.391,0 890.339,-257.573 890.339,-574.831Z" style="fill:none;stroke:#000;stroke-width:39.06px;"/><path d="M196.287,771.117l3626.536,0" style="fill:none;fill-rule:nonzero;stroke:#000;stroke-width:39.06px;"/><path d="M2009.551,915.517l0,-288.802" style="fill:none;fill-rule:nonzero;stroke:#000;stroke-width:39.06px;"/></svg>