<svg width="15" height="226" viewBox="0 0 15 226" fill="none" xmlns="http://www.w3.org/2000/svg">
<path d="M8.1081 225.215C7.71577 225.607 7.07969 225.607 6.68737 225.215L0.294084 218.822C-0.0982392 218.429 -0.0982388 217.793 0.294086 217.401C0.68641 217.009 1.32249 217.009 1.71482 217.401L7.39773 223.084L13.0807 217.401C13.473 217.009 14.1091 217.009 14.5014 217.401C14.8937 217.793 14.8937 218.429 14.5014 218.822L8.1081 225.215ZM6.68757 0.294281C7.0799 -0.0980377 7.71598 -0.0980377 8.10831 0.294296L14.5016 6.68758C14.8939 7.07991 14.8939 7.71599 14.5016 8.10831C14.1093 8.50064 13.4732 8.50064 13.0809 8.10831L7.39794 2.42538L1.71501 8.10831C1.32269 8.50063 0.686603 8.50063 0.29428 8.10831C-0.0980439 7.71597 -0.0980434 7.0799 0.294281 6.68758L6.68757 0.294281ZM7.39773 224.505L6.39312 224.505L6.39333 1.00465L7.39794 1.00465L8.40255 1.00465L8.40234 224.505L7.39773 224.505Z" fill="#FFFAEE"/>
</svg>
